G04 #@! TF.GenerationSoftware,KiCad,Pcbnew,(7.0.0)*
G04 #@! TF.CreationDate,2023-04-25T22:09:53+02:00*
G04 #@! TF.ProjectId,cdp-mobo,6364702d-6d6f-4626-9f2e-6b696361645f,1*
G04 #@! TF.SameCoordinates,Original*
G04 #@! TF.FileFunction,Soldermask,Bot*
G04 #@! TF.FilePolarity,Negative*
%FSLAX46Y46*%
G04 Gerber Fmt 4.6, Leading zero omitted, Abs format (unit mm)*
G04 Created by KiCad (PCBNEW (7.0.0)) date 2023-04-25 22:09:53*
%MOMM*%
%LPD*%
G01*
G04 APERTURE LIST*
G04 Aperture macros list*
%AMRoundRect*
0 Rectangle with rounded corners*
0 $1 Rounding radius*
0 $2 $3 $4 $5 $6 $7 $8 $9 X,Y pos of 4 corners*
0 Add a 4 corners polygon primitive as box body*
4,1,4,$2,$3,$4,$5,$6,$7,$8,$9,$2,$3,0*
0 Add four circle primitives for the rounded corners*
1,1,$1+$1,$2,$3*
1,1,$1+$1,$4,$5*
1,1,$1+$1,$6,$7*
1,1,$1+$1,$8,$9*
0 Add four rect primitives between the rounded corners*
20,1,$1+$1,$2,$3,$4,$5,0*
20,1,$1+$1,$4,$5,$6,$7,0*
20,1,$1+$1,$6,$7,$8,$9,0*
20,1,$1+$1,$8,$9,$2,$3,0*%
G04 Aperture macros list end*
%ADD10R,1.600000X1.600000*%
%ADD11O,1.600000X1.600000*%
%ADD12C,1.600000*%
%ADD13R,1.500000X1.500000*%
%ADD14C,1.500000*%
%ADD15C,3.200000*%
%ADD16RoundRect,0.250000X-0.600000X-0.600000X0.600000X-0.600000X0.600000X0.600000X-0.600000X0.600000X0*%
%ADD17C,1.700000*%
%ADD18R,1.700000X1.700000*%
%ADD19O,1.700000X1.700000*%
G04 APERTURE END LIST*
D10*
X143509999Y-125729999D03*
D11*
X143509999Y-133349999D03*
D12*
X133985000Y-65405000D03*
X133985000Y-62905000D03*
X162560000Y-69850000D03*
D11*
X172719999Y-69849999D03*
D12*
X189230000Y-118110000D03*
D11*
X189229999Y-128269999D03*
D12*
X140970000Y-82550000D03*
X143470000Y-82550000D03*
D10*
X135889999Y-86359999D03*
D11*
X135889999Y-88899999D03*
X135889999Y-91439999D03*
X135889999Y-93979999D03*
X135889999Y-96519999D03*
X135889999Y-99059999D03*
X135889999Y-101599999D03*
X135889999Y-104139999D03*
X135889999Y-106679999D03*
X135889999Y-109219999D03*
X143509999Y-109219999D03*
X143509999Y-106679999D03*
X143509999Y-104139999D03*
X143509999Y-101599999D03*
X143509999Y-99059999D03*
X143509999Y-96519999D03*
X143509999Y-93979999D03*
X143509999Y-91439999D03*
X143509999Y-88899999D03*
X143509999Y-86359999D03*
D10*
X185859999Y-105019999D03*
D11*
X193479999Y-105019999D03*
D10*
X169925999Y-73659999D03*
D11*
X169925999Y-81279999D03*
D13*
X186054999Y-99059999D03*
D14*
X188595000Y-99060000D03*
X191135000Y-99060000D03*
D15*
X102870000Y-48260000D03*
D12*
X194750000Y-108205000D03*
D11*
X184589999Y-108204999D03*
D10*
X166750999Y-73659999D03*
D11*
X166750999Y-81279999D03*
D10*
X115569999Y-68579999D03*
D11*
X115569999Y-71119999D03*
X115569999Y-73659999D03*
X115569999Y-76199999D03*
X115569999Y-78739999D03*
X115569999Y-81279999D03*
X115569999Y-83819999D03*
X115569999Y-86359999D03*
X115569999Y-88899999D03*
X115569999Y-91439999D03*
X115569999Y-93979999D03*
X115569999Y-96519999D03*
X115569999Y-99059999D03*
X115569999Y-101599999D03*
X115569999Y-104139999D03*
X115569999Y-106679999D03*
X115569999Y-109219999D03*
X115569999Y-111759999D03*
X115569999Y-114299999D03*
X115569999Y-116839999D03*
X130809999Y-116839999D03*
X130809999Y-114299999D03*
X130809999Y-111759999D03*
X130809999Y-109219999D03*
X130809999Y-106679999D03*
X130809999Y-104139999D03*
X130809999Y-101599999D03*
X130809999Y-99059999D03*
X130809999Y-96519999D03*
X130809999Y-93979999D03*
X130809999Y-91439999D03*
X130809999Y-88899999D03*
X130809999Y-86359999D03*
X130809999Y-83819999D03*
X130809999Y-81279999D03*
X130809999Y-78739999D03*
X130809999Y-76199999D03*
X130809999Y-73659999D03*
X130809999Y-71119999D03*
X130809999Y-68579999D03*
D16*
X102870000Y-68580000D03*
D17*
X105410000Y-68580000D03*
X102870000Y-71120000D03*
X105410000Y-71120000D03*
X102870000Y-73660000D03*
X105410000Y-73660000D03*
X102870000Y-76200000D03*
X105410000Y-76200000D03*
X102870000Y-78740000D03*
X105410000Y-78740000D03*
X102870000Y-81280000D03*
X105410000Y-81280000D03*
X102870000Y-83820000D03*
X105410000Y-83820000D03*
X102870000Y-86360000D03*
X105410000Y-86360000D03*
X102870000Y-88900000D03*
X105410000Y-88900000D03*
X102870000Y-91440000D03*
X105410000Y-91440000D03*
X102870000Y-93980000D03*
X105410000Y-93980000D03*
X102870000Y-96520000D03*
X105410000Y-96520000D03*
X102870000Y-99060000D03*
X105410000Y-99060000D03*
X102870000Y-101600000D03*
X105410000Y-101600000D03*
X102870000Y-104140000D03*
X105410000Y-104140000D03*
X102870000Y-106680000D03*
X105410000Y-106680000D03*
X102870000Y-109220000D03*
X105410000Y-109220000D03*
X102870000Y-111760000D03*
X105410000Y-111760000D03*
X102870000Y-114300000D03*
X105410000Y-114300000D03*
X102870000Y-116840000D03*
X105410000Y-116840000D03*
D12*
X149860000Y-59690000D03*
D11*
X139699999Y-59689999D03*
D15*
X102870000Y-137160000D03*
D10*
X133349999Y-55879999D03*
D11*
X135889999Y-55879999D03*
X138429999Y-55879999D03*
X140969999Y-55879999D03*
X143509999Y-55879999D03*
X146049999Y-55879999D03*
X148589999Y-55879999D03*
X148589999Y-48259999D03*
X146049999Y-48259999D03*
X143509999Y-48259999D03*
X140969999Y-48259999D03*
X138429999Y-48259999D03*
X135889999Y-48259999D03*
X133349999Y-48259999D03*
D10*
X166369999Y-85089999D03*
D11*
X166369999Y-87629999D03*
X166369999Y-90169999D03*
X166369999Y-92709999D03*
X166369999Y-95249999D03*
X166369999Y-97789999D03*
X166369999Y-100329999D03*
X166369999Y-102869999D03*
X166369999Y-105409999D03*
X166369999Y-107949999D03*
X166369999Y-110489999D03*
X166369999Y-113029999D03*
X166369999Y-115569999D03*
X166369999Y-118109999D03*
X181609999Y-118109999D03*
X181609999Y-115569999D03*
X181609999Y-113029999D03*
X181609999Y-110489999D03*
X181609999Y-107949999D03*
X181609999Y-105409999D03*
X181609999Y-102869999D03*
X181609999Y-100329999D03*
X181609999Y-97789999D03*
X181609999Y-95249999D03*
X181609999Y-92709999D03*
X181609999Y-90169999D03*
X181609999Y-87629999D03*
X181609999Y-85089999D03*
D18*
X139699999Y-139699999D03*
D19*
X137159999Y-139699999D03*
X134619999Y-139699999D03*
X132079999Y-139699999D03*
X129539999Y-139699999D03*
X126999999Y-139699999D03*
X124459999Y-139699999D03*
X121919999Y-139699999D03*
X119379999Y-139699999D03*
D10*
X115569999Y-64769999D03*
D11*
X123189999Y-64769999D03*
D10*
X176529999Y-74929999D03*
D11*
X179069999Y-74929999D03*
X181609999Y-74929999D03*
X184149999Y-74929999D03*
X186689999Y-74929999D03*
X189229999Y-74929999D03*
X191769999Y-74929999D03*
X191769999Y-67309999D03*
X189229999Y-67309999D03*
X186689999Y-67309999D03*
X184149999Y-67309999D03*
X181609999Y-67309999D03*
X179069999Y-67309999D03*
X176529999Y-67309999D03*
D12*
X129540000Y-48260000D03*
X129540000Y-50760000D03*
D10*
X163829999Y-66039999D03*
D11*
X171449999Y-66039999D03*
D10*
X111759999Y-118109999D03*
D11*
X111759999Y-115569999D03*
X111759999Y-113029999D03*
X111759999Y-110489999D03*
X111759999Y-107949999D03*
D10*
X128904999Y-64134999D03*
D12*
X128905000Y-61635000D03*
X154940000Y-128270000D03*
X154940000Y-125770000D03*
X176530000Y-63500000D03*
X179030000Y-63500000D03*
D10*
X163575999Y-73659999D03*
D11*
X163575999Y-81279999D03*
D12*
X157480000Y-137160000D03*
D11*
X147319999Y-137159999D03*
D10*
X147319999Y-125729999D03*
D11*
X147319999Y-133349999D03*
D12*
X156210000Y-76200000D03*
X158710000Y-76200000D03*
D18*
X111759999Y-55879999D03*
D19*
X114299999Y-55879999D03*
X116839999Y-55879999D03*
X119379999Y-55879999D03*
X121919999Y-55879999D03*
D12*
X177800000Y-59690000D03*
D11*
X187959999Y-59689999D03*
D18*
X161289999Y-139699999D03*
D19*
X163829999Y-139699999D03*
X166369999Y-139699999D03*
X168909999Y-139699999D03*
X171449999Y-139699999D03*
X173989999Y-139699999D03*
X176529999Y-139699999D03*
D12*
X189230000Y-89535000D03*
X189230000Y-94535000D03*
D10*
X162559999Y-55879999D03*
D11*
X165099999Y-55879999D03*
X167639999Y-55879999D03*
X170179999Y-55879999D03*
X172719999Y-55879999D03*
X175259999Y-55879999D03*
X177799999Y-55879999D03*
X180339999Y-55879999D03*
X180339999Y-48259999D03*
X177799999Y-48259999D03*
X175259999Y-48259999D03*
X172719999Y-48259999D03*
X170179999Y-48259999D03*
X167639999Y-48259999D03*
X165099999Y-48259999D03*
X162559999Y-48259999D03*
D12*
X153670000Y-66040000D03*
D11*
X153669999Y-55879999D03*
D15*
X191770000Y-48260000D03*
D10*
X134619999Y-68579999D03*
D11*
X134619999Y-71119999D03*
X134619999Y-73659999D03*
X134619999Y-76199999D03*
X134619999Y-78739999D03*
D15*
X191770000Y-137160000D03*
D12*
X181610000Y-121920000D03*
D11*
X181609999Y-132079999D03*
D12*
X158750000Y-48260000D03*
X158750000Y-50760000D03*
X185420000Y-118110000D03*
D11*
X185419999Y-128269999D03*
D10*
X151129999Y-80009999D03*
D11*
X151129999Y-82549999D03*
X151129999Y-85089999D03*
X151129999Y-87629999D03*
X151129999Y-90169999D03*
X151129999Y-92709999D03*
X151129999Y-95249999D03*
X151129999Y-97789999D03*
X151129999Y-100329999D03*
X151129999Y-102869999D03*
X151129999Y-105409999D03*
X151129999Y-107949999D03*
X151129999Y-110489999D03*
X151129999Y-113029999D03*
X151129999Y-115569999D03*
X151129999Y-118109999D03*
X158749999Y-118109999D03*
X158749999Y-115569999D03*
X158749999Y-113029999D03*
X158749999Y-110489999D03*
X158749999Y-107949999D03*
X158749999Y-105409999D03*
X158749999Y-102869999D03*
X158749999Y-100329999D03*
X158749999Y-97789999D03*
X158749999Y-95249999D03*
X158749999Y-92709999D03*
X158749999Y-90169999D03*
X158749999Y-87629999D03*
X158749999Y-85089999D03*
X158749999Y-82549999D03*
X158749999Y-80009999D03*
D12*
X125730000Y-46990000D03*
D11*
X125729999Y-57149999D03*
D10*
X111759999Y-63499999D03*
D11*
X111759999Y-66039999D03*
X111759999Y-68579999D03*
X111759999Y-71119999D03*
X111759999Y-73659999D03*
D10*
X151129999Y-125729999D03*
D11*
X151129999Y-133349999D03*
D12*
X140970000Y-69850000D03*
X143470000Y-69850000D03*
D14*
X142240000Y-64770000D03*
X147120000Y-64770000D03*
D12*
X143510000Y-135890000D03*
X143510000Y-138390000D03*
D10*
X115569999Y-61594999D03*
D11*
X123189999Y-61594999D03*
D12*
X188595000Y-102235000D03*
X191095000Y-102235000D03*
D10*
X116839999Y-133349999D03*
D11*
X119379999Y-133349999D03*
X121919999Y-133349999D03*
X124459999Y-133349999D03*
X126999999Y-133349999D03*
X129539999Y-133349999D03*
X132079999Y-133349999D03*
X134619999Y-133349999D03*
X137159999Y-133349999D03*
X139699999Y-133349999D03*
X139699999Y-125729999D03*
X137159999Y-125729999D03*
X134619999Y-125729999D03*
X132079999Y-125729999D03*
X129539999Y-125729999D03*
X126999999Y-125729999D03*
X124459999Y-125729999D03*
X121919999Y-125729999D03*
X119379999Y-125729999D03*
X116839999Y-125729999D03*
D18*
X194309999Y-62229999D03*
D19*
X194309999Y-59689999D03*
D12*
X113030000Y-125730000D03*
X113030000Y-128230000D03*
D10*
X158749999Y-133349999D03*
D11*
X161289999Y-133349999D03*
X163829999Y-133349999D03*
X166369999Y-133349999D03*
X168909999Y-133349999D03*
X171449999Y-133349999D03*
X173989999Y-133349999D03*
X173989999Y-125729999D03*
X171449999Y-125729999D03*
X168909999Y-125729999D03*
X166369999Y-125729999D03*
X163829999Y-125729999D03*
X161289999Y-125729999D03*
X158749999Y-125729999D03*
D12*
X148590000Y-69850000D03*
X146090000Y-69850000D03*
D10*
X177799999Y-133349999D03*
D11*
X177799999Y-125729999D03*
D10*
X187324999Y-85089999D03*
D12*
X187325000Y-82590000D03*
X179070000Y-81280000D03*
X181570000Y-81280000D03*
X193040000Y-118110000D03*
D11*
X193039999Y-128269999D03*
D18*
X194309999Y-89534999D03*
D19*
X194309999Y-92074999D03*
X194309999Y-94614999D03*
X194309999Y-97154999D03*
M02*
