M48
; DRILL file {KiCad (7.0.0)} date Tue Apr 25 22:11:27 2023
; FORMAT={-:-/ absolute / metric / decimal}
; #@! TF.CreationDate,2023-04-25T22:11:27+02:00
; #@! TF.GenerationSoftware,Kicad,Pcbnew,(7.0.0)
; #@! TF.FileFunction,Plated,1,2,PTH
FMAT,2
METRIC
; #@! TA.AperFunction,Plated,PTH,ViaDrill
T1C0.400
; #@! TA.AperFunction,Plated,PTH,ComponentDrill
T2C0.800
; #@! TA.AperFunction,Plated,PTH,ComponentDrill
T3C1.000
%
G90
G05
T1
X119.38Y-86.36
X120.65Y-88.9
X121.92Y-91.44
X121.92Y-121.92
X123.19Y-93.98
X124.46Y-96.52
X124.46Y-120.65
X125.73Y-81.28
X125.73Y-99.06
X127.0Y-78.74
X127.0Y-101.6
X127.0Y-119.38
X128.27Y-104.14
X129.54Y-118.11
X133.35Y-53.34
X133.35Y-85.09
X133.35Y-115.57
X134.62Y-113.03
X137.16Y-110.49
X138.43Y-80.01
X139.7Y-80.01
X140.97Y-80.01
X140.97Y-86.995
X144.78Y-123.19
X146.05Y-81.28
X146.05Y-109.22
X146.05Y-121.92
X147.32Y-86.36
X147.32Y-91.44
X147.32Y-111.76
X147.32Y-114.3
X147.32Y-120.65
X148.59Y-76.2
X148.59Y-82.55
X148.59Y-87.63
X148.59Y-96.52
X148.59Y-116.84
X148.59Y-119.38
X153.67Y-99.06
X154.305Y-85.725
X154.94Y-95.25
X156.21Y-80.645
X156.21Y-85.09
X161.29Y-59.69
X163.195Y-78.74
X165.1Y-130.81
X168.91Y-88.9
X168.91Y-120.65
X170.18Y-130.81
X172.72Y-127.0
X173.482Y-77.724
X173.99Y-102.87
X173.99Y-105.41
X176.53Y-119.38
X177.8Y-86.36
X179.07Y-102.87
X184.15Y-111.76
X184.15Y-113.03
X184.15Y-114.3
X187.96Y-111.76
X187.96Y-113.03
X187.96Y-114.3
T2
X111.76Y-63.5
X111.76Y-66.04
X111.76Y-68.58
X111.76Y-71.12
X111.76Y-73.66
X111.76Y-107.95
X111.76Y-110.49
X111.76Y-113.03
X111.76Y-115.57
X111.76Y-118.11
X113.03Y-125.73
X113.03Y-128.23
X115.57Y-61.595
X115.57Y-64.77
X115.57Y-68.58
X115.57Y-71.12
X115.57Y-73.66
X115.57Y-76.2
X115.57Y-78.74
X115.57Y-81.28
X115.57Y-83.82
X115.57Y-86.36
X115.57Y-88.9
X115.57Y-91.44
X115.57Y-93.98
X115.57Y-96.52
X115.57Y-99.06
X115.57Y-101.6
X115.57Y-104.14
X115.57Y-106.68
X115.57Y-109.22
X115.57Y-111.76
X115.57Y-114.3
X115.57Y-116.84
X116.84Y-125.73
X116.84Y-133.35
X119.38Y-125.73
X119.38Y-133.35
X121.92Y-125.73
X121.92Y-133.35
X123.19Y-61.595
X123.19Y-64.77
X124.46Y-125.73
X124.46Y-133.35
X125.73Y-46.99
X125.73Y-57.15
X127.0Y-125.73
X127.0Y-133.35
X128.905Y-61.635
X128.905Y-64.135
X129.54Y-48.26
X129.54Y-50.76
X129.54Y-125.73
X129.54Y-133.35
X130.81Y-68.58
X130.81Y-71.12
X130.81Y-73.66
X130.81Y-76.2
X130.81Y-78.74
X130.81Y-81.28
X130.81Y-83.82
X130.81Y-86.36
X130.81Y-88.9
X130.81Y-91.44
X130.81Y-93.98
X130.81Y-96.52
X130.81Y-99.06
X130.81Y-101.6
X130.81Y-104.14
X130.81Y-106.68
X130.81Y-109.22
X130.81Y-111.76
X130.81Y-114.3
X130.81Y-116.84
X132.08Y-125.73
X132.08Y-133.35
X133.35Y-48.26
X133.35Y-55.88
X133.985Y-62.905
X133.985Y-65.405
X134.62Y-68.58
X134.62Y-71.12
X134.62Y-73.66
X134.62Y-76.2
X134.62Y-78.74
X134.62Y-125.73
X134.62Y-133.35
X135.89Y-48.26
X135.89Y-55.88
X135.89Y-86.36
X135.89Y-88.9
X135.89Y-91.44
X135.89Y-93.98
X135.89Y-96.52
X135.89Y-99.06
X135.89Y-101.6
X135.89Y-104.14
X135.89Y-106.68
X135.89Y-109.22
X137.16Y-125.73
X137.16Y-133.35
X138.43Y-48.26
X138.43Y-55.88
X139.7Y-59.69
X139.7Y-125.73
X139.7Y-133.35
X140.97Y-48.26
X140.97Y-55.88
X140.97Y-69.85
X140.97Y-82.55
X142.24Y-64.77
X143.47Y-69.85
X143.47Y-82.55
X143.51Y-48.26
X143.51Y-55.88
X143.51Y-86.36
X143.51Y-88.9
X143.51Y-91.44
X143.51Y-93.98
X143.51Y-96.52
X143.51Y-99.06
X143.51Y-101.6
X143.51Y-104.14
X143.51Y-106.68
X143.51Y-109.22
X143.51Y-125.73
X143.51Y-133.35
X143.51Y-135.89
X143.51Y-138.39
X146.05Y-48.26
X146.05Y-55.88
X146.09Y-69.85
X147.12Y-64.77
X147.32Y-125.73
X147.32Y-133.35
X147.32Y-137.16
X148.59Y-48.26
X148.59Y-55.88
X148.59Y-69.85
X149.86Y-59.69
X151.13Y-80.01
X151.13Y-82.55
X151.13Y-85.09
X151.13Y-87.63
X151.13Y-90.17
X151.13Y-92.71
X151.13Y-95.25
X151.13Y-97.79
X151.13Y-100.33
X151.13Y-102.87
X151.13Y-105.41
X151.13Y-107.95
X151.13Y-110.49
X151.13Y-113.03
X151.13Y-115.57
X151.13Y-118.11
X151.13Y-125.73
X151.13Y-133.35
X153.67Y-55.88
X153.67Y-66.04
X154.94Y-125.77
X154.94Y-128.27
X156.21Y-76.2
X157.48Y-137.16
X158.71Y-76.2
X158.75Y-48.26
X158.75Y-50.76
X158.75Y-80.01
X158.75Y-82.55
X158.75Y-85.09
X158.75Y-87.63
X158.75Y-90.17
X158.75Y-92.71
X158.75Y-95.25
X158.75Y-97.79
X158.75Y-100.33
X158.75Y-102.87
X158.75Y-105.41
X158.75Y-107.95
X158.75Y-110.49
X158.75Y-113.03
X158.75Y-115.57
X158.75Y-118.11
X158.75Y-125.73
X158.75Y-133.35
X161.29Y-125.73
X161.29Y-133.35
X162.56Y-48.26
X162.56Y-55.88
X162.56Y-69.85
X163.576Y-73.66
X163.576Y-81.28
X163.83Y-66.04
X163.83Y-125.73
X163.83Y-133.35
X165.1Y-48.26
X165.1Y-55.88
X166.37Y-85.09
X166.37Y-87.63
X166.37Y-90.17
X166.37Y-92.71
X166.37Y-95.25
X166.37Y-97.79
X166.37Y-100.33
X166.37Y-102.87
X166.37Y-105.41
X166.37Y-107.95
X166.37Y-110.49
X166.37Y-113.03
X166.37Y-115.57
X166.37Y-118.11
X166.37Y-125.73
X166.37Y-133.35
X166.751Y-73.66
X166.751Y-81.28
X167.64Y-48.26
X167.64Y-55.88
X168.91Y-125.73
X168.91Y-133.35
X169.926Y-73.66
X169.926Y-81.28
X170.18Y-48.26
X170.18Y-55.88
X171.45Y-66.04
X171.45Y-125.73
X171.45Y-133.35
X172.72Y-48.26
X172.72Y-55.88
X172.72Y-69.85
X173.99Y-125.73
X173.99Y-133.35
X175.26Y-48.26
X175.26Y-55.88
X176.53Y-63.5
X176.53Y-67.31
X176.53Y-74.93
X177.8Y-48.26
X177.8Y-55.88
X177.8Y-59.69
X177.8Y-125.73
X177.8Y-133.35
X179.03Y-63.5
X179.07Y-67.31
X179.07Y-74.93
X179.07Y-81.28
X180.34Y-48.26
X180.34Y-55.88
X181.57Y-81.28
X181.61Y-67.31
X181.61Y-74.93
X181.61Y-85.09
X181.61Y-87.63
X181.61Y-90.17
X181.61Y-92.71
X181.61Y-95.25
X181.61Y-97.79
X181.61Y-100.33
X181.61Y-102.87
X181.61Y-105.41
X181.61Y-107.95
X181.61Y-110.49
X181.61Y-113.03
X181.61Y-115.57
X181.61Y-118.11
X181.61Y-121.92
X181.61Y-132.08
X184.15Y-67.31
X184.15Y-74.93
X184.59Y-108.205
X185.42Y-118.11
X185.42Y-128.27
X185.86Y-105.02
X186.055Y-99.06
X186.69Y-67.31
X186.69Y-74.93
X187.325Y-82.59
X187.325Y-85.09
X187.96Y-59.69
X188.595Y-99.06
X188.595Y-102.235
X189.23Y-67.31
X189.23Y-74.93
X189.23Y-89.535
X189.23Y-94.535
X189.23Y-118.11
X189.23Y-128.27
X191.095Y-102.235
X191.135Y-99.06
X191.77Y-67.31
X191.77Y-74.93
X193.04Y-118.11
X193.04Y-128.27
X193.48Y-105.02
X194.75Y-108.205
T3
X102.87Y-68.58
X102.87Y-71.12
X102.87Y-73.66
X102.87Y-76.2
X102.87Y-78.74
X102.87Y-81.28
X102.87Y-83.82
X102.87Y-86.36
X102.87Y-88.9
X102.87Y-91.44
X102.87Y-93.98
X102.87Y-96.52
X102.87Y-99.06
X102.87Y-101.6
X102.87Y-104.14
X102.87Y-106.68
X102.87Y-109.22
X102.87Y-111.76
X102.87Y-114.3
X102.87Y-116.84
X105.41Y-68.58
X105.41Y-71.12
X105.41Y-73.66
X105.41Y-76.2
X105.41Y-78.74
X105.41Y-81.28
X105.41Y-83.82
X105.41Y-86.36
X105.41Y-88.9
X105.41Y-91.44
X105.41Y-93.98
X105.41Y-96.52
X105.41Y-99.06
X105.41Y-101.6
X105.41Y-104.14
X105.41Y-106.68
X105.41Y-109.22
X105.41Y-111.76
X105.41Y-114.3
X105.41Y-116.84
X111.76Y-55.88
X114.3Y-55.88
X116.84Y-55.88
X119.38Y-55.88
X119.38Y-139.7
X121.92Y-55.88
X121.92Y-139.7
X124.46Y-139.7
X127.0Y-139.7
X129.54Y-139.7
X132.08Y-139.7
X134.62Y-139.7
X137.16Y-139.7
X139.7Y-139.7
X161.29Y-139.7
X163.83Y-139.7
X166.37Y-139.7
X168.91Y-139.7
X171.45Y-139.7
X173.99Y-139.7
X176.53Y-139.7
X194.31Y-59.69
X194.31Y-62.23
X194.31Y-89.535
X194.31Y-92.075
X194.31Y-94.615
X194.31Y-97.155
T0
M30
