%TF.GenerationSoftware,KiCad,Pcbnew,(7.0.0)*%
%TF.CreationDate,2023-04-25T22:12:04+02:00*%
%TF.ProjectId,cdp-mobo,6364702d-6d6f-4626-9f2e-6b696361645f,1*%
%TF.SameCoordinates,Original*%
%TF.FileFunction,Drillmap*%
%TF.FilePolarity,Positive*%
%FSLAX45Y45*%
G04 Gerber Fmt 4.5, Leading zero omitted, Abs format (unit mm)*
G04 Created by KiCad (PCBNEW (7.0.0)) date 2023-04-25 22:12:04*
%MOMM*%
%LPD*%
G01*
G04 APERTURE LIST*
%ADD10C,0.150000*%
%ADD11C,0.200000*%
%ADD12C,0.040000*%
%ADD13C,0.080000*%
%ADD14C,0.100000*%
G04 APERTURE END LIST*
D10*
X9779000Y-4318000D02*
X19685000Y-4318000D01*
X19685000Y-4318000D02*
X19685000Y-14224000D01*
X19685000Y-14224000D02*
X9779000Y-14224000D01*
X9779000Y-14224000D02*
X9779000Y-4318000D01*
D11*
D12*
X11918000Y-8616000D02*
X11958000Y-8656000D01*
X11958000Y-8616000D02*
X11918000Y-8656000D01*
X12045000Y-8870000D02*
X12085000Y-8910000D01*
X12085000Y-8870000D02*
X12045000Y-8910000D01*
X12172000Y-9124000D02*
X12212000Y-9164000D01*
X12212000Y-9124000D02*
X12172000Y-9164000D01*
X12172000Y-12172000D02*
X12212000Y-12212000D01*
X12212000Y-12172000D02*
X12172000Y-12212000D01*
X12299000Y-9378000D02*
X12339000Y-9418000D01*
X12339000Y-9378000D02*
X12299000Y-9418000D01*
X12426000Y-9632000D02*
X12466000Y-9672000D01*
X12466000Y-9632000D02*
X12426000Y-9672000D01*
X12426000Y-12045000D02*
X12466000Y-12085000D01*
X12466000Y-12045000D02*
X12426000Y-12085000D01*
X12553000Y-8108000D02*
X12593000Y-8148000D01*
X12593000Y-8108000D02*
X12553000Y-8148000D01*
X12553000Y-9886000D02*
X12593000Y-9926000D01*
X12593000Y-9886000D02*
X12553000Y-9926000D01*
X12680000Y-7854000D02*
X12720000Y-7894000D01*
X12720000Y-7854000D02*
X12680000Y-7894000D01*
X12680000Y-10140000D02*
X12720000Y-10180000D01*
X12720000Y-10140000D02*
X12680000Y-10180000D01*
X12680000Y-11918000D02*
X12720000Y-11958000D01*
X12720000Y-11918000D02*
X12680000Y-11958000D01*
X12807000Y-10394000D02*
X12847000Y-10434000D01*
X12847000Y-10394000D02*
X12807000Y-10434000D01*
X12934000Y-11791000D02*
X12974000Y-11831000D01*
X12974000Y-11791000D02*
X12934000Y-11831000D01*
X13315000Y-5314000D02*
X13355000Y-5354000D01*
X13355000Y-5314000D02*
X13315000Y-5354000D01*
X13315000Y-8489000D02*
X13355000Y-8529000D01*
X13355000Y-8489000D02*
X13315000Y-8529000D01*
X13315000Y-11537000D02*
X13355000Y-11577000D01*
X13355000Y-11537000D02*
X13315000Y-11577000D01*
X13442000Y-11283000D02*
X13482000Y-11323000D01*
X13482000Y-11283000D02*
X13442000Y-11323000D01*
X13696000Y-11029000D02*
X13736000Y-11069000D01*
X13736000Y-11029000D02*
X13696000Y-11069000D01*
X13823000Y-7981000D02*
X13863000Y-8021000D01*
X13863000Y-7981000D02*
X13823000Y-8021000D01*
X13950000Y-7981000D02*
X13990000Y-8021000D01*
X13990000Y-7981000D02*
X13950000Y-8021000D01*
X14077000Y-7981000D02*
X14117000Y-8021000D01*
X14117000Y-7981000D02*
X14077000Y-8021000D01*
X14077000Y-8679500D02*
X14117000Y-8719500D01*
X14117000Y-8679500D02*
X14077000Y-8719500D01*
X14458000Y-12299000D02*
X14498000Y-12339000D01*
X14498000Y-12299000D02*
X14458000Y-12339000D01*
X14585000Y-8108000D02*
X14625000Y-8148000D01*
X14625000Y-8108000D02*
X14585000Y-8148000D01*
X14585000Y-10902000D02*
X14625000Y-10942000D01*
X14625000Y-10902000D02*
X14585000Y-10942000D01*
X14585000Y-12172000D02*
X14625000Y-12212000D01*
X14625000Y-12172000D02*
X14585000Y-12212000D01*
X14712000Y-8616000D02*
X14752000Y-8656000D01*
X14752000Y-8616000D02*
X14712000Y-8656000D01*
X14712000Y-9124000D02*
X14752000Y-9164000D01*
X14752000Y-9124000D02*
X14712000Y-9164000D01*
X14712000Y-11156000D02*
X14752000Y-11196000D01*
X14752000Y-11156000D02*
X14712000Y-11196000D01*
X14712000Y-11410000D02*
X14752000Y-11450000D01*
X14752000Y-11410000D02*
X14712000Y-11450000D01*
X14712000Y-12045000D02*
X14752000Y-12085000D01*
X14752000Y-12045000D02*
X14712000Y-12085000D01*
X14839000Y-7600000D02*
X14879000Y-7640000D01*
X14879000Y-7600000D02*
X14839000Y-7640000D01*
X14839000Y-8235000D02*
X14879000Y-8275000D01*
X14879000Y-8235000D02*
X14839000Y-8275000D01*
X14839000Y-8743000D02*
X14879000Y-8783000D01*
X14879000Y-8743000D02*
X14839000Y-8783000D01*
X14839000Y-9632000D02*
X14879000Y-9672000D01*
X14879000Y-9632000D02*
X14839000Y-9672000D01*
X14839000Y-11664000D02*
X14879000Y-11704000D01*
X14879000Y-11664000D02*
X14839000Y-11704000D01*
X14839000Y-11918000D02*
X14879000Y-11958000D01*
X14879000Y-11918000D02*
X14839000Y-11958000D01*
X15347000Y-9886000D02*
X15387000Y-9926000D01*
X15387000Y-9886000D02*
X15347000Y-9926000D01*
X15410500Y-8552500D02*
X15450500Y-8592500D01*
X15450500Y-8552500D02*
X15410500Y-8592500D01*
X15474000Y-9505000D02*
X15514000Y-9545000D01*
X15514000Y-9505000D02*
X15474000Y-9545000D01*
X15601000Y-8044500D02*
X15641000Y-8084500D01*
X15641000Y-8044500D02*
X15601000Y-8084500D01*
X15601000Y-8489000D02*
X15641000Y-8529000D01*
X15641000Y-8489000D02*
X15601000Y-8529000D01*
X16109000Y-5949000D02*
X16149000Y-5989000D01*
X16149000Y-5949000D02*
X16109000Y-5989000D01*
X16299500Y-7854000D02*
X16339500Y-7894000D01*
X16339500Y-7854000D02*
X16299500Y-7894000D01*
X16490000Y-13061000D02*
X16530000Y-13101000D01*
X16530000Y-13061000D02*
X16490000Y-13101000D01*
X16871000Y-8870000D02*
X16911000Y-8910000D01*
X16911000Y-8870000D02*
X16871000Y-8910000D01*
X16871000Y-12045000D02*
X16911000Y-12085000D01*
X16911000Y-12045000D02*
X16871000Y-12085000D01*
X16998000Y-13061000D02*
X17038000Y-13101000D01*
X17038000Y-13061000D02*
X16998000Y-13101000D01*
X17252000Y-12680000D02*
X17292000Y-12720000D01*
X17292000Y-12680000D02*
X17252000Y-12720000D01*
X17328200Y-7752400D02*
X17368200Y-7792400D01*
X17368200Y-7752400D02*
X17328200Y-7792400D01*
X17379000Y-10267000D02*
X17419000Y-10307000D01*
X17419000Y-10267000D02*
X17379000Y-10307000D01*
X17379000Y-10521000D02*
X17419000Y-10561000D01*
X17419000Y-10521000D02*
X17379000Y-10561000D01*
X17633000Y-11918000D02*
X17673000Y-11958000D01*
X17673000Y-11918000D02*
X17633000Y-11958000D01*
X17760000Y-8616000D02*
X17800000Y-8656000D01*
X17800000Y-8616000D02*
X17760000Y-8656000D01*
X17887000Y-10267000D02*
X17927000Y-10307000D01*
X17927000Y-10267000D02*
X17887000Y-10307000D01*
X18395000Y-11156000D02*
X18435000Y-11196000D01*
X18435000Y-11156000D02*
X18395000Y-11196000D01*
X18395000Y-11283000D02*
X18435000Y-11323000D01*
X18435000Y-11283000D02*
X18395000Y-11323000D01*
X18395000Y-11410000D02*
X18435000Y-11450000D01*
X18435000Y-11410000D02*
X18395000Y-11450000D01*
X18776000Y-11156000D02*
X18816000Y-11196000D01*
X18816000Y-11156000D02*
X18776000Y-11196000D01*
X18776000Y-11283000D02*
X18816000Y-11323000D01*
X18816000Y-11283000D02*
X18776000Y-11323000D01*
X18776000Y-11410000D02*
X18816000Y-11450000D01*
X18816000Y-11410000D02*
X18776000Y-11450000D01*
D13*
X11216000Y-6350000D02*
G75*
G03*
X11216000Y-6350000I-40000J0D01*
G01*
X11216000Y-6604000D02*
G75*
G03*
X11216000Y-6604000I-40000J0D01*
G01*
X11216000Y-6858000D02*
G75*
G03*
X11216000Y-6858000I-40000J0D01*
G01*
X11216000Y-7112000D02*
G75*
G03*
X11216000Y-7112000I-40000J0D01*
G01*
X11216000Y-7366000D02*
G75*
G03*
X11216000Y-7366000I-40000J0D01*
G01*
X11216000Y-10795000D02*
G75*
G03*
X11216000Y-10795000I-40000J0D01*
G01*
X11216000Y-11049000D02*
G75*
G03*
X11216000Y-11049000I-40000J0D01*
G01*
X11216000Y-11303000D02*
G75*
G03*
X11216000Y-11303000I-40000J0D01*
G01*
X11216000Y-11557000D02*
G75*
G03*
X11216000Y-11557000I-40000J0D01*
G01*
X11216000Y-11811000D02*
G75*
G03*
X11216000Y-11811000I-40000J0D01*
G01*
X11343000Y-12573000D02*
G75*
G03*
X11343000Y-12573000I-40000J0D01*
G01*
X11343000Y-12823000D02*
G75*
G03*
X11343000Y-12823000I-40000J0D01*
G01*
X11597000Y-6159500D02*
G75*
G03*
X11597000Y-6159500I-40000J0D01*
G01*
X11597000Y-6477000D02*
G75*
G03*
X11597000Y-6477000I-40000J0D01*
G01*
X11597000Y-6858000D02*
G75*
G03*
X11597000Y-6858000I-40000J0D01*
G01*
X11597000Y-7112000D02*
G75*
G03*
X11597000Y-7112000I-40000J0D01*
G01*
X11597000Y-7366000D02*
G75*
G03*
X11597000Y-7366000I-40000J0D01*
G01*
X11597000Y-7620000D02*
G75*
G03*
X11597000Y-7620000I-40000J0D01*
G01*
X11597000Y-7874000D02*
G75*
G03*
X11597000Y-7874000I-40000J0D01*
G01*
X11597000Y-8128000D02*
G75*
G03*
X11597000Y-8128000I-40000J0D01*
G01*
X11597000Y-8382000D02*
G75*
G03*
X11597000Y-8382000I-40000J0D01*
G01*
X11597000Y-8636000D02*
G75*
G03*
X11597000Y-8636000I-40000J0D01*
G01*
X11597000Y-8890000D02*
G75*
G03*
X11597000Y-8890000I-40000J0D01*
G01*
X11597000Y-9144000D02*
G75*
G03*
X11597000Y-9144000I-40000J0D01*
G01*
X11597000Y-9398000D02*
G75*
G03*
X11597000Y-9398000I-40000J0D01*
G01*
X11597000Y-9652000D02*
G75*
G03*
X11597000Y-9652000I-40000J0D01*
G01*
X11597000Y-9906000D02*
G75*
G03*
X11597000Y-9906000I-40000J0D01*
G01*
X11597000Y-10160000D02*
G75*
G03*
X11597000Y-10160000I-40000J0D01*
G01*
X11597000Y-10414000D02*
G75*
G03*
X11597000Y-10414000I-40000J0D01*
G01*
X11597000Y-10668000D02*
G75*
G03*
X11597000Y-10668000I-40000J0D01*
G01*
X11597000Y-10922000D02*
G75*
G03*
X11597000Y-10922000I-40000J0D01*
G01*
X11597000Y-11176000D02*
G75*
G03*
X11597000Y-11176000I-40000J0D01*
G01*
X11597000Y-11430000D02*
G75*
G03*
X11597000Y-11430000I-40000J0D01*
G01*
X11597000Y-11684000D02*
G75*
G03*
X11597000Y-11684000I-40000J0D01*
G01*
X11724000Y-12573000D02*
G75*
G03*
X11724000Y-12573000I-40000J0D01*
G01*
X11724000Y-13335000D02*
G75*
G03*
X11724000Y-13335000I-40000J0D01*
G01*
X11978000Y-12573000D02*
G75*
G03*
X11978000Y-12573000I-40000J0D01*
G01*
X11978000Y-13335000D02*
G75*
G03*
X11978000Y-13335000I-40000J0D01*
G01*
X12232000Y-12573000D02*
G75*
G03*
X12232000Y-12573000I-40000J0D01*
G01*
X12232000Y-13335000D02*
G75*
G03*
X12232000Y-13335000I-40000J0D01*
G01*
X12359000Y-6159500D02*
G75*
G03*
X12359000Y-6159500I-40000J0D01*
G01*
X12359000Y-6477000D02*
G75*
G03*
X12359000Y-6477000I-40000J0D01*
G01*
X12486000Y-12573000D02*
G75*
G03*
X12486000Y-12573000I-40000J0D01*
G01*
X12486000Y-13335000D02*
G75*
G03*
X12486000Y-13335000I-40000J0D01*
G01*
X12613000Y-4699000D02*
G75*
G03*
X12613000Y-4699000I-40000J0D01*
G01*
X12613000Y-5715000D02*
G75*
G03*
X12613000Y-5715000I-40000J0D01*
G01*
X12740000Y-12573000D02*
G75*
G03*
X12740000Y-12573000I-40000J0D01*
G01*
X12740000Y-13335000D02*
G75*
G03*
X12740000Y-13335000I-40000J0D01*
G01*
X12930500Y-6163500D02*
G75*
G03*
X12930500Y-6163500I-40000J0D01*
G01*
X12930500Y-6413500D02*
G75*
G03*
X12930500Y-6413500I-40000J0D01*
G01*
X12994000Y-4826000D02*
G75*
G03*
X12994000Y-4826000I-40000J0D01*
G01*
X12994000Y-5076000D02*
G75*
G03*
X12994000Y-5076000I-40000J0D01*
G01*
X12994000Y-12573000D02*
G75*
G03*
X12994000Y-12573000I-40000J0D01*
G01*
X12994000Y-13335000D02*
G75*
G03*
X12994000Y-13335000I-40000J0D01*
G01*
X13121000Y-6858000D02*
G75*
G03*
X13121000Y-6858000I-40000J0D01*
G01*
X13121000Y-7112000D02*
G75*
G03*
X13121000Y-7112000I-40000J0D01*
G01*
X13121000Y-7366000D02*
G75*
G03*
X13121000Y-7366000I-40000J0D01*
G01*
X13121000Y-7620000D02*
G75*
G03*
X13121000Y-7620000I-40000J0D01*
G01*
X13121000Y-7874000D02*
G75*
G03*
X13121000Y-7874000I-40000J0D01*
G01*
X13121000Y-8128000D02*
G75*
G03*
X13121000Y-8128000I-40000J0D01*
G01*
X13121000Y-8382000D02*
G75*
G03*
X13121000Y-8382000I-40000J0D01*
G01*
X13121000Y-8636000D02*
G75*
G03*
X13121000Y-8636000I-40000J0D01*
G01*
X13121000Y-8890000D02*
G75*
G03*
X13121000Y-8890000I-40000J0D01*
G01*
X13121000Y-9144000D02*
G75*
G03*
X13121000Y-9144000I-40000J0D01*
G01*
X13121000Y-9398000D02*
G75*
G03*
X13121000Y-9398000I-40000J0D01*
G01*
X13121000Y-9652000D02*
G75*
G03*
X13121000Y-9652000I-40000J0D01*
G01*
X13121000Y-9906000D02*
G75*
G03*
X13121000Y-9906000I-40000J0D01*
G01*
X13121000Y-10160000D02*
G75*
G03*
X13121000Y-10160000I-40000J0D01*
G01*
X13121000Y-10414000D02*
G75*
G03*
X13121000Y-10414000I-40000J0D01*
G01*
X13121000Y-10668000D02*
G75*
G03*
X13121000Y-10668000I-40000J0D01*
G01*
X13121000Y-10922000D02*
G75*
G03*
X13121000Y-10922000I-40000J0D01*
G01*
X13121000Y-11176000D02*
G75*
G03*
X13121000Y-11176000I-40000J0D01*
G01*
X13121000Y-11430000D02*
G75*
G03*
X13121000Y-11430000I-40000J0D01*
G01*
X13121000Y-11684000D02*
G75*
G03*
X13121000Y-11684000I-40000J0D01*
G01*
X13248000Y-12573000D02*
G75*
G03*
X13248000Y-12573000I-40000J0D01*
G01*
X13248000Y-13335000D02*
G75*
G03*
X13248000Y-13335000I-40000J0D01*
G01*
X13375000Y-4826000D02*
G75*
G03*
X13375000Y-4826000I-40000J0D01*
G01*
X13375000Y-5588000D02*
G75*
G03*
X13375000Y-5588000I-40000J0D01*
G01*
X13438500Y-6290500D02*
G75*
G03*
X13438500Y-6290500I-40000J0D01*
G01*
X13438500Y-6540500D02*
G75*
G03*
X13438500Y-6540500I-40000J0D01*
G01*
X13502000Y-6858000D02*
G75*
G03*
X13502000Y-6858000I-40000J0D01*
G01*
X13502000Y-7112000D02*
G75*
G03*
X13502000Y-7112000I-40000J0D01*
G01*
X13502000Y-7366000D02*
G75*
G03*
X13502000Y-7366000I-40000J0D01*
G01*
X13502000Y-7620000D02*
G75*
G03*
X13502000Y-7620000I-40000J0D01*
G01*
X13502000Y-7874000D02*
G75*
G03*
X13502000Y-7874000I-40000J0D01*
G01*
X13502000Y-12573000D02*
G75*
G03*
X13502000Y-12573000I-40000J0D01*
G01*
X13502000Y-13335000D02*
G75*
G03*
X13502000Y-13335000I-40000J0D01*
G01*
X13629000Y-4826000D02*
G75*
G03*
X13629000Y-4826000I-40000J0D01*
G01*
X13629000Y-5588000D02*
G75*
G03*
X13629000Y-5588000I-40000J0D01*
G01*
X13629000Y-8636000D02*
G75*
G03*
X13629000Y-8636000I-40000J0D01*
G01*
X13629000Y-8890000D02*
G75*
G03*
X13629000Y-8890000I-40000J0D01*
G01*
X13629000Y-9144000D02*
G75*
G03*
X13629000Y-9144000I-40000J0D01*
G01*
X13629000Y-9398000D02*
G75*
G03*
X13629000Y-9398000I-40000J0D01*
G01*
X13629000Y-9652000D02*
G75*
G03*
X13629000Y-9652000I-40000J0D01*
G01*
X13629000Y-9906000D02*
G75*
G03*
X13629000Y-9906000I-40000J0D01*
G01*
X13629000Y-10160000D02*
G75*
G03*
X13629000Y-10160000I-40000J0D01*
G01*
X13629000Y-10414000D02*
G75*
G03*
X13629000Y-10414000I-40000J0D01*
G01*
X13629000Y-10668000D02*
G75*
G03*
X13629000Y-10668000I-40000J0D01*
G01*
X13629000Y-10922000D02*
G75*
G03*
X13629000Y-10922000I-40000J0D01*
G01*
X13756000Y-12573000D02*
G75*
G03*
X13756000Y-12573000I-40000J0D01*
G01*
X13756000Y-13335000D02*
G75*
G03*
X13756000Y-13335000I-40000J0D01*
G01*
X13883000Y-4826000D02*
G75*
G03*
X13883000Y-4826000I-40000J0D01*
G01*
X13883000Y-5588000D02*
G75*
G03*
X13883000Y-5588000I-40000J0D01*
G01*
X14010000Y-5969000D02*
G75*
G03*
X14010000Y-5969000I-40000J0D01*
G01*
X14010000Y-12573000D02*
G75*
G03*
X14010000Y-12573000I-40000J0D01*
G01*
X14010000Y-13335000D02*
G75*
G03*
X14010000Y-13335000I-40000J0D01*
G01*
X14137000Y-4826000D02*
G75*
G03*
X14137000Y-4826000I-40000J0D01*
G01*
X14137000Y-5588000D02*
G75*
G03*
X14137000Y-5588000I-40000J0D01*
G01*
X14137000Y-6985000D02*
G75*
G03*
X14137000Y-6985000I-40000J0D01*
G01*
X14137000Y-8255000D02*
G75*
G03*
X14137000Y-8255000I-40000J0D01*
G01*
X14264000Y-6477000D02*
G75*
G03*
X14264000Y-6477000I-40000J0D01*
G01*
X14387000Y-6985000D02*
G75*
G03*
X14387000Y-6985000I-40000J0D01*
G01*
X14387000Y-8255000D02*
G75*
G03*
X14387000Y-8255000I-40000J0D01*
G01*
X14391000Y-4826000D02*
G75*
G03*
X14391000Y-4826000I-40000J0D01*
G01*
X14391000Y-5588000D02*
G75*
G03*
X14391000Y-5588000I-40000J0D01*
G01*
X14391000Y-8636000D02*
G75*
G03*
X14391000Y-8636000I-40000J0D01*
G01*
X14391000Y-8890000D02*
G75*
G03*
X14391000Y-8890000I-40000J0D01*
G01*
X14391000Y-9144000D02*
G75*
G03*
X14391000Y-9144000I-40000J0D01*
G01*
X14391000Y-9398000D02*
G75*
G03*
X14391000Y-9398000I-40000J0D01*
G01*
X14391000Y-9652000D02*
G75*
G03*
X14391000Y-9652000I-40000J0D01*
G01*
X14391000Y-9906000D02*
G75*
G03*
X14391000Y-9906000I-40000J0D01*
G01*
X14391000Y-10160000D02*
G75*
G03*
X14391000Y-10160000I-40000J0D01*
G01*
X14391000Y-10414000D02*
G75*
G03*
X14391000Y-10414000I-40000J0D01*
G01*
X14391000Y-10668000D02*
G75*
G03*
X14391000Y-10668000I-40000J0D01*
G01*
X14391000Y-10922000D02*
G75*
G03*
X14391000Y-10922000I-40000J0D01*
G01*
X14391000Y-12573000D02*
G75*
G03*
X14391000Y-12573000I-40000J0D01*
G01*
X14391000Y-13335000D02*
G75*
G03*
X14391000Y-13335000I-40000J0D01*
G01*
X14391000Y-13589000D02*
G75*
G03*
X14391000Y-13589000I-40000J0D01*
G01*
X14391000Y-13839000D02*
G75*
G03*
X14391000Y-13839000I-40000J0D01*
G01*
X14645000Y-4826000D02*
G75*
G03*
X14645000Y-4826000I-40000J0D01*
G01*
X14645000Y-5588000D02*
G75*
G03*
X14645000Y-5588000I-40000J0D01*
G01*
X14649000Y-6985000D02*
G75*
G03*
X14649000Y-6985000I-40000J0D01*
G01*
X14752000Y-6477000D02*
G75*
G03*
X14752000Y-6477000I-40000J0D01*
G01*
X14772000Y-12573000D02*
G75*
G03*
X14772000Y-12573000I-40000J0D01*
G01*
X14772000Y-13335000D02*
G75*
G03*
X14772000Y-13335000I-40000J0D01*
G01*
X14772000Y-13716000D02*
G75*
G03*
X14772000Y-13716000I-40000J0D01*
G01*
X14899000Y-4826000D02*
G75*
G03*
X14899000Y-4826000I-40000J0D01*
G01*
X14899000Y-5588000D02*
G75*
G03*
X14899000Y-5588000I-40000J0D01*
G01*
X14899000Y-6985000D02*
G75*
G03*
X14899000Y-6985000I-40000J0D01*
G01*
X15026000Y-5969000D02*
G75*
G03*
X15026000Y-5969000I-40000J0D01*
G01*
X15153000Y-8001000D02*
G75*
G03*
X15153000Y-8001000I-40000J0D01*
G01*
X15153000Y-8255000D02*
G75*
G03*
X15153000Y-8255000I-40000J0D01*
G01*
X15153000Y-8509000D02*
G75*
G03*
X15153000Y-8509000I-40000J0D01*
G01*
X15153000Y-8763000D02*
G75*
G03*
X15153000Y-8763000I-40000J0D01*
G01*
X15153000Y-9017000D02*
G75*
G03*
X15153000Y-9017000I-40000J0D01*
G01*
X15153000Y-9271000D02*
G75*
G03*
X15153000Y-9271000I-40000J0D01*
G01*
X15153000Y-9525000D02*
G75*
G03*
X15153000Y-9525000I-40000J0D01*
G01*
X15153000Y-9779000D02*
G75*
G03*
X15153000Y-9779000I-40000J0D01*
G01*
X15153000Y-10033000D02*
G75*
G03*
X15153000Y-10033000I-40000J0D01*
G01*
X15153000Y-10287000D02*
G75*
G03*
X15153000Y-10287000I-40000J0D01*
G01*
X15153000Y-10541000D02*
G75*
G03*
X15153000Y-10541000I-40000J0D01*
G01*
X15153000Y-10795000D02*
G75*
G03*
X15153000Y-10795000I-40000J0D01*
G01*
X15153000Y-11049000D02*
G75*
G03*
X15153000Y-11049000I-40000J0D01*
G01*
X15153000Y-11303000D02*
G75*
G03*
X15153000Y-11303000I-40000J0D01*
G01*
X15153000Y-11557000D02*
G75*
G03*
X15153000Y-11557000I-40000J0D01*
G01*
X15153000Y-11811000D02*
G75*
G03*
X15153000Y-11811000I-40000J0D01*
G01*
X15153000Y-12573000D02*
G75*
G03*
X15153000Y-12573000I-40000J0D01*
G01*
X15153000Y-13335000D02*
G75*
G03*
X15153000Y-13335000I-40000J0D01*
G01*
X15407000Y-5588000D02*
G75*
G03*
X15407000Y-5588000I-40000J0D01*
G01*
X15407000Y-6604000D02*
G75*
G03*
X15407000Y-6604000I-40000J0D01*
G01*
X15534000Y-12577000D02*
G75*
G03*
X15534000Y-12577000I-40000J0D01*
G01*
X15534000Y-12827000D02*
G75*
G03*
X15534000Y-12827000I-40000J0D01*
G01*
X15661000Y-7620000D02*
G75*
G03*
X15661000Y-7620000I-40000J0D01*
G01*
X15788000Y-13716000D02*
G75*
G03*
X15788000Y-13716000I-40000J0D01*
G01*
X15911000Y-7620000D02*
G75*
G03*
X15911000Y-7620000I-40000J0D01*
G01*
X15915000Y-4826000D02*
G75*
G03*
X15915000Y-4826000I-40000J0D01*
G01*
X15915000Y-5076000D02*
G75*
G03*
X15915000Y-5076000I-40000J0D01*
G01*
X15915000Y-8001000D02*
G75*
G03*
X15915000Y-8001000I-40000J0D01*
G01*
X15915000Y-8255000D02*
G75*
G03*
X15915000Y-8255000I-40000J0D01*
G01*
X15915000Y-8509000D02*
G75*
G03*
X15915000Y-8509000I-40000J0D01*
G01*
X15915000Y-8763000D02*
G75*
G03*
X15915000Y-8763000I-40000J0D01*
G01*
X15915000Y-9017000D02*
G75*
G03*
X15915000Y-9017000I-40000J0D01*
G01*
X15915000Y-9271000D02*
G75*
G03*
X15915000Y-9271000I-40000J0D01*
G01*
X15915000Y-9525000D02*
G75*
G03*
X15915000Y-9525000I-40000J0D01*
G01*
X15915000Y-9779000D02*
G75*
G03*
X15915000Y-9779000I-40000J0D01*
G01*
X15915000Y-10033000D02*
G75*
G03*
X15915000Y-10033000I-40000J0D01*
G01*
X15915000Y-10287000D02*
G75*
G03*
X15915000Y-10287000I-40000J0D01*
G01*
X15915000Y-10541000D02*
G75*
G03*
X15915000Y-10541000I-40000J0D01*
G01*
X15915000Y-10795000D02*
G75*
G03*
X15915000Y-10795000I-40000J0D01*
G01*
X15915000Y-11049000D02*
G75*
G03*
X15915000Y-11049000I-40000J0D01*
G01*
X15915000Y-11303000D02*
G75*
G03*
X15915000Y-11303000I-40000J0D01*
G01*
X15915000Y-11557000D02*
G75*
G03*
X15915000Y-11557000I-40000J0D01*
G01*
X15915000Y-11811000D02*
G75*
G03*
X15915000Y-11811000I-40000J0D01*
G01*
X15915000Y-12573000D02*
G75*
G03*
X15915000Y-12573000I-40000J0D01*
G01*
X15915000Y-13335000D02*
G75*
G03*
X15915000Y-13335000I-40000J0D01*
G01*
X16169000Y-12573000D02*
G75*
G03*
X16169000Y-12573000I-40000J0D01*
G01*
X16169000Y-13335000D02*
G75*
G03*
X16169000Y-13335000I-40000J0D01*
G01*
X16296000Y-4826000D02*
G75*
G03*
X16296000Y-4826000I-40000J0D01*
G01*
X16296000Y-5588000D02*
G75*
G03*
X16296000Y-5588000I-40000J0D01*
G01*
X16296000Y-6985000D02*
G75*
G03*
X16296000Y-6985000I-40000J0D01*
G01*
X16397600Y-7366000D02*
G75*
G03*
X16397600Y-7366000I-40000J0D01*
G01*
X16397600Y-8128000D02*
G75*
G03*
X16397600Y-8128000I-40000J0D01*
G01*
X16423000Y-6604000D02*
G75*
G03*
X16423000Y-6604000I-40000J0D01*
G01*
X16423000Y-12573000D02*
G75*
G03*
X16423000Y-12573000I-40000J0D01*
G01*
X16423000Y-13335000D02*
G75*
G03*
X16423000Y-13335000I-40000J0D01*
G01*
X16550000Y-4826000D02*
G75*
G03*
X16550000Y-4826000I-40000J0D01*
G01*
X16550000Y-5588000D02*
G75*
G03*
X16550000Y-5588000I-40000J0D01*
G01*
X16677000Y-8509000D02*
G75*
G03*
X16677000Y-8509000I-40000J0D01*
G01*
X16677000Y-8763000D02*
G75*
G03*
X16677000Y-8763000I-40000J0D01*
G01*
X16677000Y-9017000D02*
G75*
G03*
X16677000Y-9017000I-40000J0D01*
G01*
X16677000Y-9271000D02*
G75*
G03*
X16677000Y-9271000I-40000J0D01*
G01*
X16677000Y-9525000D02*
G75*
G03*
X16677000Y-9525000I-40000J0D01*
G01*
X16677000Y-9779000D02*
G75*
G03*
X16677000Y-9779000I-40000J0D01*
G01*
X16677000Y-10033000D02*
G75*
G03*
X16677000Y-10033000I-40000J0D01*
G01*
X16677000Y-10287000D02*
G75*
G03*
X16677000Y-10287000I-40000J0D01*
G01*
X16677000Y-10541000D02*
G75*
G03*
X16677000Y-10541000I-40000J0D01*
G01*
X16677000Y-10795000D02*
G75*
G03*
X16677000Y-10795000I-40000J0D01*
G01*
X16677000Y-11049000D02*
G75*
G03*
X16677000Y-11049000I-40000J0D01*
G01*
X16677000Y-11303000D02*
G75*
G03*
X16677000Y-11303000I-40000J0D01*
G01*
X16677000Y-11557000D02*
G75*
G03*
X16677000Y-11557000I-40000J0D01*
G01*
X16677000Y-11811000D02*
G75*
G03*
X16677000Y-11811000I-40000J0D01*
G01*
X16677000Y-12573000D02*
G75*
G03*
X16677000Y-12573000I-40000J0D01*
G01*
X16677000Y-13335000D02*
G75*
G03*
X16677000Y-13335000I-40000J0D01*
G01*
X16715100Y-7366000D02*
G75*
G03*
X16715100Y-7366000I-40000J0D01*
G01*
X16715100Y-8128000D02*
G75*
G03*
X16715100Y-8128000I-40000J0D01*
G01*
X16804000Y-4826000D02*
G75*
G03*
X16804000Y-4826000I-40000J0D01*
G01*
X16804000Y-5588000D02*
G75*
G03*
X16804000Y-5588000I-40000J0D01*
G01*
X16931000Y-12573000D02*
G75*
G03*
X16931000Y-12573000I-40000J0D01*
G01*
X16931000Y-13335000D02*
G75*
G03*
X16931000Y-13335000I-40000J0D01*
G01*
X17032600Y-7366000D02*
G75*
G03*
X17032600Y-7366000I-40000J0D01*
G01*
X17032600Y-8128000D02*
G75*
G03*
X17032600Y-8128000I-40000J0D01*
G01*
X17058000Y-4826000D02*
G75*
G03*
X17058000Y-4826000I-40000J0D01*
G01*
X17058000Y-5588000D02*
G75*
G03*
X17058000Y-5588000I-40000J0D01*
G01*
X17185000Y-6604000D02*
G75*
G03*
X17185000Y-6604000I-40000J0D01*
G01*
X17185000Y-12573000D02*
G75*
G03*
X17185000Y-12573000I-40000J0D01*
G01*
X17185000Y-13335000D02*
G75*
G03*
X17185000Y-13335000I-40000J0D01*
G01*
X17312000Y-4826000D02*
G75*
G03*
X17312000Y-4826000I-40000J0D01*
G01*
X17312000Y-5588000D02*
G75*
G03*
X17312000Y-5588000I-40000J0D01*
G01*
X17312000Y-6985000D02*
G75*
G03*
X17312000Y-6985000I-40000J0D01*
G01*
X17439000Y-12573000D02*
G75*
G03*
X17439000Y-12573000I-40000J0D01*
G01*
X17439000Y-13335000D02*
G75*
G03*
X17439000Y-13335000I-40000J0D01*
G01*
X17566000Y-4826000D02*
G75*
G03*
X17566000Y-4826000I-40000J0D01*
G01*
X17566000Y-5588000D02*
G75*
G03*
X17566000Y-5588000I-40000J0D01*
G01*
X17693000Y-6350000D02*
G75*
G03*
X17693000Y-6350000I-40000J0D01*
G01*
X17693000Y-6731000D02*
G75*
G03*
X17693000Y-6731000I-40000J0D01*
G01*
X17693000Y-7493000D02*
G75*
G03*
X17693000Y-7493000I-40000J0D01*
G01*
X17820000Y-4826000D02*
G75*
G03*
X17820000Y-4826000I-40000J0D01*
G01*
X17820000Y-5588000D02*
G75*
G03*
X17820000Y-5588000I-40000J0D01*
G01*
X17820000Y-5969000D02*
G75*
G03*
X17820000Y-5969000I-40000J0D01*
G01*
X17820000Y-12573000D02*
G75*
G03*
X17820000Y-12573000I-40000J0D01*
G01*
X17820000Y-13335000D02*
G75*
G03*
X17820000Y-13335000I-40000J0D01*
G01*
X17943000Y-6350000D02*
G75*
G03*
X17943000Y-6350000I-40000J0D01*
G01*
X17947000Y-6731000D02*
G75*
G03*
X17947000Y-6731000I-40000J0D01*
G01*
X17947000Y-7493000D02*
G75*
G03*
X17947000Y-7493000I-40000J0D01*
G01*
X17947000Y-8128000D02*
G75*
G03*
X17947000Y-8128000I-40000J0D01*
G01*
X18074000Y-4826000D02*
G75*
G03*
X18074000Y-4826000I-40000J0D01*
G01*
X18074000Y-5588000D02*
G75*
G03*
X18074000Y-5588000I-40000J0D01*
G01*
X18197000Y-8128000D02*
G75*
G03*
X18197000Y-8128000I-40000J0D01*
G01*
X18201000Y-6731000D02*
G75*
G03*
X18201000Y-6731000I-40000J0D01*
G01*
X18201000Y-7493000D02*
G75*
G03*
X18201000Y-7493000I-40000J0D01*
G01*
X18201000Y-8509000D02*
G75*
G03*
X18201000Y-8509000I-40000J0D01*
G01*
X18201000Y-8763000D02*
G75*
G03*
X18201000Y-8763000I-40000J0D01*
G01*
X18201000Y-9017000D02*
G75*
G03*
X18201000Y-9017000I-40000J0D01*
G01*
X18201000Y-9271000D02*
G75*
G03*
X18201000Y-9271000I-40000J0D01*
G01*
X18201000Y-9525000D02*
G75*
G03*
X18201000Y-9525000I-40000J0D01*
G01*
X18201000Y-9779000D02*
G75*
G03*
X18201000Y-9779000I-40000J0D01*
G01*
X18201000Y-10033000D02*
G75*
G03*
X18201000Y-10033000I-40000J0D01*
G01*
X18201000Y-10287000D02*
G75*
G03*
X18201000Y-10287000I-40000J0D01*
G01*
X18201000Y-10541000D02*
G75*
G03*
X18201000Y-10541000I-40000J0D01*
G01*
X18201000Y-10795000D02*
G75*
G03*
X18201000Y-10795000I-40000J0D01*
G01*
X18201000Y-11049000D02*
G75*
G03*
X18201000Y-11049000I-40000J0D01*
G01*
X18201000Y-11303000D02*
G75*
G03*
X18201000Y-11303000I-40000J0D01*
G01*
X18201000Y-11557000D02*
G75*
G03*
X18201000Y-11557000I-40000J0D01*
G01*
X18201000Y-11811000D02*
G75*
G03*
X18201000Y-11811000I-40000J0D01*
G01*
X18201000Y-12192000D02*
G75*
G03*
X18201000Y-12192000I-40000J0D01*
G01*
X18201000Y-13208000D02*
G75*
G03*
X18201000Y-13208000I-40000J0D01*
G01*
X18455000Y-6731000D02*
G75*
G03*
X18455000Y-6731000I-40000J0D01*
G01*
X18455000Y-7493000D02*
G75*
G03*
X18455000Y-7493000I-40000J0D01*
G01*
X18499000Y-10820500D02*
G75*
G03*
X18499000Y-10820500I-40000J0D01*
G01*
X18582000Y-11811000D02*
G75*
G03*
X18582000Y-11811000I-40000J0D01*
G01*
X18582000Y-12827000D02*
G75*
G03*
X18582000Y-12827000I-40000J0D01*
G01*
X18626000Y-10502000D02*
G75*
G03*
X18626000Y-10502000I-40000J0D01*
G01*
X18645500Y-9906000D02*
G75*
G03*
X18645500Y-9906000I-40000J0D01*
G01*
X18709000Y-6731000D02*
G75*
G03*
X18709000Y-6731000I-40000J0D01*
G01*
X18709000Y-7493000D02*
G75*
G03*
X18709000Y-7493000I-40000J0D01*
G01*
X18772500Y-8259000D02*
G75*
G03*
X18772500Y-8259000I-40000J0D01*
G01*
X18772500Y-8509000D02*
G75*
G03*
X18772500Y-8509000I-40000J0D01*
G01*
X18836000Y-5969000D02*
G75*
G03*
X18836000Y-5969000I-40000J0D01*
G01*
X18899500Y-9906000D02*
G75*
G03*
X18899500Y-9906000I-40000J0D01*
G01*
X18899500Y-10223500D02*
G75*
G03*
X18899500Y-10223500I-40000J0D01*
G01*
X18963000Y-6731000D02*
G75*
G03*
X18963000Y-6731000I-40000J0D01*
G01*
X18963000Y-7493000D02*
G75*
G03*
X18963000Y-7493000I-40000J0D01*
G01*
X18963000Y-8953500D02*
G75*
G03*
X18963000Y-8953500I-40000J0D01*
G01*
X18963000Y-9453500D02*
G75*
G03*
X18963000Y-9453500I-40000J0D01*
G01*
X18963000Y-11811000D02*
G75*
G03*
X18963000Y-11811000I-40000J0D01*
G01*
X18963000Y-12827000D02*
G75*
G03*
X18963000Y-12827000I-40000J0D01*
G01*
X19149500Y-10223500D02*
G75*
G03*
X19149500Y-10223500I-40000J0D01*
G01*
X19153500Y-9906000D02*
G75*
G03*
X19153500Y-9906000I-40000J0D01*
G01*
X19217000Y-6731000D02*
G75*
G03*
X19217000Y-6731000I-40000J0D01*
G01*
X19217000Y-7493000D02*
G75*
G03*
X19217000Y-7493000I-40000J0D01*
G01*
X19344000Y-11811000D02*
G75*
G03*
X19344000Y-11811000I-40000J0D01*
G01*
X19344000Y-12827000D02*
G75*
G03*
X19344000Y-12827000I-40000J0D01*
G01*
X19388000Y-10502000D02*
G75*
G03*
X19388000Y-10502000I-40000J0D01*
G01*
X19515000Y-10820500D02*
G75*
G03*
X19515000Y-10820500I-40000J0D01*
G01*
D14*
X10287000Y-6808000D02*
X10287000Y-6908000D01*
X10237000Y-6858000D02*
X10337000Y-6858000D01*
X10287000Y-7062000D02*
X10287000Y-7162000D01*
X10237000Y-7112000D02*
X10337000Y-7112000D01*
X10287000Y-7316000D02*
X10287000Y-7416000D01*
X10237000Y-7366000D02*
X10337000Y-7366000D01*
X10287000Y-7570000D02*
X10287000Y-7670000D01*
X10237000Y-7620000D02*
X10337000Y-7620000D01*
X10287000Y-7824000D02*
X10287000Y-7924000D01*
X10237000Y-7874000D02*
X10337000Y-7874000D01*
X10287000Y-8078000D02*
X10287000Y-8178000D01*
X10237000Y-8128000D02*
X10337000Y-8128000D01*
X10287000Y-8332000D02*
X10287000Y-8432000D01*
X10237000Y-8382000D02*
X10337000Y-8382000D01*
X10287000Y-8586000D02*
X10287000Y-8686000D01*
X10237000Y-8636000D02*
X10337000Y-8636000D01*
X10287000Y-8840000D02*
X10287000Y-8940000D01*
X10237000Y-8890000D02*
X10337000Y-8890000D01*
X10287000Y-9094000D02*
X10287000Y-9194000D01*
X10237000Y-9144000D02*
X10337000Y-9144000D01*
X10287000Y-9348000D02*
X10287000Y-9448000D01*
X10237000Y-9398000D02*
X10337000Y-9398000D01*
X10287000Y-9602000D02*
X10287000Y-9702000D01*
X10237000Y-9652000D02*
X10337000Y-9652000D01*
X10287000Y-9856000D02*
X10287000Y-9956000D01*
X10237000Y-9906000D02*
X10337000Y-9906000D01*
X10287000Y-10110000D02*
X10287000Y-10210000D01*
X10237000Y-10160000D02*
X10337000Y-10160000D01*
X10287000Y-10364000D02*
X10287000Y-10464000D01*
X10237000Y-10414000D02*
X10337000Y-10414000D01*
X10287000Y-10618000D02*
X10287000Y-10718000D01*
X10237000Y-10668000D02*
X10337000Y-10668000D01*
X10287000Y-10872000D02*
X10287000Y-10972000D01*
X10237000Y-10922000D02*
X10337000Y-10922000D01*
X10287000Y-11126000D02*
X10287000Y-11226000D01*
X10237000Y-11176000D02*
X10337000Y-11176000D01*
X10287000Y-11380000D02*
X10287000Y-11480000D01*
X10237000Y-11430000D02*
X10337000Y-11430000D01*
X10287000Y-11634000D02*
X10287000Y-11734000D01*
X10237000Y-11684000D02*
X10337000Y-11684000D01*
X10541000Y-6808000D02*
X10541000Y-6908000D01*
X10491000Y-6858000D02*
X10591000Y-6858000D01*
X10541000Y-7062000D02*
X10541000Y-7162000D01*
X10491000Y-7112000D02*
X10591000Y-7112000D01*
X10541000Y-7316000D02*
X10541000Y-7416000D01*
X10491000Y-7366000D02*
X10591000Y-7366000D01*
X10541000Y-7570000D02*
X10541000Y-7670000D01*
X10491000Y-7620000D02*
X10591000Y-7620000D01*
X10541000Y-7824000D02*
X10541000Y-7924000D01*
X10491000Y-7874000D02*
X10591000Y-7874000D01*
X10541000Y-8078000D02*
X10541000Y-8178000D01*
X10491000Y-8128000D02*
X10591000Y-8128000D01*
X10541000Y-8332000D02*
X10541000Y-8432000D01*
X10491000Y-8382000D02*
X10591000Y-8382000D01*
X10541000Y-8586000D02*
X10541000Y-8686000D01*
X10491000Y-8636000D02*
X10591000Y-8636000D01*
X10541000Y-8840000D02*
X10541000Y-8940000D01*
X10491000Y-8890000D02*
X10591000Y-8890000D01*
X10541000Y-9094000D02*
X10541000Y-9194000D01*
X10491000Y-9144000D02*
X10591000Y-9144000D01*
X10541000Y-9348000D02*
X10541000Y-9448000D01*
X10491000Y-9398000D02*
X10591000Y-9398000D01*
X10541000Y-9602000D02*
X10541000Y-9702000D01*
X10491000Y-9652000D02*
X10591000Y-9652000D01*
X10541000Y-9856000D02*
X10541000Y-9956000D01*
X10491000Y-9906000D02*
X10591000Y-9906000D01*
X10541000Y-10110000D02*
X10541000Y-10210000D01*
X10491000Y-10160000D02*
X10591000Y-10160000D01*
X10541000Y-10364000D02*
X10541000Y-10464000D01*
X10491000Y-10414000D02*
X10591000Y-10414000D01*
X10541000Y-10618000D02*
X10541000Y-10718000D01*
X10491000Y-10668000D02*
X10591000Y-10668000D01*
X10541000Y-10872000D02*
X10541000Y-10972000D01*
X10491000Y-10922000D02*
X10591000Y-10922000D01*
X10541000Y-11126000D02*
X10541000Y-11226000D01*
X10491000Y-11176000D02*
X10591000Y-11176000D01*
X10541000Y-11380000D02*
X10541000Y-11480000D01*
X10491000Y-11430000D02*
X10591000Y-11430000D01*
X10541000Y-11634000D02*
X10541000Y-11734000D01*
X10491000Y-11684000D02*
X10591000Y-11684000D01*
X11176000Y-5538000D02*
X11176000Y-5638000D01*
X11126000Y-5588000D02*
X11226000Y-5588000D01*
X11430000Y-5538000D02*
X11430000Y-5638000D01*
X11380000Y-5588000D02*
X11480000Y-5588000D01*
X11684000Y-5538000D02*
X11684000Y-5638000D01*
X11634000Y-5588000D02*
X11734000Y-5588000D01*
X11938000Y-5538000D02*
X11938000Y-5638000D01*
X11888000Y-5588000D02*
X11988000Y-5588000D01*
X11938000Y-13920000D02*
X11938000Y-14020000D01*
X11888000Y-13970000D02*
X11988000Y-13970000D01*
X12192000Y-5538000D02*
X12192000Y-5638000D01*
X12142000Y-5588000D02*
X12242000Y-5588000D01*
X12192000Y-13920000D02*
X12192000Y-14020000D01*
X12142000Y-13970000D02*
X12242000Y-13970000D01*
X12446000Y-13920000D02*
X12446000Y-14020000D01*
X12396000Y-13970000D02*
X12496000Y-13970000D01*
X12700000Y-13920000D02*
X12700000Y-14020000D01*
X12650000Y-13970000D02*
X12750000Y-13970000D01*
X12954000Y-13920000D02*
X12954000Y-14020000D01*
X12904000Y-13970000D02*
X13004000Y-13970000D01*
X13208000Y-13920000D02*
X13208000Y-14020000D01*
X13158000Y-13970000D02*
X13258000Y-13970000D01*
X13462000Y-13920000D02*
X13462000Y-14020000D01*
X13412000Y-13970000D02*
X13512000Y-13970000D01*
X13716000Y-13920000D02*
X13716000Y-14020000D01*
X13666000Y-13970000D02*
X13766000Y-13970000D01*
X13970000Y-13920000D02*
X13970000Y-14020000D01*
X13920000Y-13970000D02*
X14020000Y-13970000D01*
X16129000Y-13920000D02*
X16129000Y-14020000D01*
X16079000Y-13970000D02*
X16179000Y-13970000D01*
X16383000Y-13920000D02*
X16383000Y-14020000D01*
X16333000Y-13970000D02*
X16433000Y-13970000D01*
X16637000Y-13920000D02*
X16637000Y-14020000D01*
X16587000Y-13970000D02*
X16687000Y-13970000D01*
X16891000Y-13920000D02*
X16891000Y-14020000D01*
X16841000Y-13970000D02*
X16941000Y-13970000D01*
X17145000Y-13920000D02*
X17145000Y-14020000D01*
X17095000Y-13970000D02*
X17195000Y-13970000D01*
X17399000Y-13920000D02*
X17399000Y-14020000D01*
X17349000Y-13970000D02*
X17449000Y-13970000D01*
X17653000Y-13920000D02*
X17653000Y-14020000D01*
X17603000Y-13970000D02*
X17703000Y-13970000D01*
X19431000Y-5919000D02*
X19431000Y-6019000D01*
X19381000Y-5969000D02*
X19481000Y-5969000D01*
X19431000Y-6173000D02*
X19431000Y-6273000D01*
X19381000Y-6223000D02*
X19481000Y-6223000D01*
X19431000Y-8903500D02*
X19431000Y-9003500D01*
X19381000Y-8953500D02*
X19481000Y-8953500D01*
X19431000Y-9157500D02*
X19431000Y-9257500D01*
X19381000Y-9207500D02*
X19481000Y-9207500D01*
X19431000Y-9411500D02*
X19431000Y-9511500D01*
X19381000Y-9461500D02*
X19481000Y-9461500D01*
X19431000Y-9665500D02*
X19431000Y-9765500D01*
X19381000Y-9715500D02*
X19481000Y-9715500D01*
D11*
X10019119Y-14524976D02*
X10019119Y-14324976D01*
X10019119Y-14324976D02*
X10066738Y-14324976D01*
X10066738Y-14324976D02*
X10095310Y-14334500D01*
X10095310Y-14334500D02*
X10114357Y-14353548D01*
X10114357Y-14353548D02*
X10123881Y-14372595D01*
X10123881Y-14372595D02*
X10133405Y-14410690D01*
X10133405Y-14410690D02*
X10133405Y-14439262D01*
X10133405Y-14439262D02*
X10123881Y-14477357D01*
X10123881Y-14477357D02*
X10114357Y-14496405D01*
X10114357Y-14496405D02*
X10095310Y-14515452D01*
X10095310Y-14515452D02*
X10066738Y-14524976D01*
X10066738Y-14524976D02*
X10019119Y-14524976D01*
X10219119Y-14524976D02*
X10219119Y-14391643D01*
X10219119Y-14429738D02*
X10228643Y-14410690D01*
X10228643Y-14410690D02*
X10238167Y-14401167D01*
X10238167Y-14401167D02*
X10257214Y-14391643D01*
X10257214Y-14391643D02*
X10276262Y-14391643D01*
X10342929Y-14524976D02*
X10342929Y-14391643D01*
X10342929Y-14324976D02*
X10333405Y-14334500D01*
X10333405Y-14334500D02*
X10342929Y-14344024D01*
X10342929Y-14344024D02*
X10352452Y-14334500D01*
X10352452Y-14334500D02*
X10342929Y-14324976D01*
X10342929Y-14324976D02*
X10342929Y-14344024D01*
X10466738Y-14524976D02*
X10447690Y-14515452D01*
X10447690Y-14515452D02*
X10438167Y-14496405D01*
X10438167Y-14496405D02*
X10438167Y-14324976D01*
X10571500Y-14524976D02*
X10552452Y-14515452D01*
X10552452Y-14515452D02*
X10542929Y-14496405D01*
X10542929Y-14496405D02*
X10542929Y-14324976D01*
X10767690Y-14524976D02*
X10767690Y-14324976D01*
X10767690Y-14324976D02*
X10834357Y-14467833D01*
X10834357Y-14467833D02*
X10901024Y-14324976D01*
X10901024Y-14324976D02*
X10901024Y-14524976D01*
X11081976Y-14524976D02*
X11081976Y-14420214D01*
X11081976Y-14420214D02*
X11072452Y-14401167D01*
X11072452Y-14401167D02*
X11053405Y-14391643D01*
X11053405Y-14391643D02*
X11015309Y-14391643D01*
X11015309Y-14391643D02*
X10996262Y-14401167D01*
X11081976Y-14515452D02*
X11062929Y-14524976D01*
X11062929Y-14524976D02*
X11015309Y-14524976D01*
X11015309Y-14524976D02*
X10996262Y-14515452D01*
X10996262Y-14515452D02*
X10986738Y-14496405D01*
X10986738Y-14496405D02*
X10986738Y-14477357D01*
X10986738Y-14477357D02*
X10996262Y-14458309D01*
X10996262Y-14458309D02*
X11015309Y-14448786D01*
X11015309Y-14448786D02*
X11062929Y-14448786D01*
X11062929Y-14448786D02*
X11081976Y-14439262D01*
X11177214Y-14391643D02*
X11177214Y-14591643D01*
X11177214Y-14401167D02*
X11196262Y-14391643D01*
X11196262Y-14391643D02*
X11234357Y-14391643D01*
X11234357Y-14391643D02*
X11253405Y-14401167D01*
X11253405Y-14401167D02*
X11262928Y-14410690D01*
X11262928Y-14410690D02*
X11272452Y-14429738D01*
X11272452Y-14429738D02*
X11272452Y-14486881D01*
X11272452Y-14486881D02*
X11262928Y-14505928D01*
X11262928Y-14505928D02*
X11253405Y-14515452D01*
X11253405Y-14515452D02*
X11234357Y-14524976D01*
X11234357Y-14524976D02*
X11196262Y-14524976D01*
X11196262Y-14524976D02*
X11177214Y-14515452D01*
X11358167Y-14505928D02*
X11367690Y-14515452D01*
X11367690Y-14515452D02*
X11358167Y-14524976D01*
X11358167Y-14524976D02*
X11348643Y-14515452D01*
X11348643Y-14515452D02*
X11358167Y-14505928D01*
X11358167Y-14505928D02*
X11358167Y-14524976D01*
X11358167Y-14401167D02*
X11367690Y-14410690D01*
X11367690Y-14410690D02*
X11358167Y-14420214D01*
X11358167Y-14420214D02*
X11348643Y-14410690D01*
X11348643Y-14410690D02*
X11358167Y-14401167D01*
X11358167Y-14401167D02*
X11358167Y-14420214D01*
D12*
X9731500Y-14851500D02*
X9771500Y-14891500D01*
X9771500Y-14851500D02*
X9731500Y-14891500D01*
D11*
X10057214Y-14744976D02*
X10076262Y-14744976D01*
X10076262Y-14744976D02*
X10095310Y-14754500D01*
X10095310Y-14754500D02*
X10104833Y-14764024D01*
X10104833Y-14764024D02*
X10114357Y-14783071D01*
X10114357Y-14783071D02*
X10123881Y-14821167D01*
X10123881Y-14821167D02*
X10123881Y-14868786D01*
X10123881Y-14868786D02*
X10114357Y-14906881D01*
X10114357Y-14906881D02*
X10104833Y-14925928D01*
X10104833Y-14925928D02*
X10095310Y-14935452D01*
X10095310Y-14935452D02*
X10076262Y-14944976D01*
X10076262Y-14944976D02*
X10057214Y-14944976D01*
X10057214Y-14944976D02*
X10038167Y-14935452D01*
X10038167Y-14935452D02*
X10028643Y-14925928D01*
X10028643Y-14925928D02*
X10019119Y-14906881D01*
X10019119Y-14906881D02*
X10009595Y-14868786D01*
X10009595Y-14868786D02*
X10009595Y-14821167D01*
X10009595Y-14821167D02*
X10019119Y-14783071D01*
X10019119Y-14783071D02*
X10028643Y-14764024D01*
X10028643Y-14764024D02*
X10038167Y-14754500D01*
X10038167Y-14754500D02*
X10057214Y-14744976D01*
X10209595Y-14925928D02*
X10219119Y-14935452D01*
X10219119Y-14935452D02*
X10209595Y-14944976D01*
X10209595Y-14944976D02*
X10200071Y-14935452D01*
X10200071Y-14935452D02*
X10209595Y-14925928D01*
X10209595Y-14925928D02*
X10209595Y-14944976D01*
X10390548Y-14811643D02*
X10390548Y-14944976D01*
X10342929Y-14735452D02*
X10295310Y-14878309D01*
X10295310Y-14878309D02*
X10419119Y-14878309D01*
X10533405Y-14744976D02*
X10552452Y-14744976D01*
X10552452Y-14744976D02*
X10571500Y-14754500D01*
X10571500Y-14754500D02*
X10581024Y-14764024D01*
X10581024Y-14764024D02*
X10590548Y-14783071D01*
X10590548Y-14783071D02*
X10600071Y-14821167D01*
X10600071Y-14821167D02*
X10600071Y-14868786D01*
X10600071Y-14868786D02*
X10590548Y-14906881D01*
X10590548Y-14906881D02*
X10581024Y-14925928D01*
X10581024Y-14925928D02*
X10571500Y-14935452D01*
X10571500Y-14935452D02*
X10552452Y-14944976D01*
X10552452Y-14944976D02*
X10533405Y-14944976D01*
X10533405Y-14944976D02*
X10514357Y-14935452D01*
X10514357Y-14935452D02*
X10504833Y-14925928D01*
X10504833Y-14925928D02*
X10495310Y-14906881D01*
X10495310Y-14906881D02*
X10485786Y-14868786D01*
X10485786Y-14868786D02*
X10485786Y-14821167D01*
X10485786Y-14821167D02*
X10495310Y-14783071D01*
X10495310Y-14783071D02*
X10504833Y-14764024D01*
X10504833Y-14764024D02*
X10514357Y-14754500D01*
X10514357Y-14754500D02*
X10533405Y-14744976D01*
X10723881Y-14744976D02*
X10742929Y-14744976D01*
X10742929Y-14744976D02*
X10761976Y-14754500D01*
X10761976Y-14754500D02*
X10771500Y-14764024D01*
X10771500Y-14764024D02*
X10781024Y-14783071D01*
X10781024Y-14783071D02*
X10790548Y-14821167D01*
X10790548Y-14821167D02*
X10790548Y-14868786D01*
X10790548Y-14868786D02*
X10781024Y-14906881D01*
X10781024Y-14906881D02*
X10771500Y-14925928D01*
X10771500Y-14925928D02*
X10761976Y-14935452D01*
X10761976Y-14935452D02*
X10742929Y-14944976D01*
X10742929Y-14944976D02*
X10723881Y-14944976D01*
X10723881Y-14944976D02*
X10704833Y-14935452D01*
X10704833Y-14935452D02*
X10695310Y-14925928D01*
X10695310Y-14925928D02*
X10685786Y-14906881D01*
X10685786Y-14906881D02*
X10676262Y-14868786D01*
X10676262Y-14868786D02*
X10676262Y-14821167D01*
X10676262Y-14821167D02*
X10685786Y-14783071D01*
X10685786Y-14783071D02*
X10695310Y-14764024D01*
X10695310Y-14764024D02*
X10704833Y-14754500D01*
X10704833Y-14754500D02*
X10723881Y-14744976D01*
X10876262Y-14944976D02*
X10876262Y-14811643D01*
X10876262Y-14830690D02*
X10885786Y-14821167D01*
X10885786Y-14821167D02*
X10904833Y-14811643D01*
X10904833Y-14811643D02*
X10933405Y-14811643D01*
X10933405Y-14811643D02*
X10952452Y-14821167D01*
X10952452Y-14821167D02*
X10961976Y-14840214D01*
X10961976Y-14840214D02*
X10961976Y-14944976D01*
X10961976Y-14840214D02*
X10971500Y-14821167D01*
X10971500Y-14821167D02*
X10990548Y-14811643D01*
X10990548Y-14811643D02*
X11019119Y-14811643D01*
X11019119Y-14811643D02*
X11038167Y-14821167D01*
X11038167Y-14821167D02*
X11047691Y-14840214D01*
X11047691Y-14840214D02*
X11047691Y-14944976D01*
X11142929Y-14944976D02*
X11142929Y-14811643D01*
X11142929Y-14830690D02*
X11152452Y-14821167D01*
X11152452Y-14821167D02*
X11171500Y-14811643D01*
X11171500Y-14811643D02*
X11200071Y-14811643D01*
X11200071Y-14811643D02*
X11219119Y-14821167D01*
X11219119Y-14821167D02*
X11228643Y-14840214D01*
X11228643Y-14840214D02*
X11228643Y-14944976D01*
X11228643Y-14840214D02*
X11238167Y-14821167D01*
X11238167Y-14821167D02*
X11257214Y-14811643D01*
X11257214Y-14811643D02*
X11285786Y-14811643D01*
X11285786Y-14811643D02*
X11304833Y-14821167D01*
X11304833Y-14821167D02*
X11314357Y-14840214D01*
X11314357Y-14840214D02*
X11314357Y-14944976D01*
X11672452Y-14735452D02*
X11501024Y-14992595D01*
X11897214Y-14744976D02*
X11916262Y-14744976D01*
X11916262Y-14744976D02*
X11935310Y-14754500D01*
X11935310Y-14754500D02*
X11944833Y-14764024D01*
X11944833Y-14764024D02*
X11954357Y-14783071D01*
X11954357Y-14783071D02*
X11963881Y-14821167D01*
X11963881Y-14821167D02*
X11963881Y-14868786D01*
X11963881Y-14868786D02*
X11954357Y-14906881D01*
X11954357Y-14906881D02*
X11944833Y-14925928D01*
X11944833Y-14925928D02*
X11935310Y-14935452D01*
X11935310Y-14935452D02*
X11916262Y-14944976D01*
X11916262Y-14944976D02*
X11897214Y-14944976D01*
X11897214Y-14944976D02*
X11878167Y-14935452D01*
X11878167Y-14935452D02*
X11868643Y-14925928D01*
X11868643Y-14925928D02*
X11859119Y-14906881D01*
X11859119Y-14906881D02*
X11849595Y-14868786D01*
X11849595Y-14868786D02*
X11849595Y-14821167D01*
X11849595Y-14821167D02*
X11859119Y-14783071D01*
X11859119Y-14783071D02*
X11868643Y-14764024D01*
X11868643Y-14764024D02*
X11878167Y-14754500D01*
X11878167Y-14754500D02*
X11897214Y-14744976D01*
X12049595Y-14925928D02*
X12059119Y-14935452D01*
X12059119Y-14935452D02*
X12049595Y-14944976D01*
X12049595Y-14944976D02*
X12040071Y-14935452D01*
X12040071Y-14935452D02*
X12049595Y-14925928D01*
X12049595Y-14925928D02*
X12049595Y-14944976D01*
X12182929Y-14744976D02*
X12201976Y-14744976D01*
X12201976Y-14744976D02*
X12221024Y-14754500D01*
X12221024Y-14754500D02*
X12230548Y-14764024D01*
X12230548Y-14764024D02*
X12240071Y-14783071D01*
X12240071Y-14783071D02*
X12249595Y-14821167D01*
X12249595Y-14821167D02*
X12249595Y-14868786D01*
X12249595Y-14868786D02*
X12240071Y-14906881D01*
X12240071Y-14906881D02*
X12230548Y-14925928D01*
X12230548Y-14925928D02*
X12221024Y-14935452D01*
X12221024Y-14935452D02*
X12201976Y-14944976D01*
X12201976Y-14944976D02*
X12182929Y-14944976D01*
X12182929Y-14944976D02*
X12163881Y-14935452D01*
X12163881Y-14935452D02*
X12154357Y-14925928D01*
X12154357Y-14925928D02*
X12144833Y-14906881D01*
X12144833Y-14906881D02*
X12135310Y-14868786D01*
X12135310Y-14868786D02*
X12135310Y-14821167D01*
X12135310Y-14821167D02*
X12144833Y-14783071D01*
X12144833Y-14783071D02*
X12154357Y-14764024D01*
X12154357Y-14764024D02*
X12163881Y-14754500D01*
X12163881Y-14754500D02*
X12182929Y-14744976D01*
X12440071Y-14944976D02*
X12325786Y-14944976D01*
X12382929Y-14944976D02*
X12382929Y-14744976D01*
X12382929Y-14744976D02*
X12363881Y-14773548D01*
X12363881Y-14773548D02*
X12344833Y-14792595D01*
X12344833Y-14792595D02*
X12325786Y-14802119D01*
X12621024Y-14744976D02*
X12525786Y-14744976D01*
X12525786Y-14744976D02*
X12516262Y-14840214D01*
X12516262Y-14840214D02*
X12525786Y-14830690D01*
X12525786Y-14830690D02*
X12544833Y-14821167D01*
X12544833Y-14821167D02*
X12592452Y-14821167D01*
X12592452Y-14821167D02*
X12611500Y-14830690D01*
X12611500Y-14830690D02*
X12621024Y-14840214D01*
X12621024Y-14840214D02*
X12630548Y-14859262D01*
X12630548Y-14859262D02*
X12630548Y-14906881D01*
X12630548Y-14906881D02*
X12621024Y-14925928D01*
X12621024Y-14925928D02*
X12611500Y-14935452D01*
X12611500Y-14935452D02*
X12592452Y-14944976D01*
X12592452Y-14944976D02*
X12544833Y-14944976D01*
X12544833Y-14944976D02*
X12525786Y-14935452D01*
X12525786Y-14935452D02*
X12516262Y-14925928D01*
X12697214Y-14744976D02*
X12830548Y-14744976D01*
X12830548Y-14744976D02*
X12744833Y-14944976D01*
X12897214Y-14744976D02*
X12897214Y-14783071D01*
X12973405Y-14744976D02*
X12973405Y-14783071D01*
X13236262Y-15021167D02*
X13226738Y-15011643D01*
X13226738Y-15011643D02*
X13207691Y-14983071D01*
X13207691Y-14983071D02*
X13198167Y-14964024D01*
X13198167Y-14964024D02*
X13188643Y-14935452D01*
X13188643Y-14935452D02*
X13179119Y-14887833D01*
X13179119Y-14887833D02*
X13179119Y-14849738D01*
X13179119Y-14849738D02*
X13188643Y-14802119D01*
X13188643Y-14802119D02*
X13198167Y-14773548D01*
X13198167Y-14773548D02*
X13207691Y-14754500D01*
X13207691Y-14754500D02*
X13226738Y-14725928D01*
X13226738Y-14725928D02*
X13236262Y-14716405D01*
X13398167Y-14744976D02*
X13360071Y-14744976D01*
X13360071Y-14744976D02*
X13341024Y-14754500D01*
X13341024Y-14754500D02*
X13331500Y-14764024D01*
X13331500Y-14764024D02*
X13312452Y-14792595D01*
X13312452Y-14792595D02*
X13302929Y-14830690D01*
X13302929Y-14830690D02*
X13302929Y-14906881D01*
X13302929Y-14906881D02*
X13312452Y-14925928D01*
X13312452Y-14925928D02*
X13321976Y-14935452D01*
X13321976Y-14935452D02*
X13341024Y-14944976D01*
X13341024Y-14944976D02*
X13379119Y-14944976D01*
X13379119Y-14944976D02*
X13398167Y-14935452D01*
X13398167Y-14935452D02*
X13407691Y-14925928D01*
X13407691Y-14925928D02*
X13417214Y-14906881D01*
X13417214Y-14906881D02*
X13417214Y-14859262D01*
X13417214Y-14859262D02*
X13407691Y-14840214D01*
X13407691Y-14840214D02*
X13398167Y-14830690D01*
X13398167Y-14830690D02*
X13379119Y-14821167D01*
X13379119Y-14821167D02*
X13341024Y-14821167D01*
X13341024Y-14821167D02*
X13321976Y-14830690D01*
X13321976Y-14830690D02*
X13312452Y-14840214D01*
X13312452Y-14840214D02*
X13302929Y-14859262D01*
X13493405Y-14764024D02*
X13502929Y-14754500D01*
X13502929Y-14754500D02*
X13521976Y-14744976D01*
X13521976Y-14744976D02*
X13569595Y-14744976D01*
X13569595Y-14744976D02*
X13588643Y-14754500D01*
X13588643Y-14754500D02*
X13598167Y-14764024D01*
X13598167Y-14764024D02*
X13607691Y-14783071D01*
X13607691Y-14783071D02*
X13607691Y-14802119D01*
X13607691Y-14802119D02*
X13598167Y-14830690D01*
X13598167Y-14830690D02*
X13483881Y-14944976D01*
X13483881Y-14944976D02*
X13607691Y-14944976D01*
X13813405Y-14944976D02*
X13813405Y-14744976D01*
X13899119Y-14944976D02*
X13899119Y-14840214D01*
X13899119Y-14840214D02*
X13889595Y-14821167D01*
X13889595Y-14821167D02*
X13870548Y-14811643D01*
X13870548Y-14811643D02*
X13841976Y-14811643D01*
X13841976Y-14811643D02*
X13822929Y-14821167D01*
X13822929Y-14821167D02*
X13813405Y-14830690D01*
X14022929Y-14944976D02*
X14003881Y-14935452D01*
X14003881Y-14935452D02*
X13994357Y-14925928D01*
X13994357Y-14925928D02*
X13984833Y-14906881D01*
X13984833Y-14906881D02*
X13984833Y-14849738D01*
X13984833Y-14849738D02*
X13994357Y-14830690D01*
X13994357Y-14830690D02*
X14003881Y-14821167D01*
X14003881Y-14821167D02*
X14022929Y-14811643D01*
X14022929Y-14811643D02*
X14051500Y-14811643D01*
X14051500Y-14811643D02*
X14070548Y-14821167D01*
X14070548Y-14821167D02*
X14080072Y-14830690D01*
X14080072Y-14830690D02*
X14089595Y-14849738D01*
X14089595Y-14849738D02*
X14089595Y-14906881D01*
X14089595Y-14906881D02*
X14080072Y-14925928D01*
X14080072Y-14925928D02*
X14070548Y-14935452D01*
X14070548Y-14935452D02*
X14051500Y-14944976D01*
X14051500Y-14944976D02*
X14022929Y-14944976D01*
X14203881Y-14944976D02*
X14184833Y-14935452D01*
X14184833Y-14935452D02*
X14175310Y-14916405D01*
X14175310Y-14916405D02*
X14175310Y-14744976D01*
X14356262Y-14935452D02*
X14337214Y-14944976D01*
X14337214Y-14944976D02*
X14299119Y-14944976D01*
X14299119Y-14944976D02*
X14280072Y-14935452D01*
X14280072Y-14935452D02*
X14270548Y-14916405D01*
X14270548Y-14916405D02*
X14270548Y-14840214D01*
X14270548Y-14840214D02*
X14280072Y-14821167D01*
X14280072Y-14821167D02*
X14299119Y-14811643D01*
X14299119Y-14811643D02*
X14337214Y-14811643D01*
X14337214Y-14811643D02*
X14356262Y-14821167D01*
X14356262Y-14821167D02*
X14365786Y-14840214D01*
X14365786Y-14840214D02*
X14365786Y-14859262D01*
X14365786Y-14859262D02*
X14270548Y-14878309D01*
X14441976Y-14935452D02*
X14461024Y-14944976D01*
X14461024Y-14944976D02*
X14499119Y-14944976D01*
X14499119Y-14944976D02*
X14518167Y-14935452D01*
X14518167Y-14935452D02*
X14527691Y-14916405D01*
X14527691Y-14916405D02*
X14527691Y-14906881D01*
X14527691Y-14906881D02*
X14518167Y-14887833D01*
X14518167Y-14887833D02*
X14499119Y-14878309D01*
X14499119Y-14878309D02*
X14470548Y-14878309D01*
X14470548Y-14878309D02*
X14451500Y-14868786D01*
X14451500Y-14868786D02*
X14441976Y-14849738D01*
X14441976Y-14849738D02*
X14441976Y-14840214D01*
X14441976Y-14840214D02*
X14451500Y-14821167D01*
X14451500Y-14821167D02*
X14470548Y-14811643D01*
X14470548Y-14811643D02*
X14499119Y-14811643D01*
X14499119Y-14811643D02*
X14518167Y-14821167D01*
X14594357Y-15021167D02*
X14603881Y-15011643D01*
X14603881Y-15011643D02*
X14622929Y-14983071D01*
X14622929Y-14983071D02*
X14632453Y-14964024D01*
X14632453Y-14964024D02*
X14641976Y-14935452D01*
X14641976Y-14935452D02*
X14651500Y-14887833D01*
X14651500Y-14887833D02*
X14651500Y-14849738D01*
X14651500Y-14849738D02*
X14641976Y-14802119D01*
X14641976Y-14802119D02*
X14632453Y-14773548D01*
X14632453Y-14773548D02*
X14622929Y-14754500D01*
X14622929Y-14754500D02*
X14603881Y-14725928D01*
X14603881Y-14725928D02*
X14594357Y-14716405D01*
D13*
X9771500Y-15135500D02*
G75*
G03*
X9771500Y-15135500I-40000J0D01*
G01*
D11*
X10057214Y-15008976D02*
X10076262Y-15008976D01*
X10076262Y-15008976D02*
X10095310Y-15018500D01*
X10095310Y-15018500D02*
X10104833Y-15028024D01*
X10104833Y-15028024D02*
X10114357Y-15047071D01*
X10114357Y-15047071D02*
X10123881Y-15085167D01*
X10123881Y-15085167D02*
X10123881Y-15132786D01*
X10123881Y-15132786D02*
X10114357Y-15170881D01*
X10114357Y-15170881D02*
X10104833Y-15189928D01*
X10104833Y-15189928D02*
X10095310Y-15199452D01*
X10095310Y-15199452D02*
X10076262Y-15208976D01*
X10076262Y-15208976D02*
X10057214Y-15208976D01*
X10057214Y-15208976D02*
X10038167Y-15199452D01*
X10038167Y-15199452D02*
X10028643Y-15189928D01*
X10028643Y-15189928D02*
X10019119Y-15170881D01*
X10019119Y-15170881D02*
X10009595Y-15132786D01*
X10009595Y-15132786D02*
X10009595Y-15085167D01*
X10009595Y-15085167D02*
X10019119Y-15047071D01*
X10019119Y-15047071D02*
X10028643Y-15028024D01*
X10028643Y-15028024D02*
X10038167Y-15018500D01*
X10038167Y-15018500D02*
X10057214Y-15008976D01*
X10209595Y-15189928D02*
X10219119Y-15199452D01*
X10219119Y-15199452D02*
X10209595Y-15208976D01*
X10209595Y-15208976D02*
X10200071Y-15199452D01*
X10200071Y-15199452D02*
X10209595Y-15189928D01*
X10209595Y-15189928D02*
X10209595Y-15208976D01*
X10333405Y-15094690D02*
X10314357Y-15085167D01*
X10314357Y-15085167D02*
X10304833Y-15075643D01*
X10304833Y-15075643D02*
X10295310Y-15056595D01*
X10295310Y-15056595D02*
X10295310Y-15047071D01*
X10295310Y-15047071D02*
X10304833Y-15028024D01*
X10304833Y-15028024D02*
X10314357Y-15018500D01*
X10314357Y-15018500D02*
X10333405Y-15008976D01*
X10333405Y-15008976D02*
X10371500Y-15008976D01*
X10371500Y-15008976D02*
X10390548Y-15018500D01*
X10390548Y-15018500D02*
X10400071Y-15028024D01*
X10400071Y-15028024D02*
X10409595Y-15047071D01*
X10409595Y-15047071D02*
X10409595Y-15056595D01*
X10409595Y-15056595D02*
X10400071Y-15075643D01*
X10400071Y-15075643D02*
X10390548Y-15085167D01*
X10390548Y-15085167D02*
X10371500Y-15094690D01*
X10371500Y-15094690D02*
X10333405Y-15094690D01*
X10333405Y-15094690D02*
X10314357Y-15104214D01*
X10314357Y-15104214D02*
X10304833Y-15113738D01*
X10304833Y-15113738D02*
X10295310Y-15132786D01*
X10295310Y-15132786D02*
X10295310Y-15170881D01*
X10295310Y-15170881D02*
X10304833Y-15189928D01*
X10304833Y-15189928D02*
X10314357Y-15199452D01*
X10314357Y-15199452D02*
X10333405Y-15208976D01*
X10333405Y-15208976D02*
X10371500Y-15208976D01*
X10371500Y-15208976D02*
X10390548Y-15199452D01*
X10390548Y-15199452D02*
X10400071Y-15189928D01*
X10400071Y-15189928D02*
X10409595Y-15170881D01*
X10409595Y-15170881D02*
X10409595Y-15132786D01*
X10409595Y-15132786D02*
X10400071Y-15113738D01*
X10400071Y-15113738D02*
X10390548Y-15104214D01*
X10390548Y-15104214D02*
X10371500Y-15094690D01*
X10533405Y-15008976D02*
X10552452Y-15008976D01*
X10552452Y-15008976D02*
X10571500Y-15018500D01*
X10571500Y-15018500D02*
X10581024Y-15028024D01*
X10581024Y-15028024D02*
X10590548Y-15047071D01*
X10590548Y-15047071D02*
X10600071Y-15085167D01*
X10600071Y-15085167D02*
X10600071Y-15132786D01*
X10600071Y-15132786D02*
X10590548Y-15170881D01*
X10590548Y-15170881D02*
X10581024Y-15189928D01*
X10581024Y-15189928D02*
X10571500Y-15199452D01*
X10571500Y-15199452D02*
X10552452Y-15208976D01*
X10552452Y-15208976D02*
X10533405Y-15208976D01*
X10533405Y-15208976D02*
X10514357Y-15199452D01*
X10514357Y-15199452D02*
X10504833Y-15189928D01*
X10504833Y-15189928D02*
X10495310Y-15170881D01*
X10495310Y-15170881D02*
X10485786Y-15132786D01*
X10485786Y-15132786D02*
X10485786Y-15085167D01*
X10485786Y-15085167D02*
X10495310Y-15047071D01*
X10495310Y-15047071D02*
X10504833Y-15028024D01*
X10504833Y-15028024D02*
X10514357Y-15018500D01*
X10514357Y-15018500D02*
X10533405Y-15008976D01*
X10723881Y-15008976D02*
X10742929Y-15008976D01*
X10742929Y-15008976D02*
X10761976Y-15018500D01*
X10761976Y-15018500D02*
X10771500Y-15028024D01*
X10771500Y-15028024D02*
X10781024Y-15047071D01*
X10781024Y-15047071D02*
X10790548Y-15085167D01*
X10790548Y-15085167D02*
X10790548Y-15132786D01*
X10790548Y-15132786D02*
X10781024Y-15170881D01*
X10781024Y-15170881D02*
X10771500Y-15189928D01*
X10771500Y-15189928D02*
X10761976Y-15199452D01*
X10761976Y-15199452D02*
X10742929Y-15208976D01*
X10742929Y-15208976D02*
X10723881Y-15208976D01*
X10723881Y-15208976D02*
X10704833Y-15199452D01*
X10704833Y-15199452D02*
X10695310Y-15189928D01*
X10695310Y-15189928D02*
X10685786Y-15170881D01*
X10685786Y-15170881D02*
X10676262Y-15132786D01*
X10676262Y-15132786D02*
X10676262Y-15085167D01*
X10676262Y-15085167D02*
X10685786Y-15047071D01*
X10685786Y-15047071D02*
X10695310Y-15028024D01*
X10695310Y-15028024D02*
X10704833Y-15018500D01*
X10704833Y-15018500D02*
X10723881Y-15008976D01*
X10876262Y-15208976D02*
X10876262Y-15075643D01*
X10876262Y-15094690D02*
X10885786Y-15085167D01*
X10885786Y-15085167D02*
X10904833Y-15075643D01*
X10904833Y-15075643D02*
X10933405Y-15075643D01*
X10933405Y-15075643D02*
X10952452Y-15085167D01*
X10952452Y-15085167D02*
X10961976Y-15104214D01*
X10961976Y-15104214D02*
X10961976Y-15208976D01*
X10961976Y-15104214D02*
X10971500Y-15085167D01*
X10971500Y-15085167D02*
X10990548Y-15075643D01*
X10990548Y-15075643D02*
X11019119Y-15075643D01*
X11019119Y-15075643D02*
X11038167Y-15085167D01*
X11038167Y-15085167D02*
X11047691Y-15104214D01*
X11047691Y-15104214D02*
X11047691Y-15208976D01*
X11142929Y-15208976D02*
X11142929Y-15075643D01*
X11142929Y-15094690D02*
X11152452Y-15085167D01*
X11152452Y-15085167D02*
X11171500Y-15075643D01*
X11171500Y-15075643D02*
X11200071Y-15075643D01*
X11200071Y-15075643D02*
X11219119Y-15085167D01*
X11219119Y-15085167D02*
X11228643Y-15104214D01*
X11228643Y-15104214D02*
X11228643Y-15208976D01*
X11228643Y-15104214D02*
X11238167Y-15085167D01*
X11238167Y-15085167D02*
X11257214Y-15075643D01*
X11257214Y-15075643D02*
X11285786Y-15075643D01*
X11285786Y-15075643D02*
X11304833Y-15085167D01*
X11304833Y-15085167D02*
X11314357Y-15104214D01*
X11314357Y-15104214D02*
X11314357Y-15208976D01*
X11672452Y-14999452D02*
X11501024Y-15256595D01*
X11897214Y-15008976D02*
X11916262Y-15008976D01*
X11916262Y-15008976D02*
X11935310Y-15018500D01*
X11935310Y-15018500D02*
X11944833Y-15028024D01*
X11944833Y-15028024D02*
X11954357Y-15047071D01*
X11954357Y-15047071D02*
X11963881Y-15085167D01*
X11963881Y-15085167D02*
X11963881Y-15132786D01*
X11963881Y-15132786D02*
X11954357Y-15170881D01*
X11954357Y-15170881D02*
X11944833Y-15189928D01*
X11944833Y-15189928D02*
X11935310Y-15199452D01*
X11935310Y-15199452D02*
X11916262Y-15208976D01*
X11916262Y-15208976D02*
X11897214Y-15208976D01*
X11897214Y-15208976D02*
X11878167Y-15199452D01*
X11878167Y-15199452D02*
X11868643Y-15189928D01*
X11868643Y-15189928D02*
X11859119Y-15170881D01*
X11859119Y-15170881D02*
X11849595Y-15132786D01*
X11849595Y-15132786D02*
X11849595Y-15085167D01*
X11849595Y-15085167D02*
X11859119Y-15047071D01*
X11859119Y-15047071D02*
X11868643Y-15028024D01*
X11868643Y-15028024D02*
X11878167Y-15018500D01*
X11878167Y-15018500D02*
X11897214Y-15008976D01*
X12049595Y-15189928D02*
X12059119Y-15199452D01*
X12059119Y-15199452D02*
X12049595Y-15208976D01*
X12049595Y-15208976D02*
X12040071Y-15199452D01*
X12040071Y-15199452D02*
X12049595Y-15189928D01*
X12049595Y-15189928D02*
X12049595Y-15208976D01*
X12182929Y-15008976D02*
X12201976Y-15008976D01*
X12201976Y-15008976D02*
X12221024Y-15018500D01*
X12221024Y-15018500D02*
X12230548Y-15028024D01*
X12230548Y-15028024D02*
X12240071Y-15047071D01*
X12240071Y-15047071D02*
X12249595Y-15085167D01*
X12249595Y-15085167D02*
X12249595Y-15132786D01*
X12249595Y-15132786D02*
X12240071Y-15170881D01*
X12240071Y-15170881D02*
X12230548Y-15189928D01*
X12230548Y-15189928D02*
X12221024Y-15199452D01*
X12221024Y-15199452D02*
X12201976Y-15208976D01*
X12201976Y-15208976D02*
X12182929Y-15208976D01*
X12182929Y-15208976D02*
X12163881Y-15199452D01*
X12163881Y-15199452D02*
X12154357Y-15189928D01*
X12154357Y-15189928D02*
X12144833Y-15170881D01*
X12144833Y-15170881D02*
X12135310Y-15132786D01*
X12135310Y-15132786D02*
X12135310Y-15085167D01*
X12135310Y-15085167D02*
X12144833Y-15047071D01*
X12144833Y-15047071D02*
X12154357Y-15028024D01*
X12154357Y-15028024D02*
X12163881Y-15018500D01*
X12163881Y-15018500D02*
X12182929Y-15008976D01*
X12316262Y-15008976D02*
X12440071Y-15008976D01*
X12440071Y-15008976D02*
X12373405Y-15085167D01*
X12373405Y-15085167D02*
X12401976Y-15085167D01*
X12401976Y-15085167D02*
X12421024Y-15094690D01*
X12421024Y-15094690D02*
X12430548Y-15104214D01*
X12430548Y-15104214D02*
X12440071Y-15123262D01*
X12440071Y-15123262D02*
X12440071Y-15170881D01*
X12440071Y-15170881D02*
X12430548Y-15189928D01*
X12430548Y-15189928D02*
X12421024Y-15199452D01*
X12421024Y-15199452D02*
X12401976Y-15208976D01*
X12401976Y-15208976D02*
X12344833Y-15208976D01*
X12344833Y-15208976D02*
X12325786Y-15199452D01*
X12325786Y-15199452D02*
X12316262Y-15189928D01*
X12630548Y-15208976D02*
X12516262Y-15208976D01*
X12573405Y-15208976D02*
X12573405Y-15008976D01*
X12573405Y-15008976D02*
X12554357Y-15037548D01*
X12554357Y-15037548D02*
X12535310Y-15056595D01*
X12535310Y-15056595D02*
X12516262Y-15066119D01*
X12811500Y-15008976D02*
X12716262Y-15008976D01*
X12716262Y-15008976D02*
X12706738Y-15104214D01*
X12706738Y-15104214D02*
X12716262Y-15094690D01*
X12716262Y-15094690D02*
X12735310Y-15085167D01*
X12735310Y-15085167D02*
X12782929Y-15085167D01*
X12782929Y-15085167D02*
X12801976Y-15094690D01*
X12801976Y-15094690D02*
X12811500Y-15104214D01*
X12811500Y-15104214D02*
X12821024Y-15123262D01*
X12821024Y-15123262D02*
X12821024Y-15170881D01*
X12821024Y-15170881D02*
X12811500Y-15189928D01*
X12811500Y-15189928D02*
X12801976Y-15199452D01*
X12801976Y-15199452D02*
X12782929Y-15208976D01*
X12782929Y-15208976D02*
X12735310Y-15208976D01*
X12735310Y-15208976D02*
X12716262Y-15199452D01*
X12716262Y-15199452D02*
X12706738Y-15189928D01*
X12897214Y-15008976D02*
X12897214Y-15047071D01*
X12973405Y-15008976D02*
X12973405Y-15047071D01*
X13236262Y-15285167D02*
X13226738Y-15275643D01*
X13226738Y-15275643D02*
X13207691Y-15247071D01*
X13207691Y-15247071D02*
X13198167Y-15228024D01*
X13198167Y-15228024D02*
X13188643Y-15199452D01*
X13188643Y-15199452D02*
X13179119Y-15151833D01*
X13179119Y-15151833D02*
X13179119Y-15113738D01*
X13179119Y-15113738D02*
X13188643Y-15066119D01*
X13188643Y-15066119D02*
X13198167Y-15037548D01*
X13198167Y-15037548D02*
X13207691Y-15018500D01*
X13207691Y-15018500D02*
X13226738Y-14989928D01*
X13226738Y-14989928D02*
X13236262Y-14980405D01*
X13302929Y-15028024D02*
X13312452Y-15018500D01*
X13312452Y-15018500D02*
X13331500Y-15008976D01*
X13331500Y-15008976D02*
X13379119Y-15008976D01*
X13379119Y-15008976D02*
X13398167Y-15018500D01*
X13398167Y-15018500D02*
X13407691Y-15028024D01*
X13407691Y-15028024D02*
X13417214Y-15047071D01*
X13417214Y-15047071D02*
X13417214Y-15066119D01*
X13417214Y-15066119D02*
X13407691Y-15094690D01*
X13407691Y-15094690D02*
X13293405Y-15208976D01*
X13293405Y-15208976D02*
X13417214Y-15208976D01*
X13512452Y-15208976D02*
X13550548Y-15208976D01*
X13550548Y-15208976D02*
X13569595Y-15199452D01*
X13569595Y-15199452D02*
X13579119Y-15189928D01*
X13579119Y-15189928D02*
X13598167Y-15161357D01*
X13598167Y-15161357D02*
X13607691Y-15123262D01*
X13607691Y-15123262D02*
X13607691Y-15047071D01*
X13607691Y-15047071D02*
X13598167Y-15028024D01*
X13598167Y-15028024D02*
X13588643Y-15018500D01*
X13588643Y-15018500D02*
X13569595Y-15008976D01*
X13569595Y-15008976D02*
X13531500Y-15008976D01*
X13531500Y-15008976D02*
X13512452Y-15018500D01*
X13512452Y-15018500D02*
X13502929Y-15028024D01*
X13502929Y-15028024D02*
X13493405Y-15047071D01*
X13493405Y-15047071D02*
X13493405Y-15094690D01*
X13493405Y-15094690D02*
X13502929Y-15113738D01*
X13502929Y-15113738D02*
X13512452Y-15123262D01*
X13512452Y-15123262D02*
X13531500Y-15132786D01*
X13531500Y-15132786D02*
X13569595Y-15132786D01*
X13569595Y-15132786D02*
X13588643Y-15123262D01*
X13588643Y-15123262D02*
X13598167Y-15113738D01*
X13598167Y-15113738D02*
X13607691Y-15094690D01*
X13779119Y-15075643D02*
X13779119Y-15208976D01*
X13731500Y-14999452D02*
X13683881Y-15142309D01*
X13683881Y-15142309D02*
X13807691Y-15142309D01*
X14003881Y-15208976D02*
X14003881Y-15008976D01*
X14089595Y-15208976D02*
X14089595Y-15104214D01*
X14089595Y-15104214D02*
X14080072Y-15085167D01*
X14080072Y-15085167D02*
X14061024Y-15075643D01*
X14061024Y-15075643D02*
X14032452Y-15075643D01*
X14032452Y-15075643D02*
X14013405Y-15085167D01*
X14013405Y-15085167D02*
X14003881Y-15094690D01*
X14213405Y-15208976D02*
X14194357Y-15199452D01*
X14194357Y-15199452D02*
X14184833Y-15189928D01*
X14184833Y-15189928D02*
X14175310Y-15170881D01*
X14175310Y-15170881D02*
X14175310Y-15113738D01*
X14175310Y-15113738D02*
X14184833Y-15094690D01*
X14184833Y-15094690D02*
X14194357Y-15085167D01*
X14194357Y-15085167D02*
X14213405Y-15075643D01*
X14213405Y-15075643D02*
X14241976Y-15075643D01*
X14241976Y-15075643D02*
X14261024Y-15085167D01*
X14261024Y-15085167D02*
X14270548Y-15094690D01*
X14270548Y-15094690D02*
X14280072Y-15113738D01*
X14280072Y-15113738D02*
X14280072Y-15170881D01*
X14280072Y-15170881D02*
X14270548Y-15189928D01*
X14270548Y-15189928D02*
X14261024Y-15199452D01*
X14261024Y-15199452D02*
X14241976Y-15208976D01*
X14241976Y-15208976D02*
X14213405Y-15208976D01*
X14394357Y-15208976D02*
X14375310Y-15199452D01*
X14375310Y-15199452D02*
X14365786Y-15180405D01*
X14365786Y-15180405D02*
X14365786Y-15008976D01*
X14546738Y-15199452D02*
X14527691Y-15208976D01*
X14527691Y-15208976D02*
X14489595Y-15208976D01*
X14489595Y-15208976D02*
X14470548Y-15199452D01*
X14470548Y-15199452D02*
X14461024Y-15180405D01*
X14461024Y-15180405D02*
X14461024Y-15104214D01*
X14461024Y-15104214D02*
X14470548Y-15085167D01*
X14470548Y-15085167D02*
X14489595Y-15075643D01*
X14489595Y-15075643D02*
X14527691Y-15075643D01*
X14527691Y-15075643D02*
X14546738Y-15085167D01*
X14546738Y-15085167D02*
X14556262Y-15104214D01*
X14556262Y-15104214D02*
X14556262Y-15123262D01*
X14556262Y-15123262D02*
X14461024Y-15142309D01*
X14632453Y-15199452D02*
X14651500Y-15208976D01*
X14651500Y-15208976D02*
X14689595Y-15208976D01*
X14689595Y-15208976D02*
X14708643Y-15199452D01*
X14708643Y-15199452D02*
X14718167Y-15180405D01*
X14718167Y-15180405D02*
X14718167Y-15170881D01*
X14718167Y-15170881D02*
X14708643Y-15151833D01*
X14708643Y-15151833D02*
X14689595Y-15142309D01*
X14689595Y-15142309D02*
X14661024Y-15142309D01*
X14661024Y-15142309D02*
X14641976Y-15132786D01*
X14641976Y-15132786D02*
X14632453Y-15113738D01*
X14632453Y-15113738D02*
X14632453Y-15104214D01*
X14632453Y-15104214D02*
X14641976Y-15085167D01*
X14641976Y-15085167D02*
X14661024Y-15075643D01*
X14661024Y-15075643D02*
X14689595Y-15075643D01*
X14689595Y-15075643D02*
X14708643Y-15085167D01*
X14784834Y-15285167D02*
X14794357Y-15275643D01*
X14794357Y-15275643D02*
X14813405Y-15247071D01*
X14813405Y-15247071D02*
X14822929Y-15228024D01*
X14822929Y-15228024D02*
X14832453Y-15199452D01*
X14832453Y-15199452D02*
X14841976Y-15151833D01*
X14841976Y-15151833D02*
X14841976Y-15113738D01*
X14841976Y-15113738D02*
X14832453Y-15066119D01*
X14832453Y-15066119D02*
X14822929Y-15037548D01*
X14822929Y-15037548D02*
X14813405Y-15018500D01*
X14813405Y-15018500D02*
X14794357Y-14989928D01*
X14794357Y-14989928D02*
X14784834Y-14980405D01*
D14*
X9721500Y-15349500D02*
X9721500Y-15449500D01*
X9671500Y-15399500D02*
X9771500Y-15399500D01*
D11*
X10123881Y-15472976D02*
X10009595Y-15472976D01*
X10066738Y-15472976D02*
X10066738Y-15272976D01*
X10066738Y-15272976D02*
X10047690Y-15301548D01*
X10047690Y-15301548D02*
X10028643Y-15320595D01*
X10028643Y-15320595D02*
X10009595Y-15330119D01*
X10209595Y-15453928D02*
X10219119Y-15463452D01*
X10219119Y-15463452D02*
X10209595Y-15472976D01*
X10209595Y-15472976D02*
X10200071Y-15463452D01*
X10200071Y-15463452D02*
X10209595Y-15453928D01*
X10209595Y-15453928D02*
X10209595Y-15472976D01*
X10342929Y-15272976D02*
X10361976Y-15272976D01*
X10361976Y-15272976D02*
X10381024Y-15282500D01*
X10381024Y-15282500D02*
X10390548Y-15292024D01*
X10390548Y-15292024D02*
X10400071Y-15311071D01*
X10400071Y-15311071D02*
X10409595Y-15349167D01*
X10409595Y-15349167D02*
X10409595Y-15396786D01*
X10409595Y-15396786D02*
X10400071Y-15434881D01*
X10400071Y-15434881D02*
X10390548Y-15453928D01*
X10390548Y-15453928D02*
X10381024Y-15463452D01*
X10381024Y-15463452D02*
X10361976Y-15472976D01*
X10361976Y-15472976D02*
X10342929Y-15472976D01*
X10342929Y-15472976D02*
X10323881Y-15463452D01*
X10323881Y-15463452D02*
X10314357Y-15453928D01*
X10314357Y-15453928D02*
X10304833Y-15434881D01*
X10304833Y-15434881D02*
X10295310Y-15396786D01*
X10295310Y-15396786D02*
X10295310Y-15349167D01*
X10295310Y-15349167D02*
X10304833Y-15311071D01*
X10304833Y-15311071D02*
X10314357Y-15292024D01*
X10314357Y-15292024D02*
X10323881Y-15282500D01*
X10323881Y-15282500D02*
X10342929Y-15272976D01*
X10533405Y-15272976D02*
X10552452Y-15272976D01*
X10552452Y-15272976D02*
X10571500Y-15282500D01*
X10571500Y-15282500D02*
X10581024Y-15292024D01*
X10581024Y-15292024D02*
X10590548Y-15311071D01*
X10590548Y-15311071D02*
X10600071Y-15349167D01*
X10600071Y-15349167D02*
X10600071Y-15396786D01*
X10600071Y-15396786D02*
X10590548Y-15434881D01*
X10590548Y-15434881D02*
X10581024Y-15453928D01*
X10581024Y-15453928D02*
X10571500Y-15463452D01*
X10571500Y-15463452D02*
X10552452Y-15472976D01*
X10552452Y-15472976D02*
X10533405Y-15472976D01*
X10533405Y-15472976D02*
X10514357Y-15463452D01*
X10514357Y-15463452D02*
X10504833Y-15453928D01*
X10504833Y-15453928D02*
X10495310Y-15434881D01*
X10495310Y-15434881D02*
X10485786Y-15396786D01*
X10485786Y-15396786D02*
X10485786Y-15349167D01*
X10485786Y-15349167D02*
X10495310Y-15311071D01*
X10495310Y-15311071D02*
X10504833Y-15292024D01*
X10504833Y-15292024D02*
X10514357Y-15282500D01*
X10514357Y-15282500D02*
X10533405Y-15272976D01*
X10723881Y-15272976D02*
X10742929Y-15272976D01*
X10742929Y-15272976D02*
X10761976Y-15282500D01*
X10761976Y-15282500D02*
X10771500Y-15292024D01*
X10771500Y-15292024D02*
X10781024Y-15311071D01*
X10781024Y-15311071D02*
X10790548Y-15349167D01*
X10790548Y-15349167D02*
X10790548Y-15396786D01*
X10790548Y-15396786D02*
X10781024Y-15434881D01*
X10781024Y-15434881D02*
X10771500Y-15453928D01*
X10771500Y-15453928D02*
X10761976Y-15463452D01*
X10761976Y-15463452D02*
X10742929Y-15472976D01*
X10742929Y-15472976D02*
X10723881Y-15472976D01*
X10723881Y-15472976D02*
X10704833Y-15463452D01*
X10704833Y-15463452D02*
X10695310Y-15453928D01*
X10695310Y-15453928D02*
X10685786Y-15434881D01*
X10685786Y-15434881D02*
X10676262Y-15396786D01*
X10676262Y-15396786D02*
X10676262Y-15349167D01*
X10676262Y-15349167D02*
X10685786Y-15311071D01*
X10685786Y-15311071D02*
X10695310Y-15292024D01*
X10695310Y-15292024D02*
X10704833Y-15282500D01*
X10704833Y-15282500D02*
X10723881Y-15272976D01*
X10876262Y-15472976D02*
X10876262Y-15339643D01*
X10876262Y-15358690D02*
X10885786Y-15349167D01*
X10885786Y-15349167D02*
X10904833Y-15339643D01*
X10904833Y-15339643D02*
X10933405Y-15339643D01*
X10933405Y-15339643D02*
X10952452Y-15349167D01*
X10952452Y-15349167D02*
X10961976Y-15368214D01*
X10961976Y-15368214D02*
X10961976Y-15472976D01*
X10961976Y-15368214D02*
X10971500Y-15349167D01*
X10971500Y-15349167D02*
X10990548Y-15339643D01*
X10990548Y-15339643D02*
X11019119Y-15339643D01*
X11019119Y-15339643D02*
X11038167Y-15349167D01*
X11038167Y-15349167D02*
X11047691Y-15368214D01*
X11047691Y-15368214D02*
X11047691Y-15472976D01*
X11142929Y-15472976D02*
X11142929Y-15339643D01*
X11142929Y-15358690D02*
X11152452Y-15349167D01*
X11152452Y-15349167D02*
X11171500Y-15339643D01*
X11171500Y-15339643D02*
X11200071Y-15339643D01*
X11200071Y-15339643D02*
X11219119Y-15349167D01*
X11219119Y-15349167D02*
X11228643Y-15368214D01*
X11228643Y-15368214D02*
X11228643Y-15472976D01*
X11228643Y-15368214D02*
X11238167Y-15349167D01*
X11238167Y-15349167D02*
X11257214Y-15339643D01*
X11257214Y-15339643D02*
X11285786Y-15339643D01*
X11285786Y-15339643D02*
X11304833Y-15349167D01*
X11304833Y-15349167D02*
X11314357Y-15368214D01*
X11314357Y-15368214D02*
X11314357Y-15472976D01*
X11672452Y-15263452D02*
X11501024Y-15520595D01*
X11897214Y-15272976D02*
X11916262Y-15272976D01*
X11916262Y-15272976D02*
X11935310Y-15282500D01*
X11935310Y-15282500D02*
X11944833Y-15292024D01*
X11944833Y-15292024D02*
X11954357Y-15311071D01*
X11954357Y-15311071D02*
X11963881Y-15349167D01*
X11963881Y-15349167D02*
X11963881Y-15396786D01*
X11963881Y-15396786D02*
X11954357Y-15434881D01*
X11954357Y-15434881D02*
X11944833Y-15453928D01*
X11944833Y-15453928D02*
X11935310Y-15463452D01*
X11935310Y-15463452D02*
X11916262Y-15472976D01*
X11916262Y-15472976D02*
X11897214Y-15472976D01*
X11897214Y-15472976D02*
X11878167Y-15463452D01*
X11878167Y-15463452D02*
X11868643Y-15453928D01*
X11868643Y-15453928D02*
X11859119Y-15434881D01*
X11859119Y-15434881D02*
X11849595Y-15396786D01*
X11849595Y-15396786D02*
X11849595Y-15349167D01*
X11849595Y-15349167D02*
X11859119Y-15311071D01*
X11859119Y-15311071D02*
X11868643Y-15292024D01*
X11868643Y-15292024D02*
X11878167Y-15282500D01*
X11878167Y-15282500D02*
X11897214Y-15272976D01*
X12049595Y-15453928D02*
X12059119Y-15463452D01*
X12059119Y-15463452D02*
X12049595Y-15472976D01*
X12049595Y-15472976D02*
X12040071Y-15463452D01*
X12040071Y-15463452D02*
X12049595Y-15453928D01*
X12049595Y-15453928D02*
X12049595Y-15472976D01*
X12182929Y-15272976D02*
X12201976Y-15272976D01*
X12201976Y-15272976D02*
X12221024Y-15282500D01*
X12221024Y-15282500D02*
X12230548Y-15292024D01*
X12230548Y-15292024D02*
X12240071Y-15311071D01*
X12240071Y-15311071D02*
X12249595Y-15349167D01*
X12249595Y-15349167D02*
X12249595Y-15396786D01*
X12249595Y-15396786D02*
X12240071Y-15434881D01*
X12240071Y-15434881D02*
X12230548Y-15453928D01*
X12230548Y-15453928D02*
X12221024Y-15463452D01*
X12221024Y-15463452D02*
X12201976Y-15472976D01*
X12201976Y-15472976D02*
X12182929Y-15472976D01*
X12182929Y-15472976D02*
X12163881Y-15463452D01*
X12163881Y-15463452D02*
X12154357Y-15453928D01*
X12154357Y-15453928D02*
X12144833Y-15434881D01*
X12144833Y-15434881D02*
X12135310Y-15396786D01*
X12135310Y-15396786D02*
X12135310Y-15349167D01*
X12135310Y-15349167D02*
X12144833Y-15311071D01*
X12144833Y-15311071D02*
X12154357Y-15292024D01*
X12154357Y-15292024D02*
X12163881Y-15282500D01*
X12163881Y-15282500D02*
X12182929Y-15272976D01*
X12316262Y-15272976D02*
X12440071Y-15272976D01*
X12440071Y-15272976D02*
X12373405Y-15349167D01*
X12373405Y-15349167D02*
X12401976Y-15349167D01*
X12401976Y-15349167D02*
X12421024Y-15358690D01*
X12421024Y-15358690D02*
X12430548Y-15368214D01*
X12430548Y-15368214D02*
X12440071Y-15387262D01*
X12440071Y-15387262D02*
X12440071Y-15434881D01*
X12440071Y-15434881D02*
X12430548Y-15453928D01*
X12430548Y-15453928D02*
X12421024Y-15463452D01*
X12421024Y-15463452D02*
X12401976Y-15472976D01*
X12401976Y-15472976D02*
X12344833Y-15472976D01*
X12344833Y-15472976D02*
X12325786Y-15463452D01*
X12325786Y-15463452D02*
X12316262Y-15453928D01*
X12535310Y-15472976D02*
X12573405Y-15472976D01*
X12573405Y-15472976D02*
X12592452Y-15463452D01*
X12592452Y-15463452D02*
X12601976Y-15453928D01*
X12601976Y-15453928D02*
X12621024Y-15425357D01*
X12621024Y-15425357D02*
X12630548Y-15387262D01*
X12630548Y-15387262D02*
X12630548Y-15311071D01*
X12630548Y-15311071D02*
X12621024Y-15292024D01*
X12621024Y-15292024D02*
X12611500Y-15282500D01*
X12611500Y-15282500D02*
X12592452Y-15272976D01*
X12592452Y-15272976D02*
X12554357Y-15272976D01*
X12554357Y-15272976D02*
X12535310Y-15282500D01*
X12535310Y-15282500D02*
X12525786Y-15292024D01*
X12525786Y-15292024D02*
X12516262Y-15311071D01*
X12516262Y-15311071D02*
X12516262Y-15358690D01*
X12516262Y-15358690D02*
X12525786Y-15377738D01*
X12525786Y-15377738D02*
X12535310Y-15387262D01*
X12535310Y-15387262D02*
X12554357Y-15396786D01*
X12554357Y-15396786D02*
X12592452Y-15396786D01*
X12592452Y-15396786D02*
X12611500Y-15387262D01*
X12611500Y-15387262D02*
X12621024Y-15377738D01*
X12621024Y-15377738D02*
X12630548Y-15358690D01*
X12801976Y-15339643D02*
X12801976Y-15472976D01*
X12754357Y-15263452D02*
X12706738Y-15406309D01*
X12706738Y-15406309D02*
X12830548Y-15406309D01*
X12897214Y-15272976D02*
X12897214Y-15311071D01*
X12973405Y-15272976D02*
X12973405Y-15311071D01*
X13236262Y-15549167D02*
X13226738Y-15539643D01*
X13226738Y-15539643D02*
X13207691Y-15511071D01*
X13207691Y-15511071D02*
X13198167Y-15492024D01*
X13198167Y-15492024D02*
X13188643Y-15463452D01*
X13188643Y-15463452D02*
X13179119Y-15415833D01*
X13179119Y-15415833D02*
X13179119Y-15377738D01*
X13179119Y-15377738D02*
X13188643Y-15330119D01*
X13188643Y-15330119D02*
X13198167Y-15301548D01*
X13198167Y-15301548D02*
X13207691Y-15282500D01*
X13207691Y-15282500D02*
X13226738Y-15253928D01*
X13226738Y-15253928D02*
X13236262Y-15244405D01*
X13398167Y-15272976D02*
X13360071Y-15272976D01*
X13360071Y-15272976D02*
X13341024Y-15282500D01*
X13341024Y-15282500D02*
X13331500Y-15292024D01*
X13331500Y-15292024D02*
X13312452Y-15320595D01*
X13312452Y-15320595D02*
X13302929Y-15358690D01*
X13302929Y-15358690D02*
X13302929Y-15434881D01*
X13302929Y-15434881D02*
X13312452Y-15453928D01*
X13312452Y-15453928D02*
X13321976Y-15463452D01*
X13321976Y-15463452D02*
X13341024Y-15472976D01*
X13341024Y-15472976D02*
X13379119Y-15472976D01*
X13379119Y-15472976D02*
X13398167Y-15463452D01*
X13398167Y-15463452D02*
X13407691Y-15453928D01*
X13407691Y-15453928D02*
X13417214Y-15434881D01*
X13417214Y-15434881D02*
X13417214Y-15387262D01*
X13417214Y-15387262D02*
X13407691Y-15368214D01*
X13407691Y-15368214D02*
X13398167Y-15358690D01*
X13398167Y-15358690D02*
X13379119Y-15349167D01*
X13379119Y-15349167D02*
X13341024Y-15349167D01*
X13341024Y-15349167D02*
X13321976Y-15358690D01*
X13321976Y-15358690D02*
X13312452Y-15368214D01*
X13312452Y-15368214D02*
X13302929Y-15387262D01*
X13483881Y-15272976D02*
X13617214Y-15272976D01*
X13617214Y-15272976D02*
X13531500Y-15472976D01*
X13813405Y-15472976D02*
X13813405Y-15272976D01*
X13899119Y-15472976D02*
X13899119Y-15368214D01*
X13899119Y-15368214D02*
X13889595Y-15349167D01*
X13889595Y-15349167D02*
X13870548Y-15339643D01*
X13870548Y-15339643D02*
X13841976Y-15339643D01*
X13841976Y-15339643D02*
X13822929Y-15349167D01*
X13822929Y-15349167D02*
X13813405Y-15358690D01*
X14022929Y-15472976D02*
X14003881Y-15463452D01*
X14003881Y-15463452D02*
X13994357Y-15453928D01*
X13994357Y-15453928D02*
X13984833Y-15434881D01*
X13984833Y-15434881D02*
X13984833Y-15377738D01*
X13984833Y-15377738D02*
X13994357Y-15358690D01*
X13994357Y-15358690D02*
X14003881Y-15349167D01*
X14003881Y-15349167D02*
X14022929Y-15339643D01*
X14022929Y-15339643D02*
X14051500Y-15339643D01*
X14051500Y-15339643D02*
X14070548Y-15349167D01*
X14070548Y-15349167D02*
X14080072Y-15358690D01*
X14080072Y-15358690D02*
X14089595Y-15377738D01*
X14089595Y-15377738D02*
X14089595Y-15434881D01*
X14089595Y-15434881D02*
X14080072Y-15453928D01*
X14080072Y-15453928D02*
X14070548Y-15463452D01*
X14070548Y-15463452D02*
X14051500Y-15472976D01*
X14051500Y-15472976D02*
X14022929Y-15472976D01*
X14203881Y-15472976D02*
X14184833Y-15463452D01*
X14184833Y-15463452D02*
X14175310Y-15444405D01*
X14175310Y-15444405D02*
X14175310Y-15272976D01*
X14356262Y-15463452D02*
X14337214Y-15472976D01*
X14337214Y-15472976D02*
X14299119Y-15472976D01*
X14299119Y-15472976D02*
X14280072Y-15463452D01*
X14280072Y-15463452D02*
X14270548Y-15444405D01*
X14270548Y-15444405D02*
X14270548Y-15368214D01*
X14270548Y-15368214D02*
X14280072Y-15349167D01*
X14280072Y-15349167D02*
X14299119Y-15339643D01*
X14299119Y-15339643D02*
X14337214Y-15339643D01*
X14337214Y-15339643D02*
X14356262Y-15349167D01*
X14356262Y-15349167D02*
X14365786Y-15368214D01*
X14365786Y-15368214D02*
X14365786Y-15387262D01*
X14365786Y-15387262D02*
X14270548Y-15406309D01*
X14441976Y-15463452D02*
X14461024Y-15472976D01*
X14461024Y-15472976D02*
X14499119Y-15472976D01*
X14499119Y-15472976D02*
X14518167Y-15463452D01*
X14518167Y-15463452D02*
X14527691Y-15444405D01*
X14527691Y-15444405D02*
X14527691Y-15434881D01*
X14527691Y-15434881D02*
X14518167Y-15415833D01*
X14518167Y-15415833D02*
X14499119Y-15406309D01*
X14499119Y-15406309D02*
X14470548Y-15406309D01*
X14470548Y-15406309D02*
X14451500Y-15396786D01*
X14451500Y-15396786D02*
X14441976Y-15377738D01*
X14441976Y-15377738D02*
X14441976Y-15368214D01*
X14441976Y-15368214D02*
X14451500Y-15349167D01*
X14451500Y-15349167D02*
X14470548Y-15339643D01*
X14470548Y-15339643D02*
X14499119Y-15339643D01*
X14499119Y-15339643D02*
X14518167Y-15349167D01*
X14594357Y-15549167D02*
X14603881Y-15539643D01*
X14603881Y-15539643D02*
X14622929Y-15511071D01*
X14622929Y-15511071D02*
X14632453Y-15492024D01*
X14632453Y-15492024D02*
X14641976Y-15463452D01*
X14641976Y-15463452D02*
X14651500Y-15415833D01*
X14651500Y-15415833D02*
X14651500Y-15377738D01*
X14651500Y-15377738D02*
X14641976Y-15330119D01*
X14641976Y-15330119D02*
X14632453Y-15301548D01*
X14632453Y-15301548D02*
X14622929Y-15282500D01*
X14622929Y-15282500D02*
X14603881Y-15253928D01*
X14603881Y-15253928D02*
X14594357Y-15244405D01*
M02*
