M48
; DRILL file {KiCad (7.0.0)} date Thu Jul  6 21:55:19 2023
; FORMAT={-:-/ absolute / metric / decimal}
; #@! TF.CreationDate,2023-07-06T21:55:19+02:00
; #@! TF.GenerationSoftware,Kicad,Pcbnew,(7.0.0)
; #@! TF.FileFunction,Plated,1,2,PTH
FMAT,2
METRIC
; #@! TA.AperFunction,Plated,PTH,ViaDrill
T1C0.400
; #@! TA.AperFunction,Plated,PTH,ComponentDrill
T2C0.800
; #@! TA.AperFunction,Plated,PTH,ComponentDrill
T3C1.000
%
G90
G05
T1
X116.967Y-110.744
X118.237Y-113.284
X120.777Y-107.569
X122.047Y-114.554
X124.587Y-117.094
X124.587Y-128.524
X130.937Y-114.554
X138.557Y-63.754
X146.177Y-56.769
X146.812Y-80.264
X146.812Y-112.014
X148.082Y-84.074
X148.082Y-105.664
X148.082Y-114.554
X148.082Y-121.539
X148.082Y-122.809
X148.082Y-124.079
X149.352Y-61.214
X149.352Y-86.614
X149.352Y-104.394
X149.352Y-117.094
X150.622Y-62.484
X150.622Y-89.154
X150.622Y-103.124
X150.622Y-119.634
X151.892Y-91.694
X151.892Y-101.854
X151.892Y-122.174
X153.162Y-94.234
X153.162Y-100.584
X153.162Y-124.714
X154.432Y-96.774
X154.432Y-99.314
X154.432Y-127.254
X155.702Y-98.044
X155.702Y-129.794
X156.972Y-95.504
X156.972Y-101.854
X158.242Y-76.454
X162.052Y-82.804
X162.052Y-103.124
X165.862Y-52.324
X165.862Y-82.804
X176.022Y-51.054
X176.022Y-81.534
X176.022Y-112.014
T2
X113.157Y-75.184
X113.157Y-85.344
X116.967Y-72.644
X116.967Y-82.804
X120.777Y-117.094
X120.777Y-119.634
X120.777Y-122.174
X120.777Y-124.714
X120.777Y-127.254
X120.777Y-129.794
X120.777Y-132.334
X120.777Y-134.874
X122.587Y-51.054
X124.587Y-51.054
X125.897Y-113.284
X126.397Y-107.569
X128.397Y-107.569
X128.397Y-113.284
X128.397Y-117.094
X128.397Y-119.634
X128.397Y-122.174
X128.397Y-124.714
X128.397Y-127.254
X128.397Y-129.794
X128.397Y-132.334
X128.397Y-134.874
X129.667Y-51.054
X129.667Y-61.214
X133.477Y-51.054
X133.477Y-53.594
X133.477Y-56.134
X133.477Y-58.674
X133.477Y-61.214
X133.477Y-63.754
X133.477Y-66.294
X133.477Y-68.834
X133.477Y-77.724
X133.477Y-80.264
X133.477Y-82.804
X133.477Y-85.344
X133.477Y-87.884
X133.477Y-90.424
X133.477Y-92.964
X133.477Y-117.094
X133.477Y-119.634
X133.477Y-122.174
X133.477Y-124.714
X133.477Y-127.254
X133.477Y-129.794
X133.477Y-132.334
X133.477Y-134.874
X138.597Y-47.244
X138.597Y-73.914
X138.597Y-113.284
X141.097Y-47.244
X141.097Y-51.054
X141.097Y-53.594
X141.097Y-56.134
X141.097Y-58.674
X141.097Y-61.214
X141.097Y-63.754
X141.097Y-66.294
X141.097Y-68.834
X141.097Y-73.914
X141.097Y-77.724
X141.097Y-80.264
X141.097Y-82.804
X141.097Y-85.344
X141.097Y-87.884
X141.097Y-90.424
X141.097Y-92.964
X141.097Y-113.284
X141.097Y-117.094
X141.097Y-119.634
X141.097Y-122.174
X141.097Y-124.714
X141.097Y-127.254
X141.097Y-129.794
X141.097Y-132.334
X141.097Y-134.874
X159.512Y-51.054
X159.512Y-53.594
X159.512Y-56.134
X159.512Y-58.674
X159.512Y-61.214
X159.512Y-63.754
X159.512Y-66.294
X159.512Y-68.834
X159.512Y-71.374
X159.512Y-73.914
X159.512Y-81.534
X159.512Y-84.074
X159.512Y-86.614
X159.512Y-89.154
X159.512Y-91.694
X159.512Y-94.234
X159.512Y-96.774
X159.512Y-99.314
X159.512Y-101.854
X159.512Y-104.394
X159.512Y-112.014
X159.512Y-114.554
X159.512Y-117.094
X159.512Y-119.634
X159.512Y-122.174
X159.512Y-124.714
X159.512Y-127.254
X159.512Y-129.794
X159.512Y-132.334
X159.512Y-134.874
X164.632Y-47.244
X164.632Y-77.724
X164.632Y-108.204
X167.132Y-47.244
X167.132Y-51.054
X167.132Y-53.594
X167.132Y-56.134
X167.132Y-58.674
X167.132Y-61.214
X167.132Y-63.754
X167.132Y-66.294
X167.132Y-68.834
X167.132Y-71.374
X167.132Y-73.914
X167.132Y-77.724
X167.132Y-81.534
X167.132Y-84.074
X167.132Y-86.614
X167.132Y-89.154
X167.132Y-91.694
X167.132Y-94.234
X167.132Y-96.774
X167.132Y-99.314
X167.132Y-101.854
X167.132Y-104.394
X167.132Y-108.204
X167.132Y-112.014
X167.132Y-114.554
X167.132Y-117.094
X167.132Y-119.634
X167.132Y-122.174
X167.132Y-124.714
X167.132Y-127.254
X167.132Y-129.794
X167.132Y-132.334
X167.132Y-134.874
X172.212Y-51.054
X172.212Y-53.594
X172.212Y-56.134
X172.212Y-58.674
X172.212Y-61.214
X172.212Y-63.754
X172.212Y-66.294
X172.212Y-68.834
X172.212Y-71.374
X172.212Y-73.914
X172.212Y-81.534
X172.212Y-84.074
X172.212Y-86.614
X172.212Y-89.154
X172.212Y-91.694
X172.212Y-94.234
X172.212Y-96.774
X172.212Y-99.314
X172.212Y-101.854
X172.212Y-104.394
X172.212Y-112.014
X172.212Y-114.554
X172.212Y-117.094
X172.212Y-119.634
X172.212Y-122.174
X172.212Y-124.714
X172.212Y-127.254
X172.212Y-129.794
X172.212Y-132.334
X172.212Y-134.874
X177.332Y-47.244
X177.332Y-77.724
X177.332Y-108.204
X179.832Y-47.244
X179.832Y-51.054
X179.832Y-53.594
X179.832Y-56.134
X179.832Y-58.674
X179.832Y-61.214
X179.832Y-63.754
X179.832Y-66.294
X179.832Y-68.834
X179.832Y-71.374
X179.832Y-73.914
X179.832Y-77.724
X179.832Y-81.534
X179.832Y-84.074
X179.832Y-86.614
X179.832Y-89.154
X179.832Y-91.694
X179.832Y-94.234
X179.832Y-96.774
X179.832Y-99.314
X179.832Y-101.854
X179.832Y-104.394
X179.832Y-108.204
X179.832Y-112.014
X179.832Y-114.554
X179.832Y-117.094
X179.832Y-119.634
X179.832Y-122.174
X179.832Y-124.714
X179.832Y-127.254
X179.832Y-129.794
X179.832Y-132.334
X179.832Y-134.874
T3
X104.902Y-67.564
X104.902Y-70.104
X104.902Y-72.644
X104.902Y-75.184
X104.902Y-77.724
X104.902Y-80.264
X104.902Y-82.804
X104.902Y-85.344
X104.902Y-87.884
X104.902Y-90.424
X104.902Y-92.964
X104.902Y-95.504
X104.902Y-98.044
X104.902Y-100.584
X104.902Y-103.124
X104.902Y-105.664
X104.902Y-108.204
X104.902Y-110.744
X104.902Y-113.284
X104.902Y-115.824
X107.442Y-67.564
X107.442Y-70.104
X107.442Y-72.644
X107.442Y-75.184
X107.442Y-77.724
X107.442Y-80.264
X107.442Y-82.804
X107.442Y-85.344
X107.442Y-87.884
X107.442Y-90.424
X107.442Y-92.964
X107.442Y-95.504
X107.442Y-98.044
X107.442Y-100.584
X107.442Y-103.124
X107.442Y-105.664
X107.442Y-108.204
X107.442Y-110.744
X107.442Y-113.284
X107.442Y-115.824
X113.792Y-103.124
X113.792Y-105.664
X113.792Y-108.204
X113.792Y-110.744
X113.792Y-113.284
X113.792Y-115.824
X113.792Y-118.364
X119.507Y-44.704
X122.047Y-44.704
X124.587Y-44.704
X127.127Y-44.704
X196.342Y-59.944
X196.342Y-62.484
X196.342Y-65.024
X196.342Y-67.564
X196.342Y-70.104
X196.342Y-72.644
X196.342Y-75.184
X196.342Y-77.724
X196.342Y-80.264
X196.342Y-82.804
X196.342Y-85.344
X196.342Y-87.884
X196.342Y-90.424
X196.342Y-92.964
X196.342Y-95.504
X196.342Y-98.044
X196.342Y-100.584
X196.342Y-103.124
X196.342Y-105.664
X196.342Y-108.204
X196.342Y-110.744
X196.342Y-113.284
X196.342Y-115.824
X196.342Y-118.364
X196.342Y-120.904
X196.342Y-123.444
T0
M30
