%TF.GenerationSoftware,KiCad,Pcbnew,(7.0.0)*%
%TF.CreationDate,2023-07-06T21:55:20+02:00*%
%TF.ProjectId,cdp-io,6364702d-696f-42e6-9b69-6361645f7063,1*%
%TF.SameCoordinates,Original*%
%TF.FileFunction,Drillmap*%
%TF.FilePolarity,Positive*%
%FSLAX45Y45*%
G04 Gerber Fmt 4.5, Leading zero omitted, Abs format (unit mm)*
G04 Created by KiCad (PCBNEW (7.0.0)) date 2023-07-06 21:55:20*
%MOMM*%
%LPD*%
G01*
G04 APERTURE LIST*
%ADD10C,0.100000*%
%ADD11C,0.200000*%
%ADD12C,0.040000*%
%ADD13C,0.080000*%
G04 APERTURE END LIST*
D10*
X9982200Y-4216400D02*
X19888200Y-4216400D01*
X19888200Y-4216400D02*
X19888200Y-14122400D01*
X19888200Y-14122400D02*
X9982200Y-14122400D01*
X9982200Y-14122400D02*
X9982200Y-4216400D01*
D11*
D12*
X11676700Y-11054400D02*
X11716700Y-11094400D01*
X11716700Y-11054400D02*
X11676700Y-11094400D01*
X11803700Y-11308400D02*
X11843700Y-11348400D01*
X11843700Y-11308400D02*
X11803700Y-11348400D01*
X12057700Y-10736900D02*
X12097700Y-10776900D01*
X12097700Y-10736900D02*
X12057700Y-10776900D01*
X12184700Y-11435400D02*
X12224700Y-11475400D01*
X12224700Y-11435400D02*
X12184700Y-11475400D01*
X12438700Y-11689400D02*
X12478700Y-11729400D01*
X12478700Y-11689400D02*
X12438700Y-11729400D01*
X12438700Y-12832400D02*
X12478700Y-12872400D01*
X12478700Y-12832400D02*
X12438700Y-12872400D01*
X13073700Y-11435400D02*
X13113700Y-11475400D01*
X13113700Y-11435400D02*
X13073700Y-11475400D01*
X13835700Y-6355400D02*
X13875700Y-6395400D01*
X13875700Y-6355400D02*
X13835700Y-6395400D01*
X14597700Y-5656900D02*
X14637700Y-5696900D01*
X14637700Y-5656900D02*
X14597700Y-5696900D01*
X14661200Y-8006400D02*
X14701200Y-8046400D01*
X14701200Y-8006400D02*
X14661200Y-8046400D01*
X14661200Y-11181400D02*
X14701200Y-11221400D01*
X14701200Y-11181400D02*
X14661200Y-11221400D01*
X14788200Y-8387400D02*
X14828200Y-8427400D01*
X14828200Y-8387400D02*
X14788200Y-8427400D01*
X14788200Y-10546400D02*
X14828200Y-10586400D01*
X14828200Y-10546400D02*
X14788200Y-10586400D01*
X14788200Y-11435400D02*
X14828200Y-11475400D01*
X14828200Y-11435400D02*
X14788200Y-11475400D01*
X14788200Y-12133900D02*
X14828200Y-12173900D01*
X14828200Y-12133900D02*
X14788200Y-12173900D01*
X14788200Y-12260900D02*
X14828200Y-12300900D01*
X14828200Y-12260900D02*
X14788200Y-12300900D01*
X14788200Y-12387900D02*
X14828200Y-12427900D01*
X14828200Y-12387900D02*
X14788200Y-12427900D01*
X14915200Y-6101400D02*
X14955200Y-6141400D01*
X14955200Y-6101400D02*
X14915200Y-6141400D01*
X14915200Y-8641400D02*
X14955200Y-8681400D01*
X14955200Y-8641400D02*
X14915200Y-8681400D01*
X14915200Y-10419400D02*
X14955200Y-10459400D01*
X14955200Y-10419400D02*
X14915200Y-10459400D01*
X14915200Y-11689400D02*
X14955200Y-11729400D01*
X14955200Y-11689400D02*
X14915200Y-11729400D01*
X15042200Y-6228400D02*
X15082200Y-6268400D01*
X15082200Y-6228400D02*
X15042200Y-6268400D01*
X15042200Y-8895400D02*
X15082200Y-8935400D01*
X15082200Y-8895400D02*
X15042200Y-8935400D01*
X15042200Y-10292400D02*
X15082200Y-10332400D01*
X15082200Y-10292400D02*
X15042200Y-10332400D01*
X15042200Y-11943400D02*
X15082200Y-11983400D01*
X15082200Y-11943400D02*
X15042200Y-11983400D01*
X15169200Y-9149400D02*
X15209200Y-9189400D01*
X15209200Y-9149400D02*
X15169200Y-9189400D01*
X15169200Y-10165400D02*
X15209200Y-10205400D01*
X15209200Y-10165400D02*
X15169200Y-10205400D01*
X15169200Y-12197400D02*
X15209200Y-12237400D01*
X15209200Y-12197400D02*
X15169200Y-12237400D01*
X15296200Y-9403400D02*
X15336200Y-9443400D01*
X15336200Y-9403400D02*
X15296200Y-9443400D01*
X15296200Y-10038400D02*
X15336200Y-10078400D01*
X15336200Y-10038400D02*
X15296200Y-10078400D01*
X15296200Y-12451400D02*
X15336200Y-12491400D01*
X15336200Y-12451400D02*
X15296200Y-12491400D01*
X15423200Y-9657400D02*
X15463200Y-9697400D01*
X15463200Y-9657400D02*
X15423200Y-9697400D01*
X15423200Y-9911400D02*
X15463200Y-9951400D01*
X15463200Y-9911400D02*
X15423200Y-9951400D01*
X15423200Y-12705400D02*
X15463200Y-12745400D01*
X15463200Y-12705400D02*
X15423200Y-12745400D01*
X15550200Y-9784400D02*
X15590200Y-9824400D01*
X15590200Y-9784400D02*
X15550200Y-9824400D01*
X15550200Y-12959400D02*
X15590200Y-12999400D01*
X15590200Y-12959400D02*
X15550200Y-12999400D01*
X15677200Y-9530400D02*
X15717200Y-9570400D01*
X15717200Y-9530400D02*
X15677200Y-9570400D01*
X15677200Y-10165400D02*
X15717200Y-10205400D01*
X15717200Y-10165400D02*
X15677200Y-10205400D01*
X15804200Y-7625400D02*
X15844200Y-7665400D01*
X15844200Y-7625400D02*
X15804200Y-7665400D01*
X16185200Y-8260400D02*
X16225200Y-8300400D01*
X16225200Y-8260400D02*
X16185200Y-8300400D01*
X16185200Y-10292400D02*
X16225200Y-10332400D01*
X16225200Y-10292400D02*
X16185200Y-10332400D01*
X16566200Y-5212400D02*
X16606200Y-5252400D01*
X16606200Y-5212400D02*
X16566200Y-5252400D01*
X16566200Y-8260400D02*
X16606200Y-8300400D01*
X16606200Y-8260400D02*
X16566200Y-8300400D01*
X17582200Y-5085400D02*
X17622200Y-5125400D01*
X17622200Y-5085400D02*
X17582200Y-5125400D01*
X17582200Y-8133400D02*
X17622200Y-8173400D01*
X17622200Y-8133400D02*
X17582200Y-8173400D01*
X17582200Y-11181400D02*
X17622200Y-11221400D01*
X17622200Y-11181400D02*
X17582200Y-11221400D01*
D13*
X11355700Y-7518400D02*
G75*
G03*
X11355700Y-7518400I-40000J0D01*
G01*
X11355700Y-8534400D02*
G75*
G03*
X11355700Y-8534400I-40000J0D01*
G01*
X11736700Y-7264400D02*
G75*
G03*
X11736700Y-7264400I-40000J0D01*
G01*
X11736700Y-8280400D02*
G75*
G03*
X11736700Y-8280400I-40000J0D01*
G01*
X12117700Y-11709400D02*
G75*
G03*
X12117700Y-11709400I-40000J0D01*
G01*
X12117700Y-11963400D02*
G75*
G03*
X12117700Y-11963400I-40000J0D01*
G01*
X12117700Y-12217400D02*
G75*
G03*
X12117700Y-12217400I-40000J0D01*
G01*
X12117700Y-12471400D02*
G75*
G03*
X12117700Y-12471400I-40000J0D01*
G01*
X12117700Y-12725400D02*
G75*
G03*
X12117700Y-12725400I-40000J0D01*
G01*
X12117700Y-12979400D02*
G75*
G03*
X12117700Y-12979400I-40000J0D01*
G01*
X12117700Y-13233400D02*
G75*
G03*
X12117700Y-13233400I-40000J0D01*
G01*
X12117700Y-13487400D02*
G75*
G03*
X12117700Y-13487400I-40000J0D01*
G01*
X12298700Y-5105400D02*
G75*
G03*
X12298700Y-5105400I-40000J0D01*
G01*
X12498700Y-5105400D02*
G75*
G03*
X12498700Y-5105400I-40000J0D01*
G01*
X12629700Y-11328400D02*
G75*
G03*
X12629700Y-11328400I-40000J0D01*
G01*
X12679700Y-10756900D02*
G75*
G03*
X12679700Y-10756900I-40000J0D01*
G01*
X12879700Y-10756900D02*
G75*
G03*
X12879700Y-10756900I-40000J0D01*
G01*
X12879700Y-11328400D02*
G75*
G03*
X12879700Y-11328400I-40000J0D01*
G01*
X12879700Y-11709400D02*
G75*
G03*
X12879700Y-11709400I-40000J0D01*
G01*
X12879700Y-11963400D02*
G75*
G03*
X12879700Y-11963400I-40000J0D01*
G01*
X12879700Y-12217400D02*
G75*
G03*
X12879700Y-12217400I-40000J0D01*
G01*
X12879700Y-12471400D02*
G75*
G03*
X12879700Y-12471400I-40000J0D01*
G01*
X12879700Y-12725400D02*
G75*
G03*
X12879700Y-12725400I-40000J0D01*
G01*
X12879700Y-12979400D02*
G75*
G03*
X12879700Y-12979400I-40000J0D01*
G01*
X12879700Y-13233400D02*
G75*
G03*
X12879700Y-13233400I-40000J0D01*
G01*
X12879700Y-13487400D02*
G75*
G03*
X12879700Y-13487400I-40000J0D01*
G01*
X13006700Y-5105400D02*
G75*
G03*
X13006700Y-5105400I-40000J0D01*
G01*
X13006700Y-6121400D02*
G75*
G03*
X13006700Y-6121400I-40000J0D01*
G01*
X13387700Y-5105400D02*
G75*
G03*
X13387700Y-5105400I-40000J0D01*
G01*
X13387700Y-5359400D02*
G75*
G03*
X13387700Y-5359400I-40000J0D01*
G01*
X13387700Y-5613400D02*
G75*
G03*
X13387700Y-5613400I-40000J0D01*
G01*
X13387700Y-5867400D02*
G75*
G03*
X13387700Y-5867400I-40000J0D01*
G01*
X13387700Y-6121400D02*
G75*
G03*
X13387700Y-6121400I-40000J0D01*
G01*
X13387700Y-6375400D02*
G75*
G03*
X13387700Y-6375400I-40000J0D01*
G01*
X13387700Y-6629400D02*
G75*
G03*
X13387700Y-6629400I-40000J0D01*
G01*
X13387700Y-6883400D02*
G75*
G03*
X13387700Y-6883400I-40000J0D01*
G01*
X13387700Y-7772400D02*
G75*
G03*
X13387700Y-7772400I-40000J0D01*
G01*
X13387700Y-8026400D02*
G75*
G03*
X13387700Y-8026400I-40000J0D01*
G01*
X13387700Y-8280400D02*
G75*
G03*
X13387700Y-8280400I-40000J0D01*
G01*
X13387700Y-8534400D02*
G75*
G03*
X13387700Y-8534400I-40000J0D01*
G01*
X13387700Y-8788400D02*
G75*
G03*
X13387700Y-8788400I-40000J0D01*
G01*
X13387700Y-9042400D02*
G75*
G03*
X13387700Y-9042400I-40000J0D01*
G01*
X13387700Y-9296400D02*
G75*
G03*
X13387700Y-9296400I-40000J0D01*
G01*
X13387700Y-11709400D02*
G75*
G03*
X13387700Y-11709400I-40000J0D01*
G01*
X13387700Y-11963400D02*
G75*
G03*
X13387700Y-11963400I-40000J0D01*
G01*
X13387700Y-12217400D02*
G75*
G03*
X13387700Y-12217400I-40000J0D01*
G01*
X13387700Y-12471400D02*
G75*
G03*
X13387700Y-12471400I-40000J0D01*
G01*
X13387700Y-12725400D02*
G75*
G03*
X13387700Y-12725400I-40000J0D01*
G01*
X13387700Y-12979400D02*
G75*
G03*
X13387700Y-12979400I-40000J0D01*
G01*
X13387700Y-13233400D02*
G75*
G03*
X13387700Y-13233400I-40000J0D01*
G01*
X13387700Y-13487400D02*
G75*
G03*
X13387700Y-13487400I-40000J0D01*
G01*
X13899700Y-4724400D02*
G75*
G03*
X13899700Y-4724400I-40000J0D01*
G01*
X13899700Y-7391400D02*
G75*
G03*
X13899700Y-7391400I-40000J0D01*
G01*
X13899700Y-11328400D02*
G75*
G03*
X13899700Y-11328400I-40000J0D01*
G01*
X14149700Y-4724400D02*
G75*
G03*
X14149700Y-4724400I-40000J0D01*
G01*
X14149700Y-5105400D02*
G75*
G03*
X14149700Y-5105400I-40000J0D01*
G01*
X14149700Y-5359400D02*
G75*
G03*
X14149700Y-5359400I-40000J0D01*
G01*
X14149700Y-5613400D02*
G75*
G03*
X14149700Y-5613400I-40000J0D01*
G01*
X14149700Y-5867400D02*
G75*
G03*
X14149700Y-5867400I-40000J0D01*
G01*
X14149700Y-6121400D02*
G75*
G03*
X14149700Y-6121400I-40000J0D01*
G01*
X14149700Y-6375400D02*
G75*
G03*
X14149700Y-6375400I-40000J0D01*
G01*
X14149700Y-6629400D02*
G75*
G03*
X14149700Y-6629400I-40000J0D01*
G01*
X14149700Y-6883400D02*
G75*
G03*
X14149700Y-6883400I-40000J0D01*
G01*
X14149700Y-7391400D02*
G75*
G03*
X14149700Y-7391400I-40000J0D01*
G01*
X14149700Y-7772400D02*
G75*
G03*
X14149700Y-7772400I-40000J0D01*
G01*
X14149700Y-8026400D02*
G75*
G03*
X14149700Y-8026400I-40000J0D01*
G01*
X14149700Y-8280400D02*
G75*
G03*
X14149700Y-8280400I-40000J0D01*
G01*
X14149700Y-8534400D02*
G75*
G03*
X14149700Y-8534400I-40000J0D01*
G01*
X14149700Y-8788400D02*
G75*
G03*
X14149700Y-8788400I-40000J0D01*
G01*
X14149700Y-9042400D02*
G75*
G03*
X14149700Y-9042400I-40000J0D01*
G01*
X14149700Y-9296400D02*
G75*
G03*
X14149700Y-9296400I-40000J0D01*
G01*
X14149700Y-11328400D02*
G75*
G03*
X14149700Y-11328400I-40000J0D01*
G01*
X14149700Y-11709400D02*
G75*
G03*
X14149700Y-11709400I-40000J0D01*
G01*
X14149700Y-11963400D02*
G75*
G03*
X14149700Y-11963400I-40000J0D01*
G01*
X14149700Y-12217400D02*
G75*
G03*
X14149700Y-12217400I-40000J0D01*
G01*
X14149700Y-12471400D02*
G75*
G03*
X14149700Y-12471400I-40000J0D01*
G01*
X14149700Y-12725400D02*
G75*
G03*
X14149700Y-12725400I-40000J0D01*
G01*
X14149700Y-12979400D02*
G75*
G03*
X14149700Y-12979400I-40000J0D01*
G01*
X14149700Y-13233400D02*
G75*
G03*
X14149700Y-13233400I-40000J0D01*
G01*
X14149700Y-13487400D02*
G75*
G03*
X14149700Y-13487400I-40000J0D01*
G01*
X15991200Y-5105400D02*
G75*
G03*
X15991200Y-5105400I-40000J0D01*
G01*
X15991200Y-5359400D02*
G75*
G03*
X15991200Y-5359400I-40000J0D01*
G01*
X15991200Y-5613400D02*
G75*
G03*
X15991200Y-5613400I-40000J0D01*
G01*
X15991200Y-5867400D02*
G75*
G03*
X15991200Y-5867400I-40000J0D01*
G01*
X15991200Y-6121400D02*
G75*
G03*
X15991200Y-6121400I-40000J0D01*
G01*
X15991200Y-6375400D02*
G75*
G03*
X15991200Y-6375400I-40000J0D01*
G01*
X15991200Y-6629400D02*
G75*
G03*
X15991200Y-6629400I-40000J0D01*
G01*
X15991200Y-6883400D02*
G75*
G03*
X15991200Y-6883400I-40000J0D01*
G01*
X15991200Y-7137400D02*
G75*
G03*
X15991200Y-7137400I-40000J0D01*
G01*
X15991200Y-7391400D02*
G75*
G03*
X15991200Y-7391400I-40000J0D01*
G01*
X15991200Y-8153400D02*
G75*
G03*
X15991200Y-8153400I-40000J0D01*
G01*
X15991200Y-8407400D02*
G75*
G03*
X15991200Y-8407400I-40000J0D01*
G01*
X15991200Y-8661400D02*
G75*
G03*
X15991200Y-8661400I-40000J0D01*
G01*
X15991200Y-8915400D02*
G75*
G03*
X15991200Y-8915400I-40000J0D01*
G01*
X15991200Y-9169400D02*
G75*
G03*
X15991200Y-9169400I-40000J0D01*
G01*
X15991200Y-9423400D02*
G75*
G03*
X15991200Y-9423400I-40000J0D01*
G01*
X15991200Y-9677400D02*
G75*
G03*
X15991200Y-9677400I-40000J0D01*
G01*
X15991200Y-9931400D02*
G75*
G03*
X15991200Y-9931400I-40000J0D01*
G01*
X15991200Y-10185400D02*
G75*
G03*
X15991200Y-10185400I-40000J0D01*
G01*
X15991200Y-10439400D02*
G75*
G03*
X15991200Y-10439400I-40000J0D01*
G01*
X15991200Y-11201400D02*
G75*
G03*
X15991200Y-11201400I-40000J0D01*
G01*
X15991200Y-11455400D02*
G75*
G03*
X15991200Y-11455400I-40000J0D01*
G01*
X15991200Y-11709400D02*
G75*
G03*
X15991200Y-11709400I-40000J0D01*
G01*
X15991200Y-11963400D02*
G75*
G03*
X15991200Y-11963400I-40000J0D01*
G01*
X15991200Y-12217400D02*
G75*
G03*
X15991200Y-12217400I-40000J0D01*
G01*
X15991200Y-12471400D02*
G75*
G03*
X15991200Y-12471400I-40000J0D01*
G01*
X15991200Y-12725400D02*
G75*
G03*
X15991200Y-12725400I-40000J0D01*
G01*
X15991200Y-12979400D02*
G75*
G03*
X15991200Y-12979400I-40000J0D01*
G01*
X15991200Y-13233400D02*
G75*
G03*
X15991200Y-13233400I-40000J0D01*
G01*
X15991200Y-13487400D02*
G75*
G03*
X15991200Y-13487400I-40000J0D01*
G01*
X16503200Y-4724400D02*
G75*
G03*
X16503200Y-4724400I-40000J0D01*
G01*
X16503200Y-7772400D02*
G75*
G03*
X16503200Y-7772400I-40000J0D01*
G01*
X16503200Y-10820400D02*
G75*
G03*
X16503200Y-10820400I-40000J0D01*
G01*
X16753200Y-4724400D02*
G75*
G03*
X16753200Y-4724400I-40000J0D01*
G01*
X16753200Y-5105400D02*
G75*
G03*
X16753200Y-5105400I-40000J0D01*
G01*
X16753200Y-5359400D02*
G75*
G03*
X16753200Y-5359400I-40000J0D01*
G01*
X16753200Y-5613400D02*
G75*
G03*
X16753200Y-5613400I-40000J0D01*
G01*
X16753200Y-5867400D02*
G75*
G03*
X16753200Y-5867400I-40000J0D01*
G01*
X16753200Y-6121400D02*
G75*
G03*
X16753200Y-6121400I-40000J0D01*
G01*
X16753200Y-6375400D02*
G75*
G03*
X16753200Y-6375400I-40000J0D01*
G01*
X16753200Y-6629400D02*
G75*
G03*
X16753200Y-6629400I-40000J0D01*
G01*
X16753200Y-6883400D02*
G75*
G03*
X16753200Y-6883400I-40000J0D01*
G01*
X16753200Y-7137400D02*
G75*
G03*
X16753200Y-7137400I-40000J0D01*
G01*
X16753200Y-7391400D02*
G75*
G03*
X16753200Y-7391400I-40000J0D01*
G01*
X16753200Y-7772400D02*
G75*
G03*
X16753200Y-7772400I-40000J0D01*
G01*
X16753200Y-8153400D02*
G75*
G03*
X16753200Y-8153400I-40000J0D01*
G01*
X16753200Y-8407400D02*
G75*
G03*
X16753200Y-8407400I-40000J0D01*
G01*
X16753200Y-8661400D02*
G75*
G03*
X16753200Y-8661400I-40000J0D01*
G01*
X16753200Y-8915400D02*
G75*
G03*
X16753200Y-8915400I-40000J0D01*
G01*
X16753200Y-9169400D02*
G75*
G03*
X16753200Y-9169400I-40000J0D01*
G01*
X16753200Y-9423400D02*
G75*
G03*
X16753200Y-9423400I-40000J0D01*
G01*
X16753200Y-9677400D02*
G75*
G03*
X16753200Y-9677400I-40000J0D01*
G01*
X16753200Y-9931400D02*
G75*
G03*
X16753200Y-9931400I-40000J0D01*
G01*
X16753200Y-10185400D02*
G75*
G03*
X16753200Y-10185400I-40000J0D01*
G01*
X16753200Y-10439400D02*
G75*
G03*
X16753200Y-10439400I-40000J0D01*
G01*
X16753200Y-10820400D02*
G75*
G03*
X16753200Y-10820400I-40000J0D01*
G01*
X16753200Y-11201400D02*
G75*
G03*
X16753200Y-11201400I-40000J0D01*
G01*
X16753200Y-11455400D02*
G75*
G03*
X16753200Y-11455400I-40000J0D01*
G01*
X16753200Y-11709400D02*
G75*
G03*
X16753200Y-11709400I-40000J0D01*
G01*
X16753200Y-11963400D02*
G75*
G03*
X16753200Y-11963400I-40000J0D01*
G01*
X16753200Y-12217400D02*
G75*
G03*
X16753200Y-12217400I-40000J0D01*
G01*
X16753200Y-12471400D02*
G75*
G03*
X16753200Y-12471400I-40000J0D01*
G01*
X16753200Y-12725400D02*
G75*
G03*
X16753200Y-12725400I-40000J0D01*
G01*
X16753200Y-12979400D02*
G75*
G03*
X16753200Y-12979400I-40000J0D01*
G01*
X16753200Y-13233400D02*
G75*
G03*
X16753200Y-13233400I-40000J0D01*
G01*
X16753200Y-13487400D02*
G75*
G03*
X16753200Y-13487400I-40000J0D01*
G01*
X17261200Y-5105400D02*
G75*
G03*
X17261200Y-5105400I-40000J0D01*
G01*
X17261200Y-5359400D02*
G75*
G03*
X17261200Y-5359400I-40000J0D01*
G01*
X17261200Y-5613400D02*
G75*
G03*
X17261200Y-5613400I-40000J0D01*
G01*
X17261200Y-5867400D02*
G75*
G03*
X17261200Y-5867400I-40000J0D01*
G01*
X17261200Y-6121400D02*
G75*
G03*
X17261200Y-6121400I-40000J0D01*
G01*
X17261200Y-6375400D02*
G75*
G03*
X17261200Y-6375400I-40000J0D01*
G01*
X17261200Y-6629400D02*
G75*
G03*
X17261200Y-6629400I-40000J0D01*
G01*
X17261200Y-6883400D02*
G75*
G03*
X17261200Y-6883400I-40000J0D01*
G01*
X17261200Y-7137400D02*
G75*
G03*
X17261200Y-7137400I-40000J0D01*
G01*
X17261200Y-7391400D02*
G75*
G03*
X17261200Y-7391400I-40000J0D01*
G01*
X17261200Y-8153400D02*
G75*
G03*
X17261200Y-8153400I-40000J0D01*
G01*
X17261200Y-8407400D02*
G75*
G03*
X17261200Y-8407400I-40000J0D01*
G01*
X17261200Y-8661400D02*
G75*
G03*
X17261200Y-8661400I-40000J0D01*
G01*
X17261200Y-8915400D02*
G75*
G03*
X17261200Y-8915400I-40000J0D01*
G01*
X17261200Y-9169400D02*
G75*
G03*
X17261200Y-9169400I-40000J0D01*
G01*
X17261200Y-9423400D02*
G75*
G03*
X17261200Y-9423400I-40000J0D01*
G01*
X17261200Y-9677400D02*
G75*
G03*
X17261200Y-9677400I-40000J0D01*
G01*
X17261200Y-9931400D02*
G75*
G03*
X17261200Y-9931400I-40000J0D01*
G01*
X17261200Y-10185400D02*
G75*
G03*
X17261200Y-10185400I-40000J0D01*
G01*
X17261200Y-10439400D02*
G75*
G03*
X17261200Y-10439400I-40000J0D01*
G01*
X17261200Y-11201400D02*
G75*
G03*
X17261200Y-11201400I-40000J0D01*
G01*
X17261200Y-11455400D02*
G75*
G03*
X17261200Y-11455400I-40000J0D01*
G01*
X17261200Y-11709400D02*
G75*
G03*
X17261200Y-11709400I-40000J0D01*
G01*
X17261200Y-11963400D02*
G75*
G03*
X17261200Y-11963400I-40000J0D01*
G01*
X17261200Y-12217400D02*
G75*
G03*
X17261200Y-12217400I-40000J0D01*
G01*
X17261200Y-12471400D02*
G75*
G03*
X17261200Y-12471400I-40000J0D01*
G01*
X17261200Y-12725400D02*
G75*
G03*
X17261200Y-12725400I-40000J0D01*
G01*
X17261200Y-12979400D02*
G75*
G03*
X17261200Y-12979400I-40000J0D01*
G01*
X17261200Y-13233400D02*
G75*
G03*
X17261200Y-13233400I-40000J0D01*
G01*
X17261200Y-13487400D02*
G75*
G03*
X17261200Y-13487400I-40000J0D01*
G01*
X17773200Y-4724400D02*
G75*
G03*
X17773200Y-4724400I-40000J0D01*
G01*
X17773200Y-7772400D02*
G75*
G03*
X17773200Y-7772400I-40000J0D01*
G01*
X17773200Y-10820400D02*
G75*
G03*
X17773200Y-10820400I-40000J0D01*
G01*
X18023200Y-4724400D02*
G75*
G03*
X18023200Y-4724400I-40000J0D01*
G01*
X18023200Y-5105400D02*
G75*
G03*
X18023200Y-5105400I-40000J0D01*
G01*
X18023200Y-5359400D02*
G75*
G03*
X18023200Y-5359400I-40000J0D01*
G01*
X18023200Y-5613400D02*
G75*
G03*
X18023200Y-5613400I-40000J0D01*
G01*
X18023200Y-5867400D02*
G75*
G03*
X18023200Y-5867400I-40000J0D01*
G01*
X18023200Y-6121400D02*
G75*
G03*
X18023200Y-6121400I-40000J0D01*
G01*
X18023200Y-6375400D02*
G75*
G03*
X18023200Y-6375400I-40000J0D01*
G01*
X18023200Y-6629400D02*
G75*
G03*
X18023200Y-6629400I-40000J0D01*
G01*
X18023200Y-6883400D02*
G75*
G03*
X18023200Y-6883400I-40000J0D01*
G01*
X18023200Y-7137400D02*
G75*
G03*
X18023200Y-7137400I-40000J0D01*
G01*
X18023200Y-7391400D02*
G75*
G03*
X18023200Y-7391400I-40000J0D01*
G01*
X18023200Y-7772400D02*
G75*
G03*
X18023200Y-7772400I-40000J0D01*
G01*
X18023200Y-8153400D02*
G75*
G03*
X18023200Y-8153400I-40000J0D01*
G01*
X18023200Y-8407400D02*
G75*
G03*
X18023200Y-8407400I-40000J0D01*
G01*
X18023200Y-8661400D02*
G75*
G03*
X18023200Y-8661400I-40000J0D01*
G01*
X18023200Y-8915400D02*
G75*
G03*
X18023200Y-8915400I-40000J0D01*
G01*
X18023200Y-9169400D02*
G75*
G03*
X18023200Y-9169400I-40000J0D01*
G01*
X18023200Y-9423400D02*
G75*
G03*
X18023200Y-9423400I-40000J0D01*
G01*
X18023200Y-9677400D02*
G75*
G03*
X18023200Y-9677400I-40000J0D01*
G01*
X18023200Y-9931400D02*
G75*
G03*
X18023200Y-9931400I-40000J0D01*
G01*
X18023200Y-10185400D02*
G75*
G03*
X18023200Y-10185400I-40000J0D01*
G01*
X18023200Y-10439400D02*
G75*
G03*
X18023200Y-10439400I-40000J0D01*
G01*
X18023200Y-10820400D02*
G75*
G03*
X18023200Y-10820400I-40000J0D01*
G01*
X18023200Y-11201400D02*
G75*
G03*
X18023200Y-11201400I-40000J0D01*
G01*
X18023200Y-11455400D02*
G75*
G03*
X18023200Y-11455400I-40000J0D01*
G01*
X18023200Y-11709400D02*
G75*
G03*
X18023200Y-11709400I-40000J0D01*
G01*
X18023200Y-11963400D02*
G75*
G03*
X18023200Y-11963400I-40000J0D01*
G01*
X18023200Y-12217400D02*
G75*
G03*
X18023200Y-12217400I-40000J0D01*
G01*
X18023200Y-12471400D02*
G75*
G03*
X18023200Y-12471400I-40000J0D01*
G01*
X18023200Y-12725400D02*
G75*
G03*
X18023200Y-12725400I-40000J0D01*
G01*
X18023200Y-12979400D02*
G75*
G03*
X18023200Y-12979400I-40000J0D01*
G01*
X18023200Y-13233400D02*
G75*
G03*
X18023200Y-13233400I-40000J0D01*
G01*
X18023200Y-13487400D02*
G75*
G03*
X18023200Y-13487400I-40000J0D01*
G01*
D10*
X10490200Y-6706400D02*
X10490200Y-6806400D01*
X10440200Y-6756400D02*
X10540200Y-6756400D01*
X10490200Y-6960400D02*
X10490200Y-7060400D01*
X10440200Y-7010400D02*
X10540200Y-7010400D01*
X10490200Y-7214400D02*
X10490200Y-7314400D01*
X10440200Y-7264400D02*
X10540200Y-7264400D01*
X10490200Y-7468400D02*
X10490200Y-7568400D01*
X10440200Y-7518400D02*
X10540200Y-7518400D01*
X10490200Y-7722400D02*
X10490200Y-7822400D01*
X10440200Y-7772400D02*
X10540200Y-7772400D01*
X10490200Y-7976400D02*
X10490200Y-8076400D01*
X10440200Y-8026400D02*
X10540200Y-8026400D01*
X10490200Y-8230400D02*
X10490200Y-8330400D01*
X10440200Y-8280400D02*
X10540200Y-8280400D01*
X10490200Y-8484400D02*
X10490200Y-8584400D01*
X10440200Y-8534400D02*
X10540200Y-8534400D01*
X10490200Y-8738400D02*
X10490200Y-8838400D01*
X10440200Y-8788400D02*
X10540200Y-8788400D01*
X10490200Y-8992400D02*
X10490200Y-9092400D01*
X10440200Y-9042400D02*
X10540200Y-9042400D01*
X10490200Y-9246400D02*
X10490200Y-9346400D01*
X10440200Y-9296400D02*
X10540200Y-9296400D01*
X10490200Y-9500400D02*
X10490200Y-9600400D01*
X10440200Y-9550400D02*
X10540200Y-9550400D01*
X10490200Y-9754400D02*
X10490200Y-9854400D01*
X10440200Y-9804400D02*
X10540200Y-9804400D01*
X10490200Y-10008400D02*
X10490200Y-10108400D01*
X10440200Y-10058400D02*
X10540200Y-10058400D01*
X10490200Y-10262400D02*
X10490200Y-10362400D01*
X10440200Y-10312400D02*
X10540200Y-10312400D01*
X10490200Y-10516400D02*
X10490200Y-10616400D01*
X10440200Y-10566400D02*
X10540200Y-10566400D01*
X10490200Y-10770400D02*
X10490200Y-10870400D01*
X10440200Y-10820400D02*
X10540200Y-10820400D01*
X10490200Y-11024400D02*
X10490200Y-11124400D01*
X10440200Y-11074400D02*
X10540200Y-11074400D01*
X10490200Y-11278400D02*
X10490200Y-11378400D01*
X10440200Y-11328400D02*
X10540200Y-11328400D01*
X10490200Y-11532400D02*
X10490200Y-11632400D01*
X10440200Y-11582400D02*
X10540200Y-11582400D01*
X10744200Y-6706400D02*
X10744200Y-6806400D01*
X10694200Y-6756400D02*
X10794200Y-6756400D01*
X10744200Y-6960400D02*
X10744200Y-7060400D01*
X10694200Y-7010400D02*
X10794200Y-7010400D01*
X10744200Y-7214400D02*
X10744200Y-7314400D01*
X10694200Y-7264400D02*
X10794200Y-7264400D01*
X10744200Y-7468400D02*
X10744200Y-7568400D01*
X10694200Y-7518400D02*
X10794200Y-7518400D01*
X10744200Y-7722400D02*
X10744200Y-7822400D01*
X10694200Y-7772400D02*
X10794200Y-7772400D01*
X10744200Y-7976400D02*
X10744200Y-8076400D01*
X10694200Y-8026400D02*
X10794200Y-8026400D01*
X10744200Y-8230400D02*
X10744200Y-8330400D01*
X10694200Y-8280400D02*
X10794200Y-8280400D01*
X10744200Y-8484400D02*
X10744200Y-8584400D01*
X10694200Y-8534400D02*
X10794200Y-8534400D01*
X10744200Y-8738400D02*
X10744200Y-8838400D01*
X10694200Y-8788400D02*
X10794200Y-8788400D01*
X10744200Y-8992400D02*
X10744200Y-9092400D01*
X10694200Y-9042400D02*
X10794200Y-9042400D01*
X10744200Y-9246400D02*
X10744200Y-9346400D01*
X10694200Y-9296400D02*
X10794200Y-9296400D01*
X10744200Y-9500400D02*
X10744200Y-9600400D01*
X10694200Y-9550400D02*
X10794200Y-9550400D01*
X10744200Y-9754400D02*
X10744200Y-9854400D01*
X10694200Y-9804400D02*
X10794200Y-9804400D01*
X10744200Y-10008400D02*
X10744200Y-10108400D01*
X10694200Y-10058400D02*
X10794200Y-10058400D01*
X10744200Y-10262400D02*
X10744200Y-10362400D01*
X10694200Y-10312400D02*
X10794200Y-10312400D01*
X10744200Y-10516400D02*
X10744200Y-10616400D01*
X10694200Y-10566400D02*
X10794200Y-10566400D01*
X10744200Y-10770400D02*
X10744200Y-10870400D01*
X10694200Y-10820400D02*
X10794200Y-10820400D01*
X10744200Y-11024400D02*
X10744200Y-11124400D01*
X10694200Y-11074400D02*
X10794200Y-11074400D01*
X10744200Y-11278400D02*
X10744200Y-11378400D01*
X10694200Y-11328400D02*
X10794200Y-11328400D01*
X10744200Y-11532400D02*
X10744200Y-11632400D01*
X10694200Y-11582400D02*
X10794200Y-11582400D01*
X11379200Y-10262400D02*
X11379200Y-10362400D01*
X11329200Y-10312400D02*
X11429200Y-10312400D01*
X11379200Y-10516400D02*
X11379200Y-10616400D01*
X11329200Y-10566400D02*
X11429200Y-10566400D01*
X11379200Y-10770400D02*
X11379200Y-10870400D01*
X11329200Y-10820400D02*
X11429200Y-10820400D01*
X11379200Y-11024400D02*
X11379200Y-11124400D01*
X11329200Y-11074400D02*
X11429200Y-11074400D01*
X11379200Y-11278400D02*
X11379200Y-11378400D01*
X11329200Y-11328400D02*
X11429200Y-11328400D01*
X11379200Y-11532400D02*
X11379200Y-11632400D01*
X11329200Y-11582400D02*
X11429200Y-11582400D01*
X11379200Y-11786400D02*
X11379200Y-11886400D01*
X11329200Y-11836400D02*
X11429200Y-11836400D01*
X11950700Y-4420400D02*
X11950700Y-4520400D01*
X11900700Y-4470400D02*
X12000700Y-4470400D01*
X12204700Y-4420400D02*
X12204700Y-4520400D01*
X12154700Y-4470400D02*
X12254700Y-4470400D01*
X12458700Y-4420400D02*
X12458700Y-4520400D01*
X12408700Y-4470400D02*
X12508700Y-4470400D01*
X12712700Y-4420400D02*
X12712700Y-4520400D01*
X12662700Y-4470400D02*
X12762700Y-4470400D01*
X19634200Y-5944400D02*
X19634200Y-6044400D01*
X19584200Y-5994400D02*
X19684200Y-5994400D01*
X19634200Y-6198400D02*
X19634200Y-6298400D01*
X19584200Y-6248400D02*
X19684200Y-6248400D01*
X19634200Y-6452400D02*
X19634200Y-6552400D01*
X19584200Y-6502400D02*
X19684200Y-6502400D01*
X19634200Y-6706400D02*
X19634200Y-6806400D01*
X19584200Y-6756400D02*
X19684200Y-6756400D01*
X19634200Y-6960400D02*
X19634200Y-7060400D01*
X19584200Y-7010400D02*
X19684200Y-7010400D01*
X19634200Y-7214400D02*
X19634200Y-7314400D01*
X19584200Y-7264400D02*
X19684200Y-7264400D01*
X19634200Y-7468400D02*
X19634200Y-7568400D01*
X19584200Y-7518400D02*
X19684200Y-7518400D01*
X19634200Y-7722400D02*
X19634200Y-7822400D01*
X19584200Y-7772400D02*
X19684200Y-7772400D01*
X19634200Y-7976400D02*
X19634200Y-8076400D01*
X19584200Y-8026400D02*
X19684200Y-8026400D01*
X19634200Y-8230400D02*
X19634200Y-8330400D01*
X19584200Y-8280400D02*
X19684200Y-8280400D01*
X19634200Y-8484400D02*
X19634200Y-8584400D01*
X19584200Y-8534400D02*
X19684200Y-8534400D01*
X19634200Y-8738400D02*
X19634200Y-8838400D01*
X19584200Y-8788400D02*
X19684200Y-8788400D01*
X19634200Y-8992400D02*
X19634200Y-9092400D01*
X19584200Y-9042400D02*
X19684200Y-9042400D01*
X19634200Y-9246400D02*
X19634200Y-9346400D01*
X19584200Y-9296400D02*
X19684200Y-9296400D01*
X19634200Y-9500400D02*
X19634200Y-9600400D01*
X19584200Y-9550400D02*
X19684200Y-9550400D01*
X19634200Y-9754400D02*
X19634200Y-9854400D01*
X19584200Y-9804400D02*
X19684200Y-9804400D01*
X19634200Y-10008400D02*
X19634200Y-10108400D01*
X19584200Y-10058400D02*
X19684200Y-10058400D01*
X19634200Y-10262400D02*
X19634200Y-10362400D01*
X19584200Y-10312400D02*
X19684200Y-10312400D01*
X19634200Y-10516400D02*
X19634200Y-10616400D01*
X19584200Y-10566400D02*
X19684200Y-10566400D01*
X19634200Y-10770400D02*
X19634200Y-10870400D01*
X19584200Y-10820400D02*
X19684200Y-10820400D01*
X19634200Y-11024400D02*
X19634200Y-11124400D01*
X19584200Y-11074400D02*
X19684200Y-11074400D01*
X19634200Y-11278400D02*
X19634200Y-11378400D01*
X19584200Y-11328400D02*
X19684200Y-11328400D01*
X19634200Y-11532400D02*
X19634200Y-11632400D01*
X19584200Y-11582400D02*
X19684200Y-11582400D01*
X19634200Y-11786400D02*
X19634200Y-11886400D01*
X19584200Y-11836400D02*
X19684200Y-11836400D01*
X19634200Y-12040400D02*
X19634200Y-12140400D01*
X19584200Y-12090400D02*
X19684200Y-12090400D01*
X19634200Y-12294400D02*
X19634200Y-12394400D01*
X19584200Y-12344400D02*
X19684200Y-12344400D01*
D11*
X10224819Y-14420876D02*
X10224819Y-14220876D01*
X10224819Y-14220876D02*
X10272438Y-14220876D01*
X10272438Y-14220876D02*
X10301010Y-14230400D01*
X10301010Y-14230400D02*
X10320057Y-14249448D01*
X10320057Y-14249448D02*
X10329581Y-14268495D01*
X10329581Y-14268495D02*
X10339105Y-14306590D01*
X10339105Y-14306590D02*
X10339105Y-14335162D01*
X10339105Y-14335162D02*
X10329581Y-14373257D01*
X10329581Y-14373257D02*
X10320057Y-14392305D01*
X10320057Y-14392305D02*
X10301010Y-14411352D01*
X10301010Y-14411352D02*
X10272438Y-14420876D01*
X10272438Y-14420876D02*
X10224819Y-14420876D01*
X10424819Y-14420876D02*
X10424819Y-14287543D01*
X10424819Y-14325638D02*
X10434343Y-14306590D01*
X10434343Y-14306590D02*
X10443867Y-14297067D01*
X10443867Y-14297067D02*
X10462914Y-14287543D01*
X10462914Y-14287543D02*
X10481962Y-14287543D01*
X10548629Y-14420876D02*
X10548629Y-14287543D01*
X10548629Y-14220876D02*
X10539105Y-14230400D01*
X10539105Y-14230400D02*
X10548629Y-14239924D01*
X10548629Y-14239924D02*
X10558152Y-14230400D01*
X10558152Y-14230400D02*
X10548629Y-14220876D01*
X10548629Y-14220876D02*
X10548629Y-14239924D01*
X10672438Y-14420876D02*
X10653390Y-14411352D01*
X10653390Y-14411352D02*
X10643867Y-14392305D01*
X10643867Y-14392305D02*
X10643867Y-14220876D01*
X10777200Y-14420876D02*
X10758152Y-14411352D01*
X10758152Y-14411352D02*
X10748629Y-14392305D01*
X10748629Y-14392305D02*
X10748629Y-14220876D01*
X10973390Y-14420876D02*
X10973390Y-14220876D01*
X10973390Y-14220876D02*
X11040057Y-14363733D01*
X11040057Y-14363733D02*
X11106724Y-14220876D01*
X11106724Y-14220876D02*
X11106724Y-14420876D01*
X11287676Y-14420876D02*
X11287676Y-14316114D01*
X11287676Y-14316114D02*
X11278152Y-14297067D01*
X11278152Y-14297067D02*
X11259105Y-14287543D01*
X11259105Y-14287543D02*
X11221009Y-14287543D01*
X11221009Y-14287543D02*
X11201962Y-14297067D01*
X11287676Y-14411352D02*
X11268628Y-14420876D01*
X11268628Y-14420876D02*
X11221009Y-14420876D01*
X11221009Y-14420876D02*
X11201962Y-14411352D01*
X11201962Y-14411352D02*
X11192438Y-14392305D01*
X11192438Y-14392305D02*
X11192438Y-14373257D01*
X11192438Y-14373257D02*
X11201962Y-14354209D01*
X11201962Y-14354209D02*
X11221009Y-14344686D01*
X11221009Y-14344686D02*
X11268628Y-14344686D01*
X11268628Y-14344686D02*
X11287676Y-14335162D01*
X11382914Y-14287543D02*
X11382914Y-14487543D01*
X11382914Y-14297067D02*
X11401962Y-14287543D01*
X11401962Y-14287543D02*
X11440057Y-14287543D01*
X11440057Y-14287543D02*
X11459105Y-14297067D01*
X11459105Y-14297067D02*
X11468628Y-14306590D01*
X11468628Y-14306590D02*
X11478152Y-14325638D01*
X11478152Y-14325638D02*
X11478152Y-14382781D01*
X11478152Y-14382781D02*
X11468628Y-14401828D01*
X11468628Y-14401828D02*
X11459105Y-14411352D01*
X11459105Y-14411352D02*
X11440057Y-14420876D01*
X11440057Y-14420876D02*
X11401962Y-14420876D01*
X11401962Y-14420876D02*
X11382914Y-14411352D01*
X11563867Y-14401828D02*
X11573390Y-14411352D01*
X11573390Y-14411352D02*
X11563867Y-14420876D01*
X11563867Y-14420876D02*
X11554343Y-14411352D01*
X11554343Y-14411352D02*
X11563867Y-14401828D01*
X11563867Y-14401828D02*
X11563867Y-14420876D01*
X11563867Y-14297067D02*
X11573390Y-14306590D01*
X11573390Y-14306590D02*
X11563867Y-14316114D01*
X11563867Y-14316114D02*
X11554343Y-14306590D01*
X11554343Y-14306590D02*
X11563867Y-14297067D01*
X11563867Y-14297067D02*
X11563867Y-14316114D01*
D12*
X9937200Y-14747400D02*
X9977200Y-14787400D01*
X9977200Y-14747400D02*
X9937200Y-14787400D01*
D11*
X10262914Y-14640876D02*
X10281962Y-14640876D01*
X10281962Y-14640876D02*
X10301010Y-14650400D01*
X10301010Y-14650400D02*
X10310533Y-14659924D01*
X10310533Y-14659924D02*
X10320057Y-14678971D01*
X10320057Y-14678971D02*
X10329581Y-14717067D01*
X10329581Y-14717067D02*
X10329581Y-14764686D01*
X10329581Y-14764686D02*
X10320057Y-14802781D01*
X10320057Y-14802781D02*
X10310533Y-14821828D01*
X10310533Y-14821828D02*
X10301010Y-14831352D01*
X10301010Y-14831352D02*
X10281962Y-14840876D01*
X10281962Y-14840876D02*
X10262914Y-14840876D01*
X10262914Y-14840876D02*
X10243867Y-14831352D01*
X10243867Y-14831352D02*
X10234343Y-14821828D01*
X10234343Y-14821828D02*
X10224819Y-14802781D01*
X10224819Y-14802781D02*
X10215295Y-14764686D01*
X10215295Y-14764686D02*
X10215295Y-14717067D01*
X10215295Y-14717067D02*
X10224819Y-14678971D01*
X10224819Y-14678971D02*
X10234343Y-14659924D01*
X10234343Y-14659924D02*
X10243867Y-14650400D01*
X10243867Y-14650400D02*
X10262914Y-14640876D01*
X10415295Y-14821828D02*
X10424819Y-14831352D01*
X10424819Y-14831352D02*
X10415295Y-14840876D01*
X10415295Y-14840876D02*
X10405771Y-14831352D01*
X10405771Y-14831352D02*
X10415295Y-14821828D01*
X10415295Y-14821828D02*
X10415295Y-14840876D01*
X10596248Y-14707543D02*
X10596248Y-14840876D01*
X10548629Y-14631352D02*
X10501010Y-14774209D01*
X10501010Y-14774209D02*
X10624819Y-14774209D01*
X10739105Y-14640876D02*
X10758152Y-14640876D01*
X10758152Y-14640876D02*
X10777200Y-14650400D01*
X10777200Y-14650400D02*
X10786724Y-14659924D01*
X10786724Y-14659924D02*
X10796248Y-14678971D01*
X10796248Y-14678971D02*
X10805771Y-14717067D01*
X10805771Y-14717067D02*
X10805771Y-14764686D01*
X10805771Y-14764686D02*
X10796248Y-14802781D01*
X10796248Y-14802781D02*
X10786724Y-14821828D01*
X10786724Y-14821828D02*
X10777200Y-14831352D01*
X10777200Y-14831352D02*
X10758152Y-14840876D01*
X10758152Y-14840876D02*
X10739105Y-14840876D01*
X10739105Y-14840876D02*
X10720057Y-14831352D01*
X10720057Y-14831352D02*
X10710533Y-14821828D01*
X10710533Y-14821828D02*
X10701010Y-14802781D01*
X10701010Y-14802781D02*
X10691486Y-14764686D01*
X10691486Y-14764686D02*
X10691486Y-14717067D01*
X10691486Y-14717067D02*
X10701010Y-14678971D01*
X10701010Y-14678971D02*
X10710533Y-14659924D01*
X10710533Y-14659924D02*
X10720057Y-14650400D01*
X10720057Y-14650400D02*
X10739105Y-14640876D01*
X10929581Y-14640876D02*
X10948629Y-14640876D01*
X10948629Y-14640876D02*
X10967676Y-14650400D01*
X10967676Y-14650400D02*
X10977200Y-14659924D01*
X10977200Y-14659924D02*
X10986724Y-14678971D01*
X10986724Y-14678971D02*
X10996248Y-14717067D01*
X10996248Y-14717067D02*
X10996248Y-14764686D01*
X10996248Y-14764686D02*
X10986724Y-14802781D01*
X10986724Y-14802781D02*
X10977200Y-14821828D01*
X10977200Y-14821828D02*
X10967676Y-14831352D01*
X10967676Y-14831352D02*
X10948629Y-14840876D01*
X10948629Y-14840876D02*
X10929581Y-14840876D01*
X10929581Y-14840876D02*
X10910533Y-14831352D01*
X10910533Y-14831352D02*
X10901010Y-14821828D01*
X10901010Y-14821828D02*
X10891486Y-14802781D01*
X10891486Y-14802781D02*
X10881962Y-14764686D01*
X10881962Y-14764686D02*
X10881962Y-14717067D01*
X10881962Y-14717067D02*
X10891486Y-14678971D01*
X10891486Y-14678971D02*
X10901010Y-14659924D01*
X10901010Y-14659924D02*
X10910533Y-14650400D01*
X10910533Y-14650400D02*
X10929581Y-14640876D01*
X11081962Y-14840876D02*
X11081962Y-14707543D01*
X11081962Y-14726590D02*
X11091486Y-14717067D01*
X11091486Y-14717067D02*
X11110533Y-14707543D01*
X11110533Y-14707543D02*
X11139105Y-14707543D01*
X11139105Y-14707543D02*
X11158152Y-14717067D01*
X11158152Y-14717067D02*
X11167676Y-14736114D01*
X11167676Y-14736114D02*
X11167676Y-14840876D01*
X11167676Y-14736114D02*
X11177200Y-14717067D01*
X11177200Y-14717067D02*
X11196248Y-14707543D01*
X11196248Y-14707543D02*
X11224819Y-14707543D01*
X11224819Y-14707543D02*
X11243867Y-14717067D01*
X11243867Y-14717067D02*
X11253390Y-14736114D01*
X11253390Y-14736114D02*
X11253390Y-14840876D01*
X11348629Y-14840876D02*
X11348629Y-14707543D01*
X11348629Y-14726590D02*
X11358152Y-14717067D01*
X11358152Y-14717067D02*
X11377200Y-14707543D01*
X11377200Y-14707543D02*
X11405771Y-14707543D01*
X11405771Y-14707543D02*
X11424819Y-14717067D01*
X11424819Y-14717067D02*
X11434343Y-14736114D01*
X11434343Y-14736114D02*
X11434343Y-14840876D01*
X11434343Y-14736114D02*
X11443867Y-14717067D01*
X11443867Y-14717067D02*
X11462914Y-14707543D01*
X11462914Y-14707543D02*
X11491486Y-14707543D01*
X11491486Y-14707543D02*
X11510533Y-14717067D01*
X11510533Y-14717067D02*
X11520057Y-14736114D01*
X11520057Y-14736114D02*
X11520057Y-14840876D01*
X11878152Y-14631352D02*
X11706724Y-14888495D01*
X12102914Y-14640876D02*
X12121962Y-14640876D01*
X12121962Y-14640876D02*
X12141010Y-14650400D01*
X12141010Y-14650400D02*
X12150533Y-14659924D01*
X12150533Y-14659924D02*
X12160057Y-14678971D01*
X12160057Y-14678971D02*
X12169581Y-14717067D01*
X12169581Y-14717067D02*
X12169581Y-14764686D01*
X12169581Y-14764686D02*
X12160057Y-14802781D01*
X12160057Y-14802781D02*
X12150533Y-14821828D01*
X12150533Y-14821828D02*
X12141010Y-14831352D01*
X12141010Y-14831352D02*
X12121962Y-14840876D01*
X12121962Y-14840876D02*
X12102914Y-14840876D01*
X12102914Y-14840876D02*
X12083867Y-14831352D01*
X12083867Y-14831352D02*
X12074343Y-14821828D01*
X12074343Y-14821828D02*
X12064819Y-14802781D01*
X12064819Y-14802781D02*
X12055295Y-14764686D01*
X12055295Y-14764686D02*
X12055295Y-14717067D01*
X12055295Y-14717067D02*
X12064819Y-14678971D01*
X12064819Y-14678971D02*
X12074343Y-14659924D01*
X12074343Y-14659924D02*
X12083867Y-14650400D01*
X12083867Y-14650400D02*
X12102914Y-14640876D01*
X12255295Y-14821828D02*
X12264819Y-14831352D01*
X12264819Y-14831352D02*
X12255295Y-14840876D01*
X12255295Y-14840876D02*
X12245771Y-14831352D01*
X12245771Y-14831352D02*
X12255295Y-14821828D01*
X12255295Y-14821828D02*
X12255295Y-14840876D01*
X12388629Y-14640876D02*
X12407676Y-14640876D01*
X12407676Y-14640876D02*
X12426724Y-14650400D01*
X12426724Y-14650400D02*
X12436248Y-14659924D01*
X12436248Y-14659924D02*
X12445771Y-14678971D01*
X12445771Y-14678971D02*
X12455295Y-14717067D01*
X12455295Y-14717067D02*
X12455295Y-14764686D01*
X12455295Y-14764686D02*
X12445771Y-14802781D01*
X12445771Y-14802781D02*
X12436248Y-14821828D01*
X12436248Y-14821828D02*
X12426724Y-14831352D01*
X12426724Y-14831352D02*
X12407676Y-14840876D01*
X12407676Y-14840876D02*
X12388629Y-14840876D01*
X12388629Y-14840876D02*
X12369581Y-14831352D01*
X12369581Y-14831352D02*
X12360057Y-14821828D01*
X12360057Y-14821828D02*
X12350533Y-14802781D01*
X12350533Y-14802781D02*
X12341010Y-14764686D01*
X12341010Y-14764686D02*
X12341010Y-14717067D01*
X12341010Y-14717067D02*
X12350533Y-14678971D01*
X12350533Y-14678971D02*
X12360057Y-14659924D01*
X12360057Y-14659924D02*
X12369581Y-14650400D01*
X12369581Y-14650400D02*
X12388629Y-14640876D01*
X12645771Y-14840876D02*
X12531486Y-14840876D01*
X12588629Y-14840876D02*
X12588629Y-14640876D01*
X12588629Y-14640876D02*
X12569581Y-14669448D01*
X12569581Y-14669448D02*
X12550533Y-14688495D01*
X12550533Y-14688495D02*
X12531486Y-14698019D01*
X12826724Y-14640876D02*
X12731486Y-14640876D01*
X12731486Y-14640876D02*
X12721962Y-14736114D01*
X12721962Y-14736114D02*
X12731486Y-14726590D01*
X12731486Y-14726590D02*
X12750533Y-14717067D01*
X12750533Y-14717067D02*
X12798152Y-14717067D01*
X12798152Y-14717067D02*
X12817200Y-14726590D01*
X12817200Y-14726590D02*
X12826724Y-14736114D01*
X12826724Y-14736114D02*
X12836248Y-14755162D01*
X12836248Y-14755162D02*
X12836248Y-14802781D01*
X12836248Y-14802781D02*
X12826724Y-14821828D01*
X12826724Y-14821828D02*
X12817200Y-14831352D01*
X12817200Y-14831352D02*
X12798152Y-14840876D01*
X12798152Y-14840876D02*
X12750533Y-14840876D01*
X12750533Y-14840876D02*
X12731486Y-14831352D01*
X12731486Y-14831352D02*
X12721962Y-14821828D01*
X12902914Y-14640876D02*
X13036248Y-14640876D01*
X13036248Y-14640876D02*
X12950533Y-14840876D01*
X13102914Y-14640876D02*
X13102914Y-14678971D01*
X13179105Y-14640876D02*
X13179105Y-14678971D01*
X13441962Y-14917067D02*
X13432438Y-14907543D01*
X13432438Y-14907543D02*
X13413391Y-14878971D01*
X13413391Y-14878971D02*
X13403867Y-14859924D01*
X13403867Y-14859924D02*
X13394343Y-14831352D01*
X13394343Y-14831352D02*
X13384819Y-14783733D01*
X13384819Y-14783733D02*
X13384819Y-14745638D01*
X13384819Y-14745638D02*
X13394343Y-14698019D01*
X13394343Y-14698019D02*
X13403867Y-14669448D01*
X13403867Y-14669448D02*
X13413391Y-14650400D01*
X13413391Y-14650400D02*
X13432438Y-14621828D01*
X13432438Y-14621828D02*
X13441962Y-14612305D01*
X13603867Y-14707543D02*
X13603867Y-14840876D01*
X13556248Y-14631352D02*
X13508629Y-14774209D01*
X13508629Y-14774209D02*
X13632438Y-14774209D01*
X13794343Y-14640876D02*
X13756248Y-14640876D01*
X13756248Y-14640876D02*
X13737200Y-14650400D01*
X13737200Y-14650400D02*
X13727676Y-14659924D01*
X13727676Y-14659924D02*
X13708629Y-14688495D01*
X13708629Y-14688495D02*
X13699105Y-14726590D01*
X13699105Y-14726590D02*
X13699105Y-14802781D01*
X13699105Y-14802781D02*
X13708629Y-14821828D01*
X13708629Y-14821828D02*
X13718152Y-14831352D01*
X13718152Y-14831352D02*
X13737200Y-14840876D01*
X13737200Y-14840876D02*
X13775295Y-14840876D01*
X13775295Y-14840876D02*
X13794343Y-14831352D01*
X13794343Y-14831352D02*
X13803867Y-14821828D01*
X13803867Y-14821828D02*
X13813391Y-14802781D01*
X13813391Y-14802781D02*
X13813391Y-14755162D01*
X13813391Y-14755162D02*
X13803867Y-14736114D01*
X13803867Y-14736114D02*
X13794343Y-14726590D01*
X13794343Y-14726590D02*
X13775295Y-14717067D01*
X13775295Y-14717067D02*
X13737200Y-14717067D01*
X13737200Y-14717067D02*
X13718152Y-14726590D01*
X13718152Y-14726590D02*
X13708629Y-14736114D01*
X13708629Y-14736114D02*
X13699105Y-14755162D01*
X14019105Y-14840876D02*
X14019105Y-14640876D01*
X14104819Y-14840876D02*
X14104819Y-14736114D01*
X14104819Y-14736114D02*
X14095295Y-14717067D01*
X14095295Y-14717067D02*
X14076248Y-14707543D01*
X14076248Y-14707543D02*
X14047676Y-14707543D01*
X14047676Y-14707543D02*
X14028629Y-14717067D01*
X14028629Y-14717067D02*
X14019105Y-14726590D01*
X14228629Y-14840876D02*
X14209581Y-14831352D01*
X14209581Y-14831352D02*
X14200057Y-14821828D01*
X14200057Y-14821828D02*
X14190533Y-14802781D01*
X14190533Y-14802781D02*
X14190533Y-14745638D01*
X14190533Y-14745638D02*
X14200057Y-14726590D01*
X14200057Y-14726590D02*
X14209581Y-14717067D01*
X14209581Y-14717067D02*
X14228629Y-14707543D01*
X14228629Y-14707543D02*
X14257200Y-14707543D01*
X14257200Y-14707543D02*
X14276248Y-14717067D01*
X14276248Y-14717067D02*
X14285772Y-14726590D01*
X14285772Y-14726590D02*
X14295295Y-14745638D01*
X14295295Y-14745638D02*
X14295295Y-14802781D01*
X14295295Y-14802781D02*
X14285772Y-14821828D01*
X14285772Y-14821828D02*
X14276248Y-14831352D01*
X14276248Y-14831352D02*
X14257200Y-14840876D01*
X14257200Y-14840876D02*
X14228629Y-14840876D01*
X14409581Y-14840876D02*
X14390533Y-14831352D01*
X14390533Y-14831352D02*
X14381010Y-14812305D01*
X14381010Y-14812305D02*
X14381010Y-14640876D01*
X14561962Y-14831352D02*
X14542914Y-14840876D01*
X14542914Y-14840876D02*
X14504819Y-14840876D01*
X14504819Y-14840876D02*
X14485772Y-14831352D01*
X14485772Y-14831352D02*
X14476248Y-14812305D01*
X14476248Y-14812305D02*
X14476248Y-14736114D01*
X14476248Y-14736114D02*
X14485772Y-14717067D01*
X14485772Y-14717067D02*
X14504819Y-14707543D01*
X14504819Y-14707543D02*
X14542914Y-14707543D01*
X14542914Y-14707543D02*
X14561962Y-14717067D01*
X14561962Y-14717067D02*
X14571486Y-14736114D01*
X14571486Y-14736114D02*
X14571486Y-14755162D01*
X14571486Y-14755162D02*
X14476248Y-14774209D01*
X14647676Y-14831352D02*
X14666724Y-14840876D01*
X14666724Y-14840876D02*
X14704819Y-14840876D01*
X14704819Y-14840876D02*
X14723867Y-14831352D01*
X14723867Y-14831352D02*
X14733391Y-14812305D01*
X14733391Y-14812305D02*
X14733391Y-14802781D01*
X14733391Y-14802781D02*
X14723867Y-14783733D01*
X14723867Y-14783733D02*
X14704819Y-14774209D01*
X14704819Y-14774209D02*
X14676248Y-14774209D01*
X14676248Y-14774209D02*
X14657200Y-14764686D01*
X14657200Y-14764686D02*
X14647676Y-14745638D01*
X14647676Y-14745638D02*
X14647676Y-14736114D01*
X14647676Y-14736114D02*
X14657200Y-14717067D01*
X14657200Y-14717067D02*
X14676248Y-14707543D01*
X14676248Y-14707543D02*
X14704819Y-14707543D01*
X14704819Y-14707543D02*
X14723867Y-14717067D01*
X14800057Y-14917067D02*
X14809581Y-14907543D01*
X14809581Y-14907543D02*
X14828629Y-14878971D01*
X14828629Y-14878971D02*
X14838153Y-14859924D01*
X14838153Y-14859924D02*
X14847676Y-14831352D01*
X14847676Y-14831352D02*
X14857200Y-14783733D01*
X14857200Y-14783733D02*
X14857200Y-14745638D01*
X14857200Y-14745638D02*
X14847676Y-14698019D01*
X14847676Y-14698019D02*
X14838153Y-14669448D01*
X14838153Y-14669448D02*
X14828629Y-14650400D01*
X14828629Y-14650400D02*
X14809581Y-14621828D01*
X14809581Y-14621828D02*
X14800057Y-14612305D01*
D13*
X9977200Y-15031400D02*
G75*
G03*
X9977200Y-15031400I-40000J0D01*
G01*
D11*
X10262914Y-14904876D02*
X10281962Y-14904876D01*
X10281962Y-14904876D02*
X10301010Y-14914400D01*
X10301010Y-14914400D02*
X10310533Y-14923924D01*
X10310533Y-14923924D02*
X10320057Y-14942971D01*
X10320057Y-14942971D02*
X10329581Y-14981067D01*
X10329581Y-14981067D02*
X10329581Y-15028686D01*
X10329581Y-15028686D02*
X10320057Y-15066781D01*
X10320057Y-15066781D02*
X10310533Y-15085828D01*
X10310533Y-15085828D02*
X10301010Y-15095352D01*
X10301010Y-15095352D02*
X10281962Y-15104876D01*
X10281962Y-15104876D02*
X10262914Y-15104876D01*
X10262914Y-15104876D02*
X10243867Y-15095352D01*
X10243867Y-15095352D02*
X10234343Y-15085828D01*
X10234343Y-15085828D02*
X10224819Y-15066781D01*
X10224819Y-15066781D02*
X10215295Y-15028686D01*
X10215295Y-15028686D02*
X10215295Y-14981067D01*
X10215295Y-14981067D02*
X10224819Y-14942971D01*
X10224819Y-14942971D02*
X10234343Y-14923924D01*
X10234343Y-14923924D02*
X10243867Y-14914400D01*
X10243867Y-14914400D02*
X10262914Y-14904876D01*
X10415295Y-15085828D02*
X10424819Y-15095352D01*
X10424819Y-15095352D02*
X10415295Y-15104876D01*
X10415295Y-15104876D02*
X10405771Y-15095352D01*
X10405771Y-15095352D02*
X10415295Y-15085828D01*
X10415295Y-15085828D02*
X10415295Y-15104876D01*
X10539105Y-14990590D02*
X10520057Y-14981067D01*
X10520057Y-14981067D02*
X10510533Y-14971543D01*
X10510533Y-14971543D02*
X10501010Y-14952495D01*
X10501010Y-14952495D02*
X10501010Y-14942971D01*
X10501010Y-14942971D02*
X10510533Y-14923924D01*
X10510533Y-14923924D02*
X10520057Y-14914400D01*
X10520057Y-14914400D02*
X10539105Y-14904876D01*
X10539105Y-14904876D02*
X10577200Y-14904876D01*
X10577200Y-14904876D02*
X10596248Y-14914400D01*
X10596248Y-14914400D02*
X10605771Y-14923924D01*
X10605771Y-14923924D02*
X10615295Y-14942971D01*
X10615295Y-14942971D02*
X10615295Y-14952495D01*
X10615295Y-14952495D02*
X10605771Y-14971543D01*
X10605771Y-14971543D02*
X10596248Y-14981067D01*
X10596248Y-14981067D02*
X10577200Y-14990590D01*
X10577200Y-14990590D02*
X10539105Y-14990590D01*
X10539105Y-14990590D02*
X10520057Y-15000114D01*
X10520057Y-15000114D02*
X10510533Y-15009638D01*
X10510533Y-15009638D02*
X10501010Y-15028686D01*
X10501010Y-15028686D02*
X10501010Y-15066781D01*
X10501010Y-15066781D02*
X10510533Y-15085828D01*
X10510533Y-15085828D02*
X10520057Y-15095352D01*
X10520057Y-15095352D02*
X10539105Y-15104876D01*
X10539105Y-15104876D02*
X10577200Y-15104876D01*
X10577200Y-15104876D02*
X10596248Y-15095352D01*
X10596248Y-15095352D02*
X10605771Y-15085828D01*
X10605771Y-15085828D02*
X10615295Y-15066781D01*
X10615295Y-15066781D02*
X10615295Y-15028686D01*
X10615295Y-15028686D02*
X10605771Y-15009638D01*
X10605771Y-15009638D02*
X10596248Y-15000114D01*
X10596248Y-15000114D02*
X10577200Y-14990590D01*
X10739105Y-14904876D02*
X10758152Y-14904876D01*
X10758152Y-14904876D02*
X10777200Y-14914400D01*
X10777200Y-14914400D02*
X10786724Y-14923924D01*
X10786724Y-14923924D02*
X10796248Y-14942971D01*
X10796248Y-14942971D02*
X10805771Y-14981067D01*
X10805771Y-14981067D02*
X10805771Y-15028686D01*
X10805771Y-15028686D02*
X10796248Y-15066781D01*
X10796248Y-15066781D02*
X10786724Y-15085828D01*
X10786724Y-15085828D02*
X10777200Y-15095352D01*
X10777200Y-15095352D02*
X10758152Y-15104876D01*
X10758152Y-15104876D02*
X10739105Y-15104876D01*
X10739105Y-15104876D02*
X10720057Y-15095352D01*
X10720057Y-15095352D02*
X10710533Y-15085828D01*
X10710533Y-15085828D02*
X10701010Y-15066781D01*
X10701010Y-15066781D02*
X10691486Y-15028686D01*
X10691486Y-15028686D02*
X10691486Y-14981067D01*
X10691486Y-14981067D02*
X10701010Y-14942971D01*
X10701010Y-14942971D02*
X10710533Y-14923924D01*
X10710533Y-14923924D02*
X10720057Y-14914400D01*
X10720057Y-14914400D02*
X10739105Y-14904876D01*
X10929581Y-14904876D02*
X10948629Y-14904876D01*
X10948629Y-14904876D02*
X10967676Y-14914400D01*
X10967676Y-14914400D02*
X10977200Y-14923924D01*
X10977200Y-14923924D02*
X10986724Y-14942971D01*
X10986724Y-14942971D02*
X10996248Y-14981067D01*
X10996248Y-14981067D02*
X10996248Y-15028686D01*
X10996248Y-15028686D02*
X10986724Y-15066781D01*
X10986724Y-15066781D02*
X10977200Y-15085828D01*
X10977200Y-15085828D02*
X10967676Y-15095352D01*
X10967676Y-15095352D02*
X10948629Y-15104876D01*
X10948629Y-15104876D02*
X10929581Y-15104876D01*
X10929581Y-15104876D02*
X10910533Y-15095352D01*
X10910533Y-15095352D02*
X10901010Y-15085828D01*
X10901010Y-15085828D02*
X10891486Y-15066781D01*
X10891486Y-15066781D02*
X10881962Y-15028686D01*
X10881962Y-15028686D02*
X10881962Y-14981067D01*
X10881962Y-14981067D02*
X10891486Y-14942971D01*
X10891486Y-14942971D02*
X10901010Y-14923924D01*
X10901010Y-14923924D02*
X10910533Y-14914400D01*
X10910533Y-14914400D02*
X10929581Y-14904876D01*
X11081962Y-15104876D02*
X11081962Y-14971543D01*
X11081962Y-14990590D02*
X11091486Y-14981067D01*
X11091486Y-14981067D02*
X11110533Y-14971543D01*
X11110533Y-14971543D02*
X11139105Y-14971543D01*
X11139105Y-14971543D02*
X11158152Y-14981067D01*
X11158152Y-14981067D02*
X11167676Y-15000114D01*
X11167676Y-15000114D02*
X11167676Y-15104876D01*
X11167676Y-15000114D02*
X11177200Y-14981067D01*
X11177200Y-14981067D02*
X11196248Y-14971543D01*
X11196248Y-14971543D02*
X11224819Y-14971543D01*
X11224819Y-14971543D02*
X11243867Y-14981067D01*
X11243867Y-14981067D02*
X11253390Y-15000114D01*
X11253390Y-15000114D02*
X11253390Y-15104876D01*
X11348629Y-15104876D02*
X11348629Y-14971543D01*
X11348629Y-14990590D02*
X11358152Y-14981067D01*
X11358152Y-14981067D02*
X11377200Y-14971543D01*
X11377200Y-14971543D02*
X11405771Y-14971543D01*
X11405771Y-14971543D02*
X11424819Y-14981067D01*
X11424819Y-14981067D02*
X11434343Y-15000114D01*
X11434343Y-15000114D02*
X11434343Y-15104876D01*
X11434343Y-15000114D02*
X11443867Y-14981067D01*
X11443867Y-14981067D02*
X11462914Y-14971543D01*
X11462914Y-14971543D02*
X11491486Y-14971543D01*
X11491486Y-14971543D02*
X11510533Y-14981067D01*
X11510533Y-14981067D02*
X11520057Y-15000114D01*
X11520057Y-15000114D02*
X11520057Y-15104876D01*
X11878152Y-14895352D02*
X11706724Y-15152495D01*
X12102914Y-14904876D02*
X12121962Y-14904876D01*
X12121962Y-14904876D02*
X12141010Y-14914400D01*
X12141010Y-14914400D02*
X12150533Y-14923924D01*
X12150533Y-14923924D02*
X12160057Y-14942971D01*
X12160057Y-14942971D02*
X12169581Y-14981067D01*
X12169581Y-14981067D02*
X12169581Y-15028686D01*
X12169581Y-15028686D02*
X12160057Y-15066781D01*
X12160057Y-15066781D02*
X12150533Y-15085828D01*
X12150533Y-15085828D02*
X12141010Y-15095352D01*
X12141010Y-15095352D02*
X12121962Y-15104876D01*
X12121962Y-15104876D02*
X12102914Y-15104876D01*
X12102914Y-15104876D02*
X12083867Y-15095352D01*
X12083867Y-15095352D02*
X12074343Y-15085828D01*
X12074343Y-15085828D02*
X12064819Y-15066781D01*
X12064819Y-15066781D02*
X12055295Y-15028686D01*
X12055295Y-15028686D02*
X12055295Y-14981067D01*
X12055295Y-14981067D02*
X12064819Y-14942971D01*
X12064819Y-14942971D02*
X12074343Y-14923924D01*
X12074343Y-14923924D02*
X12083867Y-14914400D01*
X12083867Y-14914400D02*
X12102914Y-14904876D01*
X12255295Y-15085828D02*
X12264819Y-15095352D01*
X12264819Y-15095352D02*
X12255295Y-15104876D01*
X12255295Y-15104876D02*
X12245771Y-15095352D01*
X12245771Y-15095352D02*
X12255295Y-15085828D01*
X12255295Y-15085828D02*
X12255295Y-15104876D01*
X12388629Y-14904876D02*
X12407676Y-14904876D01*
X12407676Y-14904876D02*
X12426724Y-14914400D01*
X12426724Y-14914400D02*
X12436248Y-14923924D01*
X12436248Y-14923924D02*
X12445771Y-14942971D01*
X12445771Y-14942971D02*
X12455295Y-14981067D01*
X12455295Y-14981067D02*
X12455295Y-15028686D01*
X12455295Y-15028686D02*
X12445771Y-15066781D01*
X12445771Y-15066781D02*
X12436248Y-15085828D01*
X12436248Y-15085828D02*
X12426724Y-15095352D01*
X12426724Y-15095352D02*
X12407676Y-15104876D01*
X12407676Y-15104876D02*
X12388629Y-15104876D01*
X12388629Y-15104876D02*
X12369581Y-15095352D01*
X12369581Y-15095352D02*
X12360057Y-15085828D01*
X12360057Y-15085828D02*
X12350533Y-15066781D01*
X12350533Y-15066781D02*
X12341010Y-15028686D01*
X12341010Y-15028686D02*
X12341010Y-14981067D01*
X12341010Y-14981067D02*
X12350533Y-14942971D01*
X12350533Y-14942971D02*
X12360057Y-14923924D01*
X12360057Y-14923924D02*
X12369581Y-14914400D01*
X12369581Y-14914400D02*
X12388629Y-14904876D01*
X12521962Y-14904876D02*
X12645771Y-14904876D01*
X12645771Y-14904876D02*
X12579105Y-14981067D01*
X12579105Y-14981067D02*
X12607676Y-14981067D01*
X12607676Y-14981067D02*
X12626724Y-14990590D01*
X12626724Y-14990590D02*
X12636248Y-15000114D01*
X12636248Y-15000114D02*
X12645771Y-15019162D01*
X12645771Y-15019162D02*
X12645771Y-15066781D01*
X12645771Y-15066781D02*
X12636248Y-15085828D01*
X12636248Y-15085828D02*
X12626724Y-15095352D01*
X12626724Y-15095352D02*
X12607676Y-15104876D01*
X12607676Y-15104876D02*
X12550533Y-15104876D01*
X12550533Y-15104876D02*
X12531486Y-15095352D01*
X12531486Y-15095352D02*
X12521962Y-15085828D01*
X12836248Y-15104876D02*
X12721962Y-15104876D01*
X12779105Y-15104876D02*
X12779105Y-14904876D01*
X12779105Y-14904876D02*
X12760057Y-14933448D01*
X12760057Y-14933448D02*
X12741010Y-14952495D01*
X12741010Y-14952495D02*
X12721962Y-14962019D01*
X13017200Y-14904876D02*
X12921962Y-14904876D01*
X12921962Y-14904876D02*
X12912438Y-15000114D01*
X12912438Y-15000114D02*
X12921962Y-14990590D01*
X12921962Y-14990590D02*
X12941010Y-14981067D01*
X12941010Y-14981067D02*
X12988629Y-14981067D01*
X12988629Y-14981067D02*
X13007676Y-14990590D01*
X13007676Y-14990590D02*
X13017200Y-15000114D01*
X13017200Y-15000114D02*
X13026724Y-15019162D01*
X13026724Y-15019162D02*
X13026724Y-15066781D01*
X13026724Y-15066781D02*
X13017200Y-15085828D01*
X13017200Y-15085828D02*
X13007676Y-15095352D01*
X13007676Y-15095352D02*
X12988629Y-15104876D01*
X12988629Y-15104876D02*
X12941010Y-15104876D01*
X12941010Y-15104876D02*
X12921962Y-15095352D01*
X12921962Y-15095352D02*
X12912438Y-15085828D01*
X13102914Y-14904876D02*
X13102914Y-14942971D01*
X13179105Y-14904876D02*
X13179105Y-14942971D01*
X13441962Y-15181067D02*
X13432438Y-15171543D01*
X13432438Y-15171543D02*
X13413391Y-15142971D01*
X13413391Y-15142971D02*
X13403867Y-15123924D01*
X13403867Y-15123924D02*
X13394343Y-15095352D01*
X13394343Y-15095352D02*
X13384819Y-15047733D01*
X13384819Y-15047733D02*
X13384819Y-15009638D01*
X13384819Y-15009638D02*
X13394343Y-14962019D01*
X13394343Y-14962019D02*
X13403867Y-14933448D01*
X13403867Y-14933448D02*
X13413391Y-14914400D01*
X13413391Y-14914400D02*
X13432438Y-14885828D01*
X13432438Y-14885828D02*
X13441962Y-14876305D01*
X13508629Y-14923924D02*
X13518152Y-14914400D01*
X13518152Y-14914400D02*
X13537200Y-14904876D01*
X13537200Y-14904876D02*
X13584819Y-14904876D01*
X13584819Y-14904876D02*
X13603867Y-14914400D01*
X13603867Y-14914400D02*
X13613391Y-14923924D01*
X13613391Y-14923924D02*
X13622914Y-14942971D01*
X13622914Y-14942971D02*
X13622914Y-14962019D01*
X13622914Y-14962019D02*
X13613391Y-14990590D01*
X13613391Y-14990590D02*
X13499105Y-15104876D01*
X13499105Y-15104876D02*
X13622914Y-15104876D01*
X13813391Y-15104876D02*
X13699105Y-15104876D01*
X13756248Y-15104876D02*
X13756248Y-14904876D01*
X13756248Y-14904876D02*
X13737200Y-14933448D01*
X13737200Y-14933448D02*
X13718152Y-14952495D01*
X13718152Y-14952495D02*
X13699105Y-14962019D01*
X13889581Y-14923924D02*
X13899105Y-14914400D01*
X13899105Y-14914400D02*
X13918152Y-14904876D01*
X13918152Y-14904876D02*
X13965772Y-14904876D01*
X13965772Y-14904876D02*
X13984819Y-14914400D01*
X13984819Y-14914400D02*
X13994343Y-14923924D01*
X13994343Y-14923924D02*
X14003867Y-14942971D01*
X14003867Y-14942971D02*
X14003867Y-14962019D01*
X14003867Y-14962019D02*
X13994343Y-14990590D01*
X13994343Y-14990590D02*
X13880057Y-15104876D01*
X13880057Y-15104876D02*
X14003867Y-15104876D01*
X14209581Y-15104876D02*
X14209581Y-14904876D01*
X14295295Y-15104876D02*
X14295295Y-15000114D01*
X14295295Y-15000114D02*
X14285772Y-14981067D01*
X14285772Y-14981067D02*
X14266724Y-14971543D01*
X14266724Y-14971543D02*
X14238152Y-14971543D01*
X14238152Y-14971543D02*
X14219105Y-14981067D01*
X14219105Y-14981067D02*
X14209581Y-14990590D01*
X14419105Y-15104876D02*
X14400057Y-15095352D01*
X14400057Y-15095352D02*
X14390533Y-15085828D01*
X14390533Y-15085828D02*
X14381010Y-15066781D01*
X14381010Y-15066781D02*
X14381010Y-15009638D01*
X14381010Y-15009638D02*
X14390533Y-14990590D01*
X14390533Y-14990590D02*
X14400057Y-14981067D01*
X14400057Y-14981067D02*
X14419105Y-14971543D01*
X14419105Y-14971543D02*
X14447676Y-14971543D01*
X14447676Y-14971543D02*
X14466724Y-14981067D01*
X14466724Y-14981067D02*
X14476248Y-14990590D01*
X14476248Y-14990590D02*
X14485772Y-15009638D01*
X14485772Y-15009638D02*
X14485772Y-15066781D01*
X14485772Y-15066781D02*
X14476248Y-15085828D01*
X14476248Y-15085828D02*
X14466724Y-15095352D01*
X14466724Y-15095352D02*
X14447676Y-15104876D01*
X14447676Y-15104876D02*
X14419105Y-15104876D01*
X14600057Y-15104876D02*
X14581010Y-15095352D01*
X14581010Y-15095352D02*
X14571486Y-15076305D01*
X14571486Y-15076305D02*
X14571486Y-14904876D01*
X14752438Y-15095352D02*
X14733391Y-15104876D01*
X14733391Y-15104876D02*
X14695295Y-15104876D01*
X14695295Y-15104876D02*
X14676248Y-15095352D01*
X14676248Y-15095352D02*
X14666724Y-15076305D01*
X14666724Y-15076305D02*
X14666724Y-15000114D01*
X14666724Y-15000114D02*
X14676248Y-14981067D01*
X14676248Y-14981067D02*
X14695295Y-14971543D01*
X14695295Y-14971543D02*
X14733391Y-14971543D01*
X14733391Y-14971543D02*
X14752438Y-14981067D01*
X14752438Y-14981067D02*
X14761962Y-15000114D01*
X14761962Y-15000114D02*
X14761962Y-15019162D01*
X14761962Y-15019162D02*
X14666724Y-15038209D01*
X14838153Y-15095352D02*
X14857200Y-15104876D01*
X14857200Y-15104876D02*
X14895295Y-15104876D01*
X14895295Y-15104876D02*
X14914343Y-15095352D01*
X14914343Y-15095352D02*
X14923867Y-15076305D01*
X14923867Y-15076305D02*
X14923867Y-15066781D01*
X14923867Y-15066781D02*
X14914343Y-15047733D01*
X14914343Y-15047733D02*
X14895295Y-15038209D01*
X14895295Y-15038209D02*
X14866724Y-15038209D01*
X14866724Y-15038209D02*
X14847676Y-15028686D01*
X14847676Y-15028686D02*
X14838153Y-15009638D01*
X14838153Y-15009638D02*
X14838153Y-15000114D01*
X14838153Y-15000114D02*
X14847676Y-14981067D01*
X14847676Y-14981067D02*
X14866724Y-14971543D01*
X14866724Y-14971543D02*
X14895295Y-14971543D01*
X14895295Y-14971543D02*
X14914343Y-14981067D01*
X14990534Y-15181067D02*
X15000057Y-15171543D01*
X15000057Y-15171543D02*
X15019105Y-15142971D01*
X15019105Y-15142971D02*
X15028629Y-15123924D01*
X15028629Y-15123924D02*
X15038153Y-15095352D01*
X15038153Y-15095352D02*
X15047676Y-15047733D01*
X15047676Y-15047733D02*
X15047676Y-15009638D01*
X15047676Y-15009638D02*
X15038153Y-14962019D01*
X15038153Y-14962019D02*
X15028629Y-14933448D01*
X15028629Y-14933448D02*
X15019105Y-14914400D01*
X15019105Y-14914400D02*
X15000057Y-14885828D01*
X15000057Y-14885828D02*
X14990534Y-14876305D01*
D10*
X9927200Y-15245400D02*
X9927200Y-15345400D01*
X9877200Y-15295400D02*
X9977200Y-15295400D01*
D11*
X10329581Y-15368876D02*
X10215295Y-15368876D01*
X10272438Y-15368876D02*
X10272438Y-15168876D01*
X10272438Y-15168876D02*
X10253390Y-15197448D01*
X10253390Y-15197448D02*
X10234343Y-15216495D01*
X10234343Y-15216495D02*
X10215295Y-15226019D01*
X10415295Y-15349828D02*
X10424819Y-15359352D01*
X10424819Y-15359352D02*
X10415295Y-15368876D01*
X10415295Y-15368876D02*
X10405771Y-15359352D01*
X10405771Y-15359352D02*
X10415295Y-15349828D01*
X10415295Y-15349828D02*
X10415295Y-15368876D01*
X10548629Y-15168876D02*
X10567676Y-15168876D01*
X10567676Y-15168876D02*
X10586724Y-15178400D01*
X10586724Y-15178400D02*
X10596248Y-15187924D01*
X10596248Y-15187924D02*
X10605771Y-15206971D01*
X10605771Y-15206971D02*
X10615295Y-15245067D01*
X10615295Y-15245067D02*
X10615295Y-15292686D01*
X10615295Y-15292686D02*
X10605771Y-15330781D01*
X10605771Y-15330781D02*
X10596248Y-15349828D01*
X10596248Y-15349828D02*
X10586724Y-15359352D01*
X10586724Y-15359352D02*
X10567676Y-15368876D01*
X10567676Y-15368876D02*
X10548629Y-15368876D01*
X10548629Y-15368876D02*
X10529581Y-15359352D01*
X10529581Y-15359352D02*
X10520057Y-15349828D01*
X10520057Y-15349828D02*
X10510533Y-15330781D01*
X10510533Y-15330781D02*
X10501010Y-15292686D01*
X10501010Y-15292686D02*
X10501010Y-15245067D01*
X10501010Y-15245067D02*
X10510533Y-15206971D01*
X10510533Y-15206971D02*
X10520057Y-15187924D01*
X10520057Y-15187924D02*
X10529581Y-15178400D01*
X10529581Y-15178400D02*
X10548629Y-15168876D01*
X10739105Y-15168876D02*
X10758152Y-15168876D01*
X10758152Y-15168876D02*
X10777200Y-15178400D01*
X10777200Y-15178400D02*
X10786724Y-15187924D01*
X10786724Y-15187924D02*
X10796248Y-15206971D01*
X10796248Y-15206971D02*
X10805771Y-15245067D01*
X10805771Y-15245067D02*
X10805771Y-15292686D01*
X10805771Y-15292686D02*
X10796248Y-15330781D01*
X10796248Y-15330781D02*
X10786724Y-15349828D01*
X10786724Y-15349828D02*
X10777200Y-15359352D01*
X10777200Y-15359352D02*
X10758152Y-15368876D01*
X10758152Y-15368876D02*
X10739105Y-15368876D01*
X10739105Y-15368876D02*
X10720057Y-15359352D01*
X10720057Y-15359352D02*
X10710533Y-15349828D01*
X10710533Y-15349828D02*
X10701010Y-15330781D01*
X10701010Y-15330781D02*
X10691486Y-15292686D01*
X10691486Y-15292686D02*
X10691486Y-15245067D01*
X10691486Y-15245067D02*
X10701010Y-15206971D01*
X10701010Y-15206971D02*
X10710533Y-15187924D01*
X10710533Y-15187924D02*
X10720057Y-15178400D01*
X10720057Y-15178400D02*
X10739105Y-15168876D01*
X10929581Y-15168876D02*
X10948629Y-15168876D01*
X10948629Y-15168876D02*
X10967676Y-15178400D01*
X10967676Y-15178400D02*
X10977200Y-15187924D01*
X10977200Y-15187924D02*
X10986724Y-15206971D01*
X10986724Y-15206971D02*
X10996248Y-15245067D01*
X10996248Y-15245067D02*
X10996248Y-15292686D01*
X10996248Y-15292686D02*
X10986724Y-15330781D01*
X10986724Y-15330781D02*
X10977200Y-15349828D01*
X10977200Y-15349828D02*
X10967676Y-15359352D01*
X10967676Y-15359352D02*
X10948629Y-15368876D01*
X10948629Y-15368876D02*
X10929581Y-15368876D01*
X10929581Y-15368876D02*
X10910533Y-15359352D01*
X10910533Y-15359352D02*
X10901010Y-15349828D01*
X10901010Y-15349828D02*
X10891486Y-15330781D01*
X10891486Y-15330781D02*
X10881962Y-15292686D01*
X10881962Y-15292686D02*
X10881962Y-15245067D01*
X10881962Y-15245067D02*
X10891486Y-15206971D01*
X10891486Y-15206971D02*
X10901010Y-15187924D01*
X10901010Y-15187924D02*
X10910533Y-15178400D01*
X10910533Y-15178400D02*
X10929581Y-15168876D01*
X11081962Y-15368876D02*
X11081962Y-15235543D01*
X11081962Y-15254590D02*
X11091486Y-15245067D01*
X11091486Y-15245067D02*
X11110533Y-15235543D01*
X11110533Y-15235543D02*
X11139105Y-15235543D01*
X11139105Y-15235543D02*
X11158152Y-15245067D01*
X11158152Y-15245067D02*
X11167676Y-15264114D01*
X11167676Y-15264114D02*
X11167676Y-15368876D01*
X11167676Y-15264114D02*
X11177200Y-15245067D01*
X11177200Y-15245067D02*
X11196248Y-15235543D01*
X11196248Y-15235543D02*
X11224819Y-15235543D01*
X11224819Y-15235543D02*
X11243867Y-15245067D01*
X11243867Y-15245067D02*
X11253390Y-15264114D01*
X11253390Y-15264114D02*
X11253390Y-15368876D01*
X11348629Y-15368876D02*
X11348629Y-15235543D01*
X11348629Y-15254590D02*
X11358152Y-15245067D01*
X11358152Y-15245067D02*
X11377200Y-15235543D01*
X11377200Y-15235543D02*
X11405771Y-15235543D01*
X11405771Y-15235543D02*
X11424819Y-15245067D01*
X11424819Y-15245067D02*
X11434343Y-15264114D01*
X11434343Y-15264114D02*
X11434343Y-15368876D01*
X11434343Y-15264114D02*
X11443867Y-15245067D01*
X11443867Y-15245067D02*
X11462914Y-15235543D01*
X11462914Y-15235543D02*
X11491486Y-15235543D01*
X11491486Y-15235543D02*
X11510533Y-15245067D01*
X11510533Y-15245067D02*
X11520057Y-15264114D01*
X11520057Y-15264114D02*
X11520057Y-15368876D01*
X11878152Y-15159352D02*
X11706724Y-15416495D01*
X12102914Y-15168876D02*
X12121962Y-15168876D01*
X12121962Y-15168876D02*
X12141010Y-15178400D01*
X12141010Y-15178400D02*
X12150533Y-15187924D01*
X12150533Y-15187924D02*
X12160057Y-15206971D01*
X12160057Y-15206971D02*
X12169581Y-15245067D01*
X12169581Y-15245067D02*
X12169581Y-15292686D01*
X12169581Y-15292686D02*
X12160057Y-15330781D01*
X12160057Y-15330781D02*
X12150533Y-15349828D01*
X12150533Y-15349828D02*
X12141010Y-15359352D01*
X12141010Y-15359352D02*
X12121962Y-15368876D01*
X12121962Y-15368876D02*
X12102914Y-15368876D01*
X12102914Y-15368876D02*
X12083867Y-15359352D01*
X12083867Y-15359352D02*
X12074343Y-15349828D01*
X12074343Y-15349828D02*
X12064819Y-15330781D01*
X12064819Y-15330781D02*
X12055295Y-15292686D01*
X12055295Y-15292686D02*
X12055295Y-15245067D01*
X12055295Y-15245067D02*
X12064819Y-15206971D01*
X12064819Y-15206971D02*
X12074343Y-15187924D01*
X12074343Y-15187924D02*
X12083867Y-15178400D01*
X12083867Y-15178400D02*
X12102914Y-15168876D01*
X12255295Y-15349828D02*
X12264819Y-15359352D01*
X12264819Y-15359352D02*
X12255295Y-15368876D01*
X12255295Y-15368876D02*
X12245771Y-15359352D01*
X12245771Y-15359352D02*
X12255295Y-15349828D01*
X12255295Y-15349828D02*
X12255295Y-15368876D01*
X12388629Y-15168876D02*
X12407676Y-15168876D01*
X12407676Y-15168876D02*
X12426724Y-15178400D01*
X12426724Y-15178400D02*
X12436248Y-15187924D01*
X12436248Y-15187924D02*
X12445771Y-15206971D01*
X12445771Y-15206971D02*
X12455295Y-15245067D01*
X12455295Y-15245067D02*
X12455295Y-15292686D01*
X12455295Y-15292686D02*
X12445771Y-15330781D01*
X12445771Y-15330781D02*
X12436248Y-15349828D01*
X12436248Y-15349828D02*
X12426724Y-15359352D01*
X12426724Y-15359352D02*
X12407676Y-15368876D01*
X12407676Y-15368876D02*
X12388629Y-15368876D01*
X12388629Y-15368876D02*
X12369581Y-15359352D01*
X12369581Y-15359352D02*
X12360057Y-15349828D01*
X12360057Y-15349828D02*
X12350533Y-15330781D01*
X12350533Y-15330781D02*
X12341010Y-15292686D01*
X12341010Y-15292686D02*
X12341010Y-15245067D01*
X12341010Y-15245067D02*
X12350533Y-15206971D01*
X12350533Y-15206971D02*
X12360057Y-15187924D01*
X12360057Y-15187924D02*
X12369581Y-15178400D01*
X12369581Y-15178400D02*
X12388629Y-15168876D01*
X12521962Y-15168876D02*
X12645771Y-15168876D01*
X12645771Y-15168876D02*
X12579105Y-15245067D01*
X12579105Y-15245067D02*
X12607676Y-15245067D01*
X12607676Y-15245067D02*
X12626724Y-15254590D01*
X12626724Y-15254590D02*
X12636248Y-15264114D01*
X12636248Y-15264114D02*
X12645771Y-15283162D01*
X12645771Y-15283162D02*
X12645771Y-15330781D01*
X12645771Y-15330781D02*
X12636248Y-15349828D01*
X12636248Y-15349828D02*
X12626724Y-15359352D01*
X12626724Y-15359352D02*
X12607676Y-15368876D01*
X12607676Y-15368876D02*
X12550533Y-15368876D01*
X12550533Y-15368876D02*
X12531486Y-15359352D01*
X12531486Y-15359352D02*
X12521962Y-15349828D01*
X12741010Y-15368876D02*
X12779105Y-15368876D01*
X12779105Y-15368876D02*
X12798152Y-15359352D01*
X12798152Y-15359352D02*
X12807676Y-15349828D01*
X12807676Y-15349828D02*
X12826724Y-15321257D01*
X12826724Y-15321257D02*
X12836248Y-15283162D01*
X12836248Y-15283162D02*
X12836248Y-15206971D01*
X12836248Y-15206971D02*
X12826724Y-15187924D01*
X12826724Y-15187924D02*
X12817200Y-15178400D01*
X12817200Y-15178400D02*
X12798152Y-15168876D01*
X12798152Y-15168876D02*
X12760057Y-15168876D01*
X12760057Y-15168876D02*
X12741010Y-15178400D01*
X12741010Y-15178400D02*
X12731486Y-15187924D01*
X12731486Y-15187924D02*
X12721962Y-15206971D01*
X12721962Y-15206971D02*
X12721962Y-15254590D01*
X12721962Y-15254590D02*
X12731486Y-15273638D01*
X12731486Y-15273638D02*
X12741010Y-15283162D01*
X12741010Y-15283162D02*
X12760057Y-15292686D01*
X12760057Y-15292686D02*
X12798152Y-15292686D01*
X12798152Y-15292686D02*
X12817200Y-15283162D01*
X12817200Y-15283162D02*
X12826724Y-15273638D01*
X12826724Y-15273638D02*
X12836248Y-15254590D01*
X13007676Y-15235543D02*
X13007676Y-15368876D01*
X12960057Y-15159352D02*
X12912438Y-15302209D01*
X12912438Y-15302209D02*
X13036248Y-15302209D01*
X13102914Y-15168876D02*
X13102914Y-15206971D01*
X13179105Y-15168876D02*
X13179105Y-15206971D01*
X13441962Y-15445067D02*
X13432438Y-15435543D01*
X13432438Y-15435543D02*
X13413391Y-15406971D01*
X13413391Y-15406971D02*
X13403867Y-15387924D01*
X13403867Y-15387924D02*
X13394343Y-15359352D01*
X13394343Y-15359352D02*
X13384819Y-15311733D01*
X13384819Y-15311733D02*
X13384819Y-15273638D01*
X13384819Y-15273638D02*
X13394343Y-15226019D01*
X13394343Y-15226019D02*
X13403867Y-15197448D01*
X13403867Y-15197448D02*
X13413391Y-15178400D01*
X13413391Y-15178400D02*
X13432438Y-15149828D01*
X13432438Y-15149828D02*
X13441962Y-15140305D01*
X13499105Y-15168876D02*
X13632438Y-15168876D01*
X13632438Y-15168876D02*
X13546724Y-15368876D01*
X13689581Y-15168876D02*
X13822914Y-15168876D01*
X13822914Y-15168876D02*
X13737200Y-15368876D01*
X14019105Y-15368876D02*
X14019105Y-15168876D01*
X14104819Y-15368876D02*
X14104819Y-15264114D01*
X14104819Y-15264114D02*
X14095295Y-15245067D01*
X14095295Y-15245067D02*
X14076248Y-15235543D01*
X14076248Y-15235543D02*
X14047676Y-15235543D01*
X14047676Y-15235543D02*
X14028629Y-15245067D01*
X14028629Y-15245067D02*
X14019105Y-15254590D01*
X14228629Y-15368876D02*
X14209581Y-15359352D01*
X14209581Y-15359352D02*
X14200057Y-15349828D01*
X14200057Y-15349828D02*
X14190533Y-15330781D01*
X14190533Y-15330781D02*
X14190533Y-15273638D01*
X14190533Y-15273638D02*
X14200057Y-15254590D01*
X14200057Y-15254590D02*
X14209581Y-15245067D01*
X14209581Y-15245067D02*
X14228629Y-15235543D01*
X14228629Y-15235543D02*
X14257200Y-15235543D01*
X14257200Y-15235543D02*
X14276248Y-15245067D01*
X14276248Y-15245067D02*
X14285772Y-15254590D01*
X14285772Y-15254590D02*
X14295295Y-15273638D01*
X14295295Y-15273638D02*
X14295295Y-15330781D01*
X14295295Y-15330781D02*
X14285772Y-15349828D01*
X14285772Y-15349828D02*
X14276248Y-15359352D01*
X14276248Y-15359352D02*
X14257200Y-15368876D01*
X14257200Y-15368876D02*
X14228629Y-15368876D01*
X14409581Y-15368876D02*
X14390533Y-15359352D01*
X14390533Y-15359352D02*
X14381010Y-15340305D01*
X14381010Y-15340305D02*
X14381010Y-15168876D01*
X14561962Y-15359352D02*
X14542914Y-15368876D01*
X14542914Y-15368876D02*
X14504819Y-15368876D01*
X14504819Y-15368876D02*
X14485772Y-15359352D01*
X14485772Y-15359352D02*
X14476248Y-15340305D01*
X14476248Y-15340305D02*
X14476248Y-15264114D01*
X14476248Y-15264114D02*
X14485772Y-15245067D01*
X14485772Y-15245067D02*
X14504819Y-15235543D01*
X14504819Y-15235543D02*
X14542914Y-15235543D01*
X14542914Y-15235543D02*
X14561962Y-15245067D01*
X14561962Y-15245067D02*
X14571486Y-15264114D01*
X14571486Y-15264114D02*
X14571486Y-15283162D01*
X14571486Y-15283162D02*
X14476248Y-15302209D01*
X14647676Y-15359352D02*
X14666724Y-15368876D01*
X14666724Y-15368876D02*
X14704819Y-15368876D01*
X14704819Y-15368876D02*
X14723867Y-15359352D01*
X14723867Y-15359352D02*
X14733391Y-15340305D01*
X14733391Y-15340305D02*
X14733391Y-15330781D01*
X14733391Y-15330781D02*
X14723867Y-15311733D01*
X14723867Y-15311733D02*
X14704819Y-15302209D01*
X14704819Y-15302209D02*
X14676248Y-15302209D01*
X14676248Y-15302209D02*
X14657200Y-15292686D01*
X14657200Y-15292686D02*
X14647676Y-15273638D01*
X14647676Y-15273638D02*
X14647676Y-15264114D01*
X14647676Y-15264114D02*
X14657200Y-15245067D01*
X14657200Y-15245067D02*
X14676248Y-15235543D01*
X14676248Y-15235543D02*
X14704819Y-15235543D01*
X14704819Y-15235543D02*
X14723867Y-15245067D01*
X14800057Y-15445067D02*
X14809581Y-15435543D01*
X14809581Y-15435543D02*
X14828629Y-15406971D01*
X14828629Y-15406971D02*
X14838153Y-15387924D01*
X14838153Y-15387924D02*
X14847676Y-15359352D01*
X14847676Y-15359352D02*
X14857200Y-15311733D01*
X14857200Y-15311733D02*
X14857200Y-15273638D01*
X14857200Y-15273638D02*
X14847676Y-15226019D01*
X14847676Y-15226019D02*
X14838153Y-15197448D01*
X14838153Y-15197448D02*
X14828629Y-15178400D01*
X14828629Y-15178400D02*
X14809581Y-15149828D01*
X14809581Y-15149828D02*
X14800057Y-15140305D01*
M02*
