%TF.GenerationSoftware,KiCad,Pcbnew,(7.0.0)*%
%TF.CreationDate,2023-07-06T21:55:20+02:00*%
%TF.ProjectId,cdp-io,6364702d-696f-42e6-9b69-6361645f7063,1*%
%TF.SameCoordinates,Original*%
%TF.FileFunction,Drillmap*%
%TF.FilePolarity,Positive*%
%FSLAX45Y45*%
G04 Gerber Fmt 4.5, Leading zero omitted, Abs format (unit mm)*
G04 Created by KiCad (PCBNEW (7.0.0)) date 2023-07-06 21:55:20*
%MOMM*%
%LPD*%
G01*
G04 APERTURE LIST*
%ADD10C,0.100000*%
%ADD11C,0.200000*%
%ADD12C,0.320000*%
G04 APERTURE END LIST*
D10*
X9982200Y-4216400D02*
X19888200Y-4216400D01*
X19888200Y-4216400D02*
X19888200Y-14122400D01*
X19888200Y-14122400D02*
X9982200Y-14122400D01*
X9982200Y-14122400D02*
X9982200Y-4216400D01*
D11*
D12*
X10330200Y-4564400D02*
X10650200Y-4884400D01*
X10650200Y-4564400D02*
X10330200Y-4884400D01*
X10330200Y-13454400D02*
X10650200Y-13774400D01*
X10650200Y-13454400D02*
X10330200Y-13774400D01*
X19220200Y-4564400D02*
X19540200Y-4884400D01*
X19540200Y-4564400D02*
X19220200Y-4884400D01*
X19220200Y-13454400D02*
X19540200Y-13774400D01*
X19540200Y-13454400D02*
X19220200Y-13774400D01*
D11*
X10224819Y-14420876D02*
X10224819Y-14220876D01*
X10224819Y-14220876D02*
X10272438Y-14220876D01*
X10272438Y-14220876D02*
X10301010Y-14230400D01*
X10301010Y-14230400D02*
X10320057Y-14249448D01*
X10320057Y-14249448D02*
X10329581Y-14268495D01*
X10329581Y-14268495D02*
X10339105Y-14306590D01*
X10339105Y-14306590D02*
X10339105Y-14335162D01*
X10339105Y-14335162D02*
X10329581Y-14373257D01*
X10329581Y-14373257D02*
X10320057Y-14392305D01*
X10320057Y-14392305D02*
X10301010Y-14411352D01*
X10301010Y-14411352D02*
X10272438Y-14420876D01*
X10272438Y-14420876D02*
X10224819Y-14420876D01*
X10424819Y-14420876D02*
X10424819Y-14287543D01*
X10424819Y-14325638D02*
X10434343Y-14306590D01*
X10434343Y-14306590D02*
X10443867Y-14297067D01*
X10443867Y-14297067D02*
X10462914Y-14287543D01*
X10462914Y-14287543D02*
X10481962Y-14287543D01*
X10548629Y-14420876D02*
X10548629Y-14287543D01*
X10548629Y-14220876D02*
X10539105Y-14230400D01*
X10539105Y-14230400D02*
X10548629Y-14239924D01*
X10548629Y-14239924D02*
X10558152Y-14230400D01*
X10558152Y-14230400D02*
X10548629Y-14220876D01*
X10548629Y-14220876D02*
X10548629Y-14239924D01*
X10672438Y-14420876D02*
X10653390Y-14411352D01*
X10653390Y-14411352D02*
X10643867Y-14392305D01*
X10643867Y-14392305D02*
X10643867Y-14220876D01*
X10777200Y-14420876D02*
X10758152Y-14411352D01*
X10758152Y-14411352D02*
X10748629Y-14392305D01*
X10748629Y-14392305D02*
X10748629Y-14220876D01*
X10973390Y-14420876D02*
X10973390Y-14220876D01*
X10973390Y-14220876D02*
X11040057Y-14363733D01*
X11040057Y-14363733D02*
X11106724Y-14220876D01*
X11106724Y-14220876D02*
X11106724Y-14420876D01*
X11287676Y-14420876D02*
X11287676Y-14316114D01*
X11287676Y-14316114D02*
X11278152Y-14297067D01*
X11278152Y-14297067D02*
X11259105Y-14287543D01*
X11259105Y-14287543D02*
X11221009Y-14287543D01*
X11221009Y-14287543D02*
X11201962Y-14297067D01*
X11287676Y-14411352D02*
X11268628Y-14420876D01*
X11268628Y-14420876D02*
X11221009Y-14420876D01*
X11221009Y-14420876D02*
X11201962Y-14411352D01*
X11201962Y-14411352D02*
X11192438Y-14392305D01*
X11192438Y-14392305D02*
X11192438Y-14373257D01*
X11192438Y-14373257D02*
X11201962Y-14354209D01*
X11201962Y-14354209D02*
X11221009Y-14344686D01*
X11221009Y-14344686D02*
X11268628Y-14344686D01*
X11268628Y-14344686D02*
X11287676Y-14335162D01*
X11382914Y-14287543D02*
X11382914Y-14487543D01*
X11382914Y-14297067D02*
X11401962Y-14287543D01*
X11401962Y-14287543D02*
X11440057Y-14287543D01*
X11440057Y-14287543D02*
X11459105Y-14297067D01*
X11459105Y-14297067D02*
X11468628Y-14306590D01*
X11468628Y-14306590D02*
X11478152Y-14325638D01*
X11478152Y-14325638D02*
X11478152Y-14382781D01*
X11478152Y-14382781D02*
X11468628Y-14401828D01*
X11468628Y-14401828D02*
X11459105Y-14411352D01*
X11459105Y-14411352D02*
X11440057Y-14420876D01*
X11440057Y-14420876D02*
X11401962Y-14420876D01*
X11401962Y-14420876D02*
X11382914Y-14411352D01*
X11563867Y-14401828D02*
X11573390Y-14411352D01*
X11573390Y-14411352D02*
X11563867Y-14420876D01*
X11563867Y-14420876D02*
X11554343Y-14411352D01*
X11554343Y-14411352D02*
X11563867Y-14401828D01*
X11563867Y-14401828D02*
X11563867Y-14420876D01*
X11563867Y-14297067D02*
X11573390Y-14306590D01*
X11573390Y-14306590D02*
X11563867Y-14316114D01*
X11563867Y-14316114D02*
X11554343Y-14306590D01*
X11554343Y-14306590D02*
X11563867Y-14297067D01*
X11563867Y-14297067D02*
X11563867Y-14316114D01*
X9777200Y-14667400D02*
X9977200Y-14867400D01*
X9977200Y-14667400D02*
X9777200Y-14867400D01*
X10205771Y-14640876D02*
X10329581Y-14640876D01*
X10329581Y-14640876D02*
X10262914Y-14717067D01*
X10262914Y-14717067D02*
X10291486Y-14717067D01*
X10291486Y-14717067D02*
X10310533Y-14726590D01*
X10310533Y-14726590D02*
X10320057Y-14736114D01*
X10320057Y-14736114D02*
X10329581Y-14755162D01*
X10329581Y-14755162D02*
X10329581Y-14802781D01*
X10329581Y-14802781D02*
X10320057Y-14821828D01*
X10320057Y-14821828D02*
X10310533Y-14831352D01*
X10310533Y-14831352D02*
X10291486Y-14840876D01*
X10291486Y-14840876D02*
X10234343Y-14840876D01*
X10234343Y-14840876D02*
X10215295Y-14831352D01*
X10215295Y-14831352D02*
X10205771Y-14821828D01*
X10415295Y-14821828D02*
X10424819Y-14831352D01*
X10424819Y-14831352D02*
X10415295Y-14840876D01*
X10415295Y-14840876D02*
X10405771Y-14831352D01*
X10405771Y-14831352D02*
X10415295Y-14821828D01*
X10415295Y-14821828D02*
X10415295Y-14840876D01*
X10501010Y-14659924D02*
X10510533Y-14650400D01*
X10510533Y-14650400D02*
X10529581Y-14640876D01*
X10529581Y-14640876D02*
X10577200Y-14640876D01*
X10577200Y-14640876D02*
X10596248Y-14650400D01*
X10596248Y-14650400D02*
X10605771Y-14659924D01*
X10605771Y-14659924D02*
X10615295Y-14678971D01*
X10615295Y-14678971D02*
X10615295Y-14698019D01*
X10615295Y-14698019D02*
X10605771Y-14726590D01*
X10605771Y-14726590D02*
X10491486Y-14840876D01*
X10491486Y-14840876D02*
X10615295Y-14840876D01*
X10739105Y-14640876D02*
X10758152Y-14640876D01*
X10758152Y-14640876D02*
X10777200Y-14650400D01*
X10777200Y-14650400D02*
X10786724Y-14659924D01*
X10786724Y-14659924D02*
X10796248Y-14678971D01*
X10796248Y-14678971D02*
X10805771Y-14717067D01*
X10805771Y-14717067D02*
X10805771Y-14764686D01*
X10805771Y-14764686D02*
X10796248Y-14802781D01*
X10796248Y-14802781D02*
X10786724Y-14821828D01*
X10786724Y-14821828D02*
X10777200Y-14831352D01*
X10777200Y-14831352D02*
X10758152Y-14840876D01*
X10758152Y-14840876D02*
X10739105Y-14840876D01*
X10739105Y-14840876D02*
X10720057Y-14831352D01*
X10720057Y-14831352D02*
X10710533Y-14821828D01*
X10710533Y-14821828D02*
X10701010Y-14802781D01*
X10701010Y-14802781D02*
X10691486Y-14764686D01*
X10691486Y-14764686D02*
X10691486Y-14717067D01*
X10691486Y-14717067D02*
X10701010Y-14678971D01*
X10701010Y-14678971D02*
X10710533Y-14659924D01*
X10710533Y-14659924D02*
X10720057Y-14650400D01*
X10720057Y-14650400D02*
X10739105Y-14640876D01*
X10929581Y-14640876D02*
X10948629Y-14640876D01*
X10948629Y-14640876D02*
X10967676Y-14650400D01*
X10967676Y-14650400D02*
X10977200Y-14659924D01*
X10977200Y-14659924D02*
X10986724Y-14678971D01*
X10986724Y-14678971D02*
X10996248Y-14717067D01*
X10996248Y-14717067D02*
X10996248Y-14764686D01*
X10996248Y-14764686D02*
X10986724Y-14802781D01*
X10986724Y-14802781D02*
X10977200Y-14821828D01*
X10977200Y-14821828D02*
X10967676Y-14831352D01*
X10967676Y-14831352D02*
X10948629Y-14840876D01*
X10948629Y-14840876D02*
X10929581Y-14840876D01*
X10929581Y-14840876D02*
X10910533Y-14831352D01*
X10910533Y-14831352D02*
X10901010Y-14821828D01*
X10901010Y-14821828D02*
X10891486Y-14802781D01*
X10891486Y-14802781D02*
X10881962Y-14764686D01*
X10881962Y-14764686D02*
X10881962Y-14717067D01*
X10881962Y-14717067D02*
X10891486Y-14678971D01*
X10891486Y-14678971D02*
X10901010Y-14659924D01*
X10901010Y-14659924D02*
X10910533Y-14650400D01*
X10910533Y-14650400D02*
X10929581Y-14640876D01*
X11081962Y-14840876D02*
X11081962Y-14707543D01*
X11081962Y-14726590D02*
X11091486Y-14717067D01*
X11091486Y-14717067D02*
X11110533Y-14707543D01*
X11110533Y-14707543D02*
X11139105Y-14707543D01*
X11139105Y-14707543D02*
X11158152Y-14717067D01*
X11158152Y-14717067D02*
X11167676Y-14736114D01*
X11167676Y-14736114D02*
X11167676Y-14840876D01*
X11167676Y-14736114D02*
X11177200Y-14717067D01*
X11177200Y-14717067D02*
X11196248Y-14707543D01*
X11196248Y-14707543D02*
X11224819Y-14707543D01*
X11224819Y-14707543D02*
X11243867Y-14717067D01*
X11243867Y-14717067D02*
X11253390Y-14736114D01*
X11253390Y-14736114D02*
X11253390Y-14840876D01*
X11348629Y-14840876D02*
X11348629Y-14707543D01*
X11348629Y-14726590D02*
X11358152Y-14717067D01*
X11358152Y-14717067D02*
X11377200Y-14707543D01*
X11377200Y-14707543D02*
X11405771Y-14707543D01*
X11405771Y-14707543D02*
X11424819Y-14717067D01*
X11424819Y-14717067D02*
X11434343Y-14736114D01*
X11434343Y-14736114D02*
X11434343Y-14840876D01*
X11434343Y-14736114D02*
X11443867Y-14717067D01*
X11443867Y-14717067D02*
X11462914Y-14707543D01*
X11462914Y-14707543D02*
X11491486Y-14707543D01*
X11491486Y-14707543D02*
X11510533Y-14717067D01*
X11510533Y-14717067D02*
X11520057Y-14736114D01*
X11520057Y-14736114D02*
X11520057Y-14840876D01*
X11878152Y-14631352D02*
X11706724Y-14888495D01*
X12102914Y-14640876D02*
X12121962Y-14640876D01*
X12121962Y-14640876D02*
X12141010Y-14650400D01*
X12141010Y-14650400D02*
X12150533Y-14659924D01*
X12150533Y-14659924D02*
X12160057Y-14678971D01*
X12160057Y-14678971D02*
X12169581Y-14717067D01*
X12169581Y-14717067D02*
X12169581Y-14764686D01*
X12169581Y-14764686D02*
X12160057Y-14802781D01*
X12160057Y-14802781D02*
X12150533Y-14821828D01*
X12150533Y-14821828D02*
X12141010Y-14831352D01*
X12141010Y-14831352D02*
X12121962Y-14840876D01*
X12121962Y-14840876D02*
X12102914Y-14840876D01*
X12102914Y-14840876D02*
X12083867Y-14831352D01*
X12083867Y-14831352D02*
X12074343Y-14821828D01*
X12074343Y-14821828D02*
X12064819Y-14802781D01*
X12064819Y-14802781D02*
X12055295Y-14764686D01*
X12055295Y-14764686D02*
X12055295Y-14717067D01*
X12055295Y-14717067D02*
X12064819Y-14678971D01*
X12064819Y-14678971D02*
X12074343Y-14659924D01*
X12074343Y-14659924D02*
X12083867Y-14650400D01*
X12083867Y-14650400D02*
X12102914Y-14640876D01*
X12255295Y-14821828D02*
X12264819Y-14831352D01*
X12264819Y-14831352D02*
X12255295Y-14840876D01*
X12255295Y-14840876D02*
X12245771Y-14831352D01*
X12245771Y-14831352D02*
X12255295Y-14821828D01*
X12255295Y-14821828D02*
X12255295Y-14840876D01*
X12455295Y-14840876D02*
X12341010Y-14840876D01*
X12398152Y-14840876D02*
X12398152Y-14640876D01*
X12398152Y-14640876D02*
X12379105Y-14669448D01*
X12379105Y-14669448D02*
X12360057Y-14688495D01*
X12360057Y-14688495D02*
X12341010Y-14698019D01*
X12531486Y-14659924D02*
X12541010Y-14650400D01*
X12541010Y-14650400D02*
X12560057Y-14640876D01*
X12560057Y-14640876D02*
X12607676Y-14640876D01*
X12607676Y-14640876D02*
X12626724Y-14650400D01*
X12626724Y-14650400D02*
X12636248Y-14659924D01*
X12636248Y-14659924D02*
X12645771Y-14678971D01*
X12645771Y-14678971D02*
X12645771Y-14698019D01*
X12645771Y-14698019D02*
X12636248Y-14726590D01*
X12636248Y-14726590D02*
X12521962Y-14840876D01*
X12521962Y-14840876D02*
X12645771Y-14840876D01*
X12817200Y-14640876D02*
X12779105Y-14640876D01*
X12779105Y-14640876D02*
X12760057Y-14650400D01*
X12760057Y-14650400D02*
X12750533Y-14659924D01*
X12750533Y-14659924D02*
X12731486Y-14688495D01*
X12731486Y-14688495D02*
X12721962Y-14726590D01*
X12721962Y-14726590D02*
X12721962Y-14802781D01*
X12721962Y-14802781D02*
X12731486Y-14821828D01*
X12731486Y-14821828D02*
X12741010Y-14831352D01*
X12741010Y-14831352D02*
X12760057Y-14840876D01*
X12760057Y-14840876D02*
X12798152Y-14840876D01*
X12798152Y-14840876D02*
X12817200Y-14831352D01*
X12817200Y-14831352D02*
X12826724Y-14821828D01*
X12826724Y-14821828D02*
X12836248Y-14802781D01*
X12836248Y-14802781D02*
X12836248Y-14755162D01*
X12836248Y-14755162D02*
X12826724Y-14736114D01*
X12826724Y-14736114D02*
X12817200Y-14726590D01*
X12817200Y-14726590D02*
X12798152Y-14717067D01*
X12798152Y-14717067D02*
X12760057Y-14717067D01*
X12760057Y-14717067D02*
X12741010Y-14726590D01*
X12741010Y-14726590D02*
X12731486Y-14736114D01*
X12731486Y-14736114D02*
X12721962Y-14755162D01*
X12960057Y-14640876D02*
X12979105Y-14640876D01*
X12979105Y-14640876D02*
X12998152Y-14650400D01*
X12998152Y-14650400D02*
X13007676Y-14659924D01*
X13007676Y-14659924D02*
X13017200Y-14678971D01*
X13017200Y-14678971D02*
X13026724Y-14717067D01*
X13026724Y-14717067D02*
X13026724Y-14764686D01*
X13026724Y-14764686D02*
X13017200Y-14802781D01*
X13017200Y-14802781D02*
X13007676Y-14821828D01*
X13007676Y-14821828D02*
X12998152Y-14831352D01*
X12998152Y-14831352D02*
X12979105Y-14840876D01*
X12979105Y-14840876D02*
X12960057Y-14840876D01*
X12960057Y-14840876D02*
X12941010Y-14831352D01*
X12941010Y-14831352D02*
X12931486Y-14821828D01*
X12931486Y-14821828D02*
X12921962Y-14802781D01*
X12921962Y-14802781D02*
X12912438Y-14764686D01*
X12912438Y-14764686D02*
X12912438Y-14717067D01*
X12912438Y-14717067D02*
X12921962Y-14678971D01*
X12921962Y-14678971D02*
X12931486Y-14659924D01*
X12931486Y-14659924D02*
X12941010Y-14650400D01*
X12941010Y-14650400D02*
X12960057Y-14640876D01*
X13102914Y-14640876D02*
X13102914Y-14678971D01*
X13179105Y-14640876D02*
X13179105Y-14678971D01*
X13441962Y-14917067D02*
X13432438Y-14907543D01*
X13432438Y-14907543D02*
X13413391Y-14878971D01*
X13413391Y-14878971D02*
X13403867Y-14859924D01*
X13403867Y-14859924D02*
X13394343Y-14831352D01*
X13394343Y-14831352D02*
X13384819Y-14783733D01*
X13384819Y-14783733D02*
X13384819Y-14745638D01*
X13384819Y-14745638D02*
X13394343Y-14698019D01*
X13394343Y-14698019D02*
X13403867Y-14669448D01*
X13403867Y-14669448D02*
X13413391Y-14650400D01*
X13413391Y-14650400D02*
X13432438Y-14621828D01*
X13432438Y-14621828D02*
X13441962Y-14612305D01*
X13603867Y-14707543D02*
X13603867Y-14840876D01*
X13556248Y-14631352D02*
X13508629Y-14774209D01*
X13508629Y-14774209D02*
X13632438Y-14774209D01*
X13828629Y-14840876D02*
X13828629Y-14640876D01*
X13914343Y-14840876D02*
X13914343Y-14736114D01*
X13914343Y-14736114D02*
X13904819Y-14717067D01*
X13904819Y-14717067D02*
X13885772Y-14707543D01*
X13885772Y-14707543D02*
X13857200Y-14707543D01*
X13857200Y-14707543D02*
X13838152Y-14717067D01*
X13838152Y-14717067D02*
X13828629Y-14726590D01*
X14038152Y-14840876D02*
X14019105Y-14831352D01*
X14019105Y-14831352D02*
X14009581Y-14821828D01*
X14009581Y-14821828D02*
X14000057Y-14802781D01*
X14000057Y-14802781D02*
X14000057Y-14745638D01*
X14000057Y-14745638D02*
X14009581Y-14726590D01*
X14009581Y-14726590D02*
X14019105Y-14717067D01*
X14019105Y-14717067D02*
X14038152Y-14707543D01*
X14038152Y-14707543D02*
X14066724Y-14707543D01*
X14066724Y-14707543D02*
X14085772Y-14717067D01*
X14085772Y-14717067D02*
X14095295Y-14726590D01*
X14095295Y-14726590D02*
X14104819Y-14745638D01*
X14104819Y-14745638D02*
X14104819Y-14802781D01*
X14104819Y-14802781D02*
X14095295Y-14821828D01*
X14095295Y-14821828D02*
X14085772Y-14831352D01*
X14085772Y-14831352D02*
X14066724Y-14840876D01*
X14066724Y-14840876D02*
X14038152Y-14840876D01*
X14219105Y-14840876D02*
X14200057Y-14831352D01*
X14200057Y-14831352D02*
X14190533Y-14812305D01*
X14190533Y-14812305D02*
X14190533Y-14640876D01*
X14371486Y-14831352D02*
X14352438Y-14840876D01*
X14352438Y-14840876D02*
X14314343Y-14840876D01*
X14314343Y-14840876D02*
X14295295Y-14831352D01*
X14295295Y-14831352D02*
X14285772Y-14812305D01*
X14285772Y-14812305D02*
X14285772Y-14736114D01*
X14285772Y-14736114D02*
X14295295Y-14717067D01*
X14295295Y-14717067D02*
X14314343Y-14707543D01*
X14314343Y-14707543D02*
X14352438Y-14707543D01*
X14352438Y-14707543D02*
X14371486Y-14717067D01*
X14371486Y-14717067D02*
X14381010Y-14736114D01*
X14381010Y-14736114D02*
X14381010Y-14755162D01*
X14381010Y-14755162D02*
X14285772Y-14774209D01*
X14457200Y-14831352D02*
X14476248Y-14840876D01*
X14476248Y-14840876D02*
X14514343Y-14840876D01*
X14514343Y-14840876D02*
X14533391Y-14831352D01*
X14533391Y-14831352D02*
X14542914Y-14812305D01*
X14542914Y-14812305D02*
X14542914Y-14802781D01*
X14542914Y-14802781D02*
X14533391Y-14783733D01*
X14533391Y-14783733D02*
X14514343Y-14774209D01*
X14514343Y-14774209D02*
X14485772Y-14774209D01*
X14485772Y-14774209D02*
X14466724Y-14764686D01*
X14466724Y-14764686D02*
X14457200Y-14745638D01*
X14457200Y-14745638D02*
X14457200Y-14736114D01*
X14457200Y-14736114D02*
X14466724Y-14717067D01*
X14466724Y-14717067D02*
X14485772Y-14707543D01*
X14485772Y-14707543D02*
X14514343Y-14707543D01*
X14514343Y-14707543D02*
X14533391Y-14717067D01*
X14609581Y-14917067D02*
X14619105Y-14907543D01*
X14619105Y-14907543D02*
X14638153Y-14878971D01*
X14638153Y-14878971D02*
X14647676Y-14859924D01*
X14647676Y-14859924D02*
X14657200Y-14831352D01*
X14657200Y-14831352D02*
X14666724Y-14783733D01*
X14666724Y-14783733D02*
X14666724Y-14745638D01*
X14666724Y-14745638D02*
X14657200Y-14698019D01*
X14657200Y-14698019D02*
X14647676Y-14669448D01*
X14647676Y-14669448D02*
X14638153Y-14650400D01*
X14638153Y-14650400D02*
X14619105Y-14621828D01*
X14619105Y-14621828D02*
X14609581Y-14612305D01*
X14939105Y-14917067D02*
X14929581Y-14907543D01*
X14929581Y-14907543D02*
X14910533Y-14878971D01*
X14910533Y-14878971D02*
X14901010Y-14859924D01*
X14901010Y-14859924D02*
X14891486Y-14831352D01*
X14891486Y-14831352D02*
X14881962Y-14783733D01*
X14881962Y-14783733D02*
X14881962Y-14745638D01*
X14881962Y-14745638D02*
X14891486Y-14698019D01*
X14891486Y-14698019D02*
X14901010Y-14669448D01*
X14901010Y-14669448D02*
X14910533Y-14650400D01*
X14910533Y-14650400D02*
X14929581Y-14621828D01*
X14929581Y-14621828D02*
X14939105Y-14612305D01*
X15015295Y-14707543D02*
X15015295Y-14840876D01*
X15015295Y-14726590D02*
X15024819Y-14717067D01*
X15024819Y-14717067D02*
X15043867Y-14707543D01*
X15043867Y-14707543D02*
X15072438Y-14707543D01*
X15072438Y-14707543D02*
X15091486Y-14717067D01*
X15091486Y-14717067D02*
X15101010Y-14736114D01*
X15101010Y-14736114D02*
X15101010Y-14840876D01*
X15224819Y-14840876D02*
X15205772Y-14831352D01*
X15205772Y-14831352D02*
X15196248Y-14821828D01*
X15196248Y-14821828D02*
X15186724Y-14802781D01*
X15186724Y-14802781D02*
X15186724Y-14745638D01*
X15186724Y-14745638D02*
X15196248Y-14726590D01*
X15196248Y-14726590D02*
X15205772Y-14717067D01*
X15205772Y-14717067D02*
X15224819Y-14707543D01*
X15224819Y-14707543D02*
X15253391Y-14707543D01*
X15253391Y-14707543D02*
X15272438Y-14717067D01*
X15272438Y-14717067D02*
X15281962Y-14726590D01*
X15281962Y-14726590D02*
X15291486Y-14745638D01*
X15291486Y-14745638D02*
X15291486Y-14802781D01*
X15291486Y-14802781D02*
X15281962Y-14821828D01*
X15281962Y-14821828D02*
X15272438Y-14831352D01*
X15272438Y-14831352D02*
X15253391Y-14840876D01*
X15253391Y-14840876D02*
X15224819Y-14840876D01*
X15348629Y-14707543D02*
X15424819Y-14707543D01*
X15377200Y-14640876D02*
X15377200Y-14812305D01*
X15377200Y-14812305D02*
X15386724Y-14831352D01*
X15386724Y-14831352D02*
X15405772Y-14840876D01*
X15405772Y-14840876D02*
X15424819Y-14840876D01*
X15611486Y-14707543D02*
X15611486Y-14907543D01*
X15611486Y-14717067D02*
X15630533Y-14707543D01*
X15630533Y-14707543D02*
X15668629Y-14707543D01*
X15668629Y-14707543D02*
X15687676Y-14717067D01*
X15687676Y-14717067D02*
X15697200Y-14726590D01*
X15697200Y-14726590D02*
X15706724Y-14745638D01*
X15706724Y-14745638D02*
X15706724Y-14802781D01*
X15706724Y-14802781D02*
X15697200Y-14821828D01*
X15697200Y-14821828D02*
X15687676Y-14831352D01*
X15687676Y-14831352D02*
X15668629Y-14840876D01*
X15668629Y-14840876D02*
X15630533Y-14840876D01*
X15630533Y-14840876D02*
X15611486Y-14831352D01*
X15821010Y-14840876D02*
X15801962Y-14831352D01*
X15801962Y-14831352D02*
X15792438Y-14812305D01*
X15792438Y-14812305D02*
X15792438Y-14640876D01*
X15982914Y-14840876D02*
X15982914Y-14736114D01*
X15982914Y-14736114D02*
X15973391Y-14717067D01*
X15973391Y-14717067D02*
X15954343Y-14707543D01*
X15954343Y-14707543D02*
X15916248Y-14707543D01*
X15916248Y-14707543D02*
X15897200Y-14717067D01*
X15982914Y-14831352D02*
X15963867Y-14840876D01*
X15963867Y-14840876D02*
X15916248Y-14840876D01*
X15916248Y-14840876D02*
X15897200Y-14831352D01*
X15897200Y-14831352D02*
X15887676Y-14812305D01*
X15887676Y-14812305D02*
X15887676Y-14793257D01*
X15887676Y-14793257D02*
X15897200Y-14774209D01*
X15897200Y-14774209D02*
X15916248Y-14764686D01*
X15916248Y-14764686D02*
X15963867Y-14764686D01*
X15963867Y-14764686D02*
X15982914Y-14755162D01*
X16049581Y-14707543D02*
X16125772Y-14707543D01*
X16078153Y-14640876D02*
X16078153Y-14812305D01*
X16078153Y-14812305D02*
X16087676Y-14831352D01*
X16087676Y-14831352D02*
X16106724Y-14840876D01*
X16106724Y-14840876D02*
X16125772Y-14840876D01*
X16268629Y-14831352D02*
X16249581Y-14840876D01*
X16249581Y-14840876D02*
X16211486Y-14840876D01*
X16211486Y-14840876D02*
X16192438Y-14831352D01*
X16192438Y-14831352D02*
X16182914Y-14812305D01*
X16182914Y-14812305D02*
X16182914Y-14736114D01*
X16182914Y-14736114D02*
X16192438Y-14717067D01*
X16192438Y-14717067D02*
X16211486Y-14707543D01*
X16211486Y-14707543D02*
X16249581Y-14707543D01*
X16249581Y-14707543D02*
X16268629Y-14717067D01*
X16268629Y-14717067D02*
X16278153Y-14736114D01*
X16278153Y-14736114D02*
X16278153Y-14755162D01*
X16278153Y-14755162D02*
X16182914Y-14774209D01*
X16449581Y-14840876D02*
X16449581Y-14640876D01*
X16449581Y-14831352D02*
X16430534Y-14840876D01*
X16430534Y-14840876D02*
X16392438Y-14840876D01*
X16392438Y-14840876D02*
X16373391Y-14831352D01*
X16373391Y-14831352D02*
X16363867Y-14821828D01*
X16363867Y-14821828D02*
X16354343Y-14802781D01*
X16354343Y-14802781D02*
X16354343Y-14745638D01*
X16354343Y-14745638D02*
X16363867Y-14726590D01*
X16363867Y-14726590D02*
X16373391Y-14717067D01*
X16373391Y-14717067D02*
X16392438Y-14707543D01*
X16392438Y-14707543D02*
X16430534Y-14707543D01*
X16430534Y-14707543D02*
X16449581Y-14717067D01*
X16525772Y-14917067D02*
X16535295Y-14907543D01*
X16535295Y-14907543D02*
X16554343Y-14878971D01*
X16554343Y-14878971D02*
X16563867Y-14859924D01*
X16563867Y-14859924D02*
X16573391Y-14831352D01*
X16573391Y-14831352D02*
X16582914Y-14783733D01*
X16582914Y-14783733D02*
X16582914Y-14745638D01*
X16582914Y-14745638D02*
X16573391Y-14698019D01*
X16573391Y-14698019D02*
X16563867Y-14669448D01*
X16563867Y-14669448D02*
X16554343Y-14650400D01*
X16554343Y-14650400D02*
X16535295Y-14621828D01*
X16535295Y-14621828D02*
X16525772Y-14612305D01*
M02*
