%TF.GenerationSoftware,KiCad,Pcbnew,(7.0.0)*%
%TF.CreationDate,2023-04-25T22:37:44+02:00*%
%TF.ProjectId,cdp-leddriver,6364702d-6c65-4646-9472-697665722e6b,1*%
%TF.SameCoordinates,Original*%
%TF.FileFunction,Drillmap*%
%TF.FilePolarity,Positive*%
%FSLAX45Y45*%
G04 Gerber Fmt 4.5, Leading zero omitted, Abs format (unit mm)*
G04 Created by KiCad (PCBNEW (7.0.0)) date 2023-04-25 22:37:44*
%MOMM*%
%LPD*%
G01*
G04 APERTURE LIST*
%ADD10C,0.150000*%
%ADD11C,0.200000*%
%ADD12C,0.320000*%
G04 APERTURE END LIST*
D10*
X10795000Y-4572000D02*
X20701000Y-4572000D01*
X20701000Y-4572000D02*
X20701000Y-14478000D01*
X20701000Y-14478000D02*
X10795000Y-14478000D01*
X10795000Y-14478000D02*
X10795000Y-4572000D01*
D11*
D12*
X11143000Y-4920000D02*
X11463000Y-5240000D01*
X11463000Y-4920000D02*
X11143000Y-5240000D01*
X11143000Y-13810000D02*
X11463000Y-14130000D01*
X11463000Y-13810000D02*
X11143000Y-14130000D01*
X20033000Y-4920000D02*
X20353000Y-5240000D01*
X20353000Y-4920000D02*
X20033000Y-5240000D01*
X20033000Y-13810000D02*
X20353000Y-14130000D01*
X20353000Y-13810000D02*
X20033000Y-14130000D01*
D11*
X11035119Y-14778976D02*
X11035119Y-14578976D01*
X11035119Y-14578976D02*
X11082738Y-14578976D01*
X11082738Y-14578976D02*
X11111310Y-14588500D01*
X11111310Y-14588500D02*
X11130357Y-14607548D01*
X11130357Y-14607548D02*
X11139881Y-14626595D01*
X11139881Y-14626595D02*
X11149405Y-14664690D01*
X11149405Y-14664690D02*
X11149405Y-14693262D01*
X11149405Y-14693262D02*
X11139881Y-14731357D01*
X11139881Y-14731357D02*
X11130357Y-14750405D01*
X11130357Y-14750405D02*
X11111310Y-14769452D01*
X11111310Y-14769452D02*
X11082738Y-14778976D01*
X11082738Y-14778976D02*
X11035119Y-14778976D01*
X11235119Y-14778976D02*
X11235119Y-14645643D01*
X11235119Y-14683738D02*
X11244643Y-14664690D01*
X11244643Y-14664690D02*
X11254167Y-14655167D01*
X11254167Y-14655167D02*
X11273214Y-14645643D01*
X11273214Y-14645643D02*
X11292262Y-14645643D01*
X11358928Y-14778976D02*
X11358928Y-14645643D01*
X11358928Y-14578976D02*
X11349405Y-14588500D01*
X11349405Y-14588500D02*
X11358928Y-14598024D01*
X11358928Y-14598024D02*
X11368452Y-14588500D01*
X11368452Y-14588500D02*
X11358928Y-14578976D01*
X11358928Y-14578976D02*
X11358928Y-14598024D01*
X11482738Y-14778976D02*
X11463690Y-14769452D01*
X11463690Y-14769452D02*
X11454167Y-14750405D01*
X11454167Y-14750405D02*
X11454167Y-14578976D01*
X11587500Y-14778976D02*
X11568452Y-14769452D01*
X11568452Y-14769452D02*
X11558928Y-14750405D01*
X11558928Y-14750405D02*
X11558928Y-14578976D01*
X11783690Y-14778976D02*
X11783690Y-14578976D01*
X11783690Y-14578976D02*
X11850357Y-14721833D01*
X11850357Y-14721833D02*
X11917024Y-14578976D01*
X11917024Y-14578976D02*
X11917024Y-14778976D01*
X12097976Y-14778976D02*
X12097976Y-14674214D01*
X12097976Y-14674214D02*
X12088452Y-14655167D01*
X12088452Y-14655167D02*
X12069405Y-14645643D01*
X12069405Y-14645643D02*
X12031309Y-14645643D01*
X12031309Y-14645643D02*
X12012262Y-14655167D01*
X12097976Y-14769452D02*
X12078928Y-14778976D01*
X12078928Y-14778976D02*
X12031309Y-14778976D01*
X12031309Y-14778976D02*
X12012262Y-14769452D01*
X12012262Y-14769452D02*
X12002738Y-14750405D01*
X12002738Y-14750405D02*
X12002738Y-14731357D01*
X12002738Y-14731357D02*
X12012262Y-14712309D01*
X12012262Y-14712309D02*
X12031309Y-14702786D01*
X12031309Y-14702786D02*
X12078928Y-14702786D01*
X12078928Y-14702786D02*
X12097976Y-14693262D01*
X12193214Y-14645643D02*
X12193214Y-14845643D01*
X12193214Y-14655167D02*
X12212262Y-14645643D01*
X12212262Y-14645643D02*
X12250357Y-14645643D01*
X12250357Y-14645643D02*
X12269405Y-14655167D01*
X12269405Y-14655167D02*
X12278928Y-14664690D01*
X12278928Y-14664690D02*
X12288452Y-14683738D01*
X12288452Y-14683738D02*
X12288452Y-14740881D01*
X12288452Y-14740881D02*
X12278928Y-14759928D01*
X12278928Y-14759928D02*
X12269405Y-14769452D01*
X12269405Y-14769452D02*
X12250357Y-14778976D01*
X12250357Y-14778976D02*
X12212262Y-14778976D01*
X12212262Y-14778976D02*
X12193214Y-14769452D01*
X12374167Y-14759928D02*
X12383690Y-14769452D01*
X12383690Y-14769452D02*
X12374167Y-14778976D01*
X12374167Y-14778976D02*
X12364643Y-14769452D01*
X12364643Y-14769452D02*
X12374167Y-14759928D01*
X12374167Y-14759928D02*
X12374167Y-14778976D01*
X12374167Y-14655167D02*
X12383690Y-14664690D01*
X12383690Y-14664690D02*
X12374167Y-14674214D01*
X12374167Y-14674214D02*
X12364643Y-14664690D01*
X12364643Y-14664690D02*
X12374167Y-14655167D01*
X12374167Y-14655167D02*
X12374167Y-14674214D01*
X10587500Y-15025500D02*
X10787500Y-15225500D01*
X10787500Y-15025500D02*
X10587500Y-15225500D01*
X11016071Y-14998976D02*
X11139881Y-14998976D01*
X11139881Y-14998976D02*
X11073214Y-15075167D01*
X11073214Y-15075167D02*
X11101786Y-15075167D01*
X11101786Y-15075167D02*
X11120833Y-15084690D01*
X11120833Y-15084690D02*
X11130357Y-15094214D01*
X11130357Y-15094214D02*
X11139881Y-15113262D01*
X11139881Y-15113262D02*
X11139881Y-15160881D01*
X11139881Y-15160881D02*
X11130357Y-15179928D01*
X11130357Y-15179928D02*
X11120833Y-15189452D01*
X11120833Y-15189452D02*
X11101786Y-15198976D01*
X11101786Y-15198976D02*
X11044643Y-15198976D01*
X11044643Y-15198976D02*
X11025595Y-15189452D01*
X11025595Y-15189452D02*
X11016071Y-15179928D01*
X11225595Y-15179928D02*
X11235119Y-15189452D01*
X11235119Y-15189452D02*
X11225595Y-15198976D01*
X11225595Y-15198976D02*
X11216071Y-15189452D01*
X11216071Y-15189452D02*
X11225595Y-15179928D01*
X11225595Y-15179928D02*
X11225595Y-15198976D01*
X11311309Y-15018024D02*
X11320833Y-15008500D01*
X11320833Y-15008500D02*
X11339881Y-14998976D01*
X11339881Y-14998976D02*
X11387500Y-14998976D01*
X11387500Y-14998976D02*
X11406548Y-15008500D01*
X11406548Y-15008500D02*
X11416071Y-15018024D01*
X11416071Y-15018024D02*
X11425595Y-15037071D01*
X11425595Y-15037071D02*
X11425595Y-15056119D01*
X11425595Y-15056119D02*
X11416071Y-15084690D01*
X11416071Y-15084690D02*
X11301786Y-15198976D01*
X11301786Y-15198976D02*
X11425595Y-15198976D01*
X11549405Y-14998976D02*
X11568452Y-14998976D01*
X11568452Y-14998976D02*
X11587500Y-15008500D01*
X11587500Y-15008500D02*
X11597024Y-15018024D01*
X11597024Y-15018024D02*
X11606548Y-15037071D01*
X11606548Y-15037071D02*
X11616071Y-15075167D01*
X11616071Y-15075167D02*
X11616071Y-15122786D01*
X11616071Y-15122786D02*
X11606548Y-15160881D01*
X11606548Y-15160881D02*
X11597024Y-15179928D01*
X11597024Y-15179928D02*
X11587500Y-15189452D01*
X11587500Y-15189452D02*
X11568452Y-15198976D01*
X11568452Y-15198976D02*
X11549405Y-15198976D01*
X11549405Y-15198976D02*
X11530357Y-15189452D01*
X11530357Y-15189452D02*
X11520833Y-15179928D01*
X11520833Y-15179928D02*
X11511309Y-15160881D01*
X11511309Y-15160881D02*
X11501786Y-15122786D01*
X11501786Y-15122786D02*
X11501786Y-15075167D01*
X11501786Y-15075167D02*
X11511309Y-15037071D01*
X11511309Y-15037071D02*
X11520833Y-15018024D01*
X11520833Y-15018024D02*
X11530357Y-15008500D01*
X11530357Y-15008500D02*
X11549405Y-14998976D01*
X11739881Y-14998976D02*
X11758929Y-14998976D01*
X11758929Y-14998976D02*
X11777976Y-15008500D01*
X11777976Y-15008500D02*
X11787500Y-15018024D01*
X11787500Y-15018024D02*
X11797024Y-15037071D01*
X11797024Y-15037071D02*
X11806548Y-15075167D01*
X11806548Y-15075167D02*
X11806548Y-15122786D01*
X11806548Y-15122786D02*
X11797024Y-15160881D01*
X11797024Y-15160881D02*
X11787500Y-15179928D01*
X11787500Y-15179928D02*
X11777976Y-15189452D01*
X11777976Y-15189452D02*
X11758929Y-15198976D01*
X11758929Y-15198976D02*
X11739881Y-15198976D01*
X11739881Y-15198976D02*
X11720833Y-15189452D01*
X11720833Y-15189452D02*
X11711309Y-15179928D01*
X11711309Y-15179928D02*
X11701786Y-15160881D01*
X11701786Y-15160881D02*
X11692262Y-15122786D01*
X11692262Y-15122786D02*
X11692262Y-15075167D01*
X11692262Y-15075167D02*
X11701786Y-15037071D01*
X11701786Y-15037071D02*
X11711309Y-15018024D01*
X11711309Y-15018024D02*
X11720833Y-15008500D01*
X11720833Y-15008500D02*
X11739881Y-14998976D01*
X11892262Y-15198976D02*
X11892262Y-15065643D01*
X11892262Y-15084690D02*
X11901786Y-15075167D01*
X11901786Y-15075167D02*
X11920833Y-15065643D01*
X11920833Y-15065643D02*
X11949405Y-15065643D01*
X11949405Y-15065643D02*
X11968452Y-15075167D01*
X11968452Y-15075167D02*
X11977976Y-15094214D01*
X11977976Y-15094214D02*
X11977976Y-15198976D01*
X11977976Y-15094214D02*
X11987500Y-15075167D01*
X11987500Y-15075167D02*
X12006548Y-15065643D01*
X12006548Y-15065643D02*
X12035119Y-15065643D01*
X12035119Y-15065643D02*
X12054167Y-15075167D01*
X12054167Y-15075167D02*
X12063690Y-15094214D01*
X12063690Y-15094214D02*
X12063690Y-15198976D01*
X12158929Y-15198976D02*
X12158929Y-15065643D01*
X12158929Y-15084690D02*
X12168452Y-15075167D01*
X12168452Y-15075167D02*
X12187500Y-15065643D01*
X12187500Y-15065643D02*
X12216071Y-15065643D01*
X12216071Y-15065643D02*
X12235119Y-15075167D01*
X12235119Y-15075167D02*
X12244643Y-15094214D01*
X12244643Y-15094214D02*
X12244643Y-15198976D01*
X12244643Y-15094214D02*
X12254167Y-15075167D01*
X12254167Y-15075167D02*
X12273214Y-15065643D01*
X12273214Y-15065643D02*
X12301786Y-15065643D01*
X12301786Y-15065643D02*
X12320833Y-15075167D01*
X12320833Y-15075167D02*
X12330357Y-15094214D01*
X12330357Y-15094214D02*
X12330357Y-15198976D01*
X12688452Y-14989452D02*
X12517024Y-15246595D01*
X12913214Y-14998976D02*
X12932262Y-14998976D01*
X12932262Y-14998976D02*
X12951310Y-15008500D01*
X12951310Y-15008500D02*
X12960833Y-15018024D01*
X12960833Y-15018024D02*
X12970357Y-15037071D01*
X12970357Y-15037071D02*
X12979881Y-15075167D01*
X12979881Y-15075167D02*
X12979881Y-15122786D01*
X12979881Y-15122786D02*
X12970357Y-15160881D01*
X12970357Y-15160881D02*
X12960833Y-15179928D01*
X12960833Y-15179928D02*
X12951310Y-15189452D01*
X12951310Y-15189452D02*
X12932262Y-15198976D01*
X12932262Y-15198976D02*
X12913214Y-15198976D01*
X12913214Y-15198976D02*
X12894167Y-15189452D01*
X12894167Y-15189452D02*
X12884643Y-15179928D01*
X12884643Y-15179928D02*
X12875119Y-15160881D01*
X12875119Y-15160881D02*
X12865595Y-15122786D01*
X12865595Y-15122786D02*
X12865595Y-15075167D01*
X12865595Y-15075167D02*
X12875119Y-15037071D01*
X12875119Y-15037071D02*
X12884643Y-15018024D01*
X12884643Y-15018024D02*
X12894167Y-15008500D01*
X12894167Y-15008500D02*
X12913214Y-14998976D01*
X13065595Y-15179928D02*
X13075119Y-15189452D01*
X13075119Y-15189452D02*
X13065595Y-15198976D01*
X13065595Y-15198976D02*
X13056071Y-15189452D01*
X13056071Y-15189452D02*
X13065595Y-15179928D01*
X13065595Y-15179928D02*
X13065595Y-15198976D01*
X13265595Y-15198976D02*
X13151310Y-15198976D01*
X13208452Y-15198976D02*
X13208452Y-14998976D01*
X13208452Y-14998976D02*
X13189405Y-15027548D01*
X13189405Y-15027548D02*
X13170357Y-15046595D01*
X13170357Y-15046595D02*
X13151310Y-15056119D01*
X13341786Y-15018024D02*
X13351310Y-15008500D01*
X13351310Y-15008500D02*
X13370357Y-14998976D01*
X13370357Y-14998976D02*
X13417976Y-14998976D01*
X13417976Y-14998976D02*
X13437024Y-15008500D01*
X13437024Y-15008500D02*
X13446548Y-15018024D01*
X13446548Y-15018024D02*
X13456071Y-15037071D01*
X13456071Y-15037071D02*
X13456071Y-15056119D01*
X13456071Y-15056119D02*
X13446548Y-15084690D01*
X13446548Y-15084690D02*
X13332262Y-15198976D01*
X13332262Y-15198976D02*
X13456071Y-15198976D01*
X13627500Y-14998976D02*
X13589405Y-14998976D01*
X13589405Y-14998976D02*
X13570357Y-15008500D01*
X13570357Y-15008500D02*
X13560833Y-15018024D01*
X13560833Y-15018024D02*
X13541786Y-15046595D01*
X13541786Y-15046595D02*
X13532262Y-15084690D01*
X13532262Y-15084690D02*
X13532262Y-15160881D01*
X13532262Y-15160881D02*
X13541786Y-15179928D01*
X13541786Y-15179928D02*
X13551310Y-15189452D01*
X13551310Y-15189452D02*
X13570357Y-15198976D01*
X13570357Y-15198976D02*
X13608452Y-15198976D01*
X13608452Y-15198976D02*
X13627500Y-15189452D01*
X13627500Y-15189452D02*
X13637024Y-15179928D01*
X13637024Y-15179928D02*
X13646548Y-15160881D01*
X13646548Y-15160881D02*
X13646548Y-15113262D01*
X13646548Y-15113262D02*
X13637024Y-15094214D01*
X13637024Y-15094214D02*
X13627500Y-15084690D01*
X13627500Y-15084690D02*
X13608452Y-15075167D01*
X13608452Y-15075167D02*
X13570357Y-15075167D01*
X13570357Y-15075167D02*
X13551310Y-15084690D01*
X13551310Y-15084690D02*
X13541786Y-15094214D01*
X13541786Y-15094214D02*
X13532262Y-15113262D01*
X13770357Y-14998976D02*
X13789405Y-14998976D01*
X13789405Y-14998976D02*
X13808452Y-15008500D01*
X13808452Y-15008500D02*
X13817976Y-15018024D01*
X13817976Y-15018024D02*
X13827500Y-15037071D01*
X13827500Y-15037071D02*
X13837024Y-15075167D01*
X13837024Y-15075167D02*
X13837024Y-15122786D01*
X13837024Y-15122786D02*
X13827500Y-15160881D01*
X13827500Y-15160881D02*
X13817976Y-15179928D01*
X13817976Y-15179928D02*
X13808452Y-15189452D01*
X13808452Y-15189452D02*
X13789405Y-15198976D01*
X13789405Y-15198976D02*
X13770357Y-15198976D01*
X13770357Y-15198976D02*
X13751310Y-15189452D01*
X13751310Y-15189452D02*
X13741786Y-15179928D01*
X13741786Y-15179928D02*
X13732262Y-15160881D01*
X13732262Y-15160881D02*
X13722738Y-15122786D01*
X13722738Y-15122786D02*
X13722738Y-15075167D01*
X13722738Y-15075167D02*
X13732262Y-15037071D01*
X13732262Y-15037071D02*
X13741786Y-15018024D01*
X13741786Y-15018024D02*
X13751310Y-15008500D01*
X13751310Y-15008500D02*
X13770357Y-14998976D01*
X13913214Y-14998976D02*
X13913214Y-15037071D01*
X13989405Y-14998976D02*
X13989405Y-15037071D01*
X14252262Y-15275167D02*
X14242738Y-15265643D01*
X14242738Y-15265643D02*
X14223691Y-15237071D01*
X14223691Y-15237071D02*
X14214167Y-15218024D01*
X14214167Y-15218024D02*
X14204643Y-15189452D01*
X14204643Y-15189452D02*
X14195119Y-15141833D01*
X14195119Y-15141833D02*
X14195119Y-15103738D01*
X14195119Y-15103738D02*
X14204643Y-15056119D01*
X14204643Y-15056119D02*
X14214167Y-15027548D01*
X14214167Y-15027548D02*
X14223691Y-15008500D01*
X14223691Y-15008500D02*
X14242738Y-14979928D01*
X14242738Y-14979928D02*
X14252262Y-14970405D01*
X14414167Y-15065643D02*
X14414167Y-15198976D01*
X14366548Y-14989452D02*
X14318929Y-15132309D01*
X14318929Y-15132309D02*
X14442738Y-15132309D01*
X14638929Y-15198976D02*
X14638929Y-14998976D01*
X14724643Y-15198976D02*
X14724643Y-15094214D01*
X14724643Y-15094214D02*
X14715119Y-15075167D01*
X14715119Y-15075167D02*
X14696072Y-15065643D01*
X14696072Y-15065643D02*
X14667500Y-15065643D01*
X14667500Y-15065643D02*
X14648452Y-15075167D01*
X14648452Y-15075167D02*
X14638929Y-15084690D01*
X14848452Y-15198976D02*
X14829405Y-15189452D01*
X14829405Y-15189452D02*
X14819881Y-15179928D01*
X14819881Y-15179928D02*
X14810357Y-15160881D01*
X14810357Y-15160881D02*
X14810357Y-15103738D01*
X14810357Y-15103738D02*
X14819881Y-15084690D01*
X14819881Y-15084690D02*
X14829405Y-15075167D01*
X14829405Y-15075167D02*
X14848452Y-15065643D01*
X14848452Y-15065643D02*
X14877024Y-15065643D01*
X14877024Y-15065643D02*
X14896072Y-15075167D01*
X14896072Y-15075167D02*
X14905595Y-15084690D01*
X14905595Y-15084690D02*
X14915119Y-15103738D01*
X14915119Y-15103738D02*
X14915119Y-15160881D01*
X14915119Y-15160881D02*
X14905595Y-15179928D01*
X14905595Y-15179928D02*
X14896072Y-15189452D01*
X14896072Y-15189452D02*
X14877024Y-15198976D01*
X14877024Y-15198976D02*
X14848452Y-15198976D01*
X15029405Y-15198976D02*
X15010357Y-15189452D01*
X15010357Y-15189452D02*
X15000833Y-15170405D01*
X15000833Y-15170405D02*
X15000833Y-14998976D01*
X15181786Y-15189452D02*
X15162738Y-15198976D01*
X15162738Y-15198976D02*
X15124643Y-15198976D01*
X15124643Y-15198976D02*
X15105595Y-15189452D01*
X15105595Y-15189452D02*
X15096072Y-15170405D01*
X15096072Y-15170405D02*
X15096072Y-15094214D01*
X15096072Y-15094214D02*
X15105595Y-15075167D01*
X15105595Y-15075167D02*
X15124643Y-15065643D01*
X15124643Y-15065643D02*
X15162738Y-15065643D01*
X15162738Y-15065643D02*
X15181786Y-15075167D01*
X15181786Y-15075167D02*
X15191310Y-15094214D01*
X15191310Y-15094214D02*
X15191310Y-15113262D01*
X15191310Y-15113262D02*
X15096072Y-15132309D01*
X15267500Y-15189452D02*
X15286548Y-15198976D01*
X15286548Y-15198976D02*
X15324643Y-15198976D01*
X15324643Y-15198976D02*
X15343691Y-15189452D01*
X15343691Y-15189452D02*
X15353214Y-15170405D01*
X15353214Y-15170405D02*
X15353214Y-15160881D01*
X15353214Y-15160881D02*
X15343691Y-15141833D01*
X15343691Y-15141833D02*
X15324643Y-15132309D01*
X15324643Y-15132309D02*
X15296072Y-15132309D01*
X15296072Y-15132309D02*
X15277024Y-15122786D01*
X15277024Y-15122786D02*
X15267500Y-15103738D01*
X15267500Y-15103738D02*
X15267500Y-15094214D01*
X15267500Y-15094214D02*
X15277024Y-15075167D01*
X15277024Y-15075167D02*
X15296072Y-15065643D01*
X15296072Y-15065643D02*
X15324643Y-15065643D01*
X15324643Y-15065643D02*
X15343691Y-15075167D01*
X15419881Y-15275167D02*
X15429405Y-15265643D01*
X15429405Y-15265643D02*
X15448453Y-15237071D01*
X15448453Y-15237071D02*
X15457976Y-15218024D01*
X15457976Y-15218024D02*
X15467500Y-15189452D01*
X15467500Y-15189452D02*
X15477024Y-15141833D01*
X15477024Y-15141833D02*
X15477024Y-15103738D01*
X15477024Y-15103738D02*
X15467500Y-15056119D01*
X15467500Y-15056119D02*
X15457976Y-15027548D01*
X15457976Y-15027548D02*
X15448453Y-15008500D01*
X15448453Y-15008500D02*
X15429405Y-14979928D01*
X15429405Y-14979928D02*
X15419881Y-14970405D01*
X15749405Y-15275167D02*
X15739881Y-15265643D01*
X15739881Y-15265643D02*
X15720833Y-15237071D01*
X15720833Y-15237071D02*
X15711310Y-15218024D01*
X15711310Y-15218024D02*
X15701786Y-15189452D01*
X15701786Y-15189452D02*
X15692262Y-15141833D01*
X15692262Y-15141833D02*
X15692262Y-15103738D01*
X15692262Y-15103738D02*
X15701786Y-15056119D01*
X15701786Y-15056119D02*
X15711310Y-15027548D01*
X15711310Y-15027548D02*
X15720833Y-15008500D01*
X15720833Y-15008500D02*
X15739881Y-14979928D01*
X15739881Y-14979928D02*
X15749405Y-14970405D01*
X15825595Y-15065643D02*
X15825595Y-15198976D01*
X15825595Y-15084690D02*
X15835119Y-15075167D01*
X15835119Y-15075167D02*
X15854167Y-15065643D01*
X15854167Y-15065643D02*
X15882738Y-15065643D01*
X15882738Y-15065643D02*
X15901786Y-15075167D01*
X15901786Y-15075167D02*
X15911310Y-15094214D01*
X15911310Y-15094214D02*
X15911310Y-15198976D01*
X16035119Y-15198976D02*
X16016072Y-15189452D01*
X16016072Y-15189452D02*
X16006548Y-15179928D01*
X16006548Y-15179928D02*
X15997024Y-15160881D01*
X15997024Y-15160881D02*
X15997024Y-15103738D01*
X15997024Y-15103738D02*
X16006548Y-15084690D01*
X16006548Y-15084690D02*
X16016072Y-15075167D01*
X16016072Y-15075167D02*
X16035119Y-15065643D01*
X16035119Y-15065643D02*
X16063691Y-15065643D01*
X16063691Y-15065643D02*
X16082738Y-15075167D01*
X16082738Y-15075167D02*
X16092262Y-15084690D01*
X16092262Y-15084690D02*
X16101786Y-15103738D01*
X16101786Y-15103738D02*
X16101786Y-15160881D01*
X16101786Y-15160881D02*
X16092262Y-15179928D01*
X16092262Y-15179928D02*
X16082738Y-15189452D01*
X16082738Y-15189452D02*
X16063691Y-15198976D01*
X16063691Y-15198976D02*
X16035119Y-15198976D01*
X16158929Y-15065643D02*
X16235119Y-15065643D01*
X16187500Y-14998976D02*
X16187500Y-15170405D01*
X16187500Y-15170405D02*
X16197024Y-15189452D01*
X16197024Y-15189452D02*
X16216072Y-15198976D01*
X16216072Y-15198976D02*
X16235119Y-15198976D01*
X16421786Y-15065643D02*
X16421786Y-15265643D01*
X16421786Y-15075167D02*
X16440833Y-15065643D01*
X16440833Y-15065643D02*
X16478929Y-15065643D01*
X16478929Y-15065643D02*
X16497976Y-15075167D01*
X16497976Y-15075167D02*
X16507500Y-15084690D01*
X16507500Y-15084690D02*
X16517024Y-15103738D01*
X16517024Y-15103738D02*
X16517024Y-15160881D01*
X16517024Y-15160881D02*
X16507500Y-15179928D01*
X16507500Y-15179928D02*
X16497976Y-15189452D01*
X16497976Y-15189452D02*
X16478929Y-15198976D01*
X16478929Y-15198976D02*
X16440833Y-15198976D01*
X16440833Y-15198976D02*
X16421786Y-15189452D01*
X16631310Y-15198976D02*
X16612262Y-15189452D01*
X16612262Y-15189452D02*
X16602738Y-15170405D01*
X16602738Y-15170405D02*
X16602738Y-14998976D01*
X16793215Y-15198976D02*
X16793215Y-15094214D01*
X16793215Y-15094214D02*
X16783691Y-15075167D01*
X16783691Y-15075167D02*
X16764643Y-15065643D01*
X16764643Y-15065643D02*
X16726548Y-15065643D01*
X16726548Y-15065643D02*
X16707500Y-15075167D01*
X16793215Y-15189452D02*
X16774167Y-15198976D01*
X16774167Y-15198976D02*
X16726548Y-15198976D01*
X16726548Y-15198976D02*
X16707500Y-15189452D01*
X16707500Y-15189452D02*
X16697976Y-15170405D01*
X16697976Y-15170405D02*
X16697976Y-15151357D01*
X16697976Y-15151357D02*
X16707500Y-15132309D01*
X16707500Y-15132309D02*
X16726548Y-15122786D01*
X16726548Y-15122786D02*
X16774167Y-15122786D01*
X16774167Y-15122786D02*
X16793215Y-15113262D01*
X16859881Y-15065643D02*
X16936072Y-15065643D01*
X16888453Y-14998976D02*
X16888453Y-15170405D01*
X16888453Y-15170405D02*
X16897976Y-15189452D01*
X16897976Y-15189452D02*
X16917024Y-15198976D01*
X16917024Y-15198976D02*
X16936072Y-15198976D01*
X17078929Y-15189452D02*
X17059881Y-15198976D01*
X17059881Y-15198976D02*
X17021786Y-15198976D01*
X17021786Y-15198976D02*
X17002738Y-15189452D01*
X17002738Y-15189452D02*
X16993215Y-15170405D01*
X16993215Y-15170405D02*
X16993215Y-15094214D01*
X16993215Y-15094214D02*
X17002738Y-15075167D01*
X17002738Y-15075167D02*
X17021786Y-15065643D01*
X17021786Y-15065643D02*
X17059881Y-15065643D01*
X17059881Y-15065643D02*
X17078929Y-15075167D01*
X17078929Y-15075167D02*
X17088453Y-15094214D01*
X17088453Y-15094214D02*
X17088453Y-15113262D01*
X17088453Y-15113262D02*
X16993215Y-15132309D01*
X17259881Y-15198976D02*
X17259881Y-14998976D01*
X17259881Y-15189452D02*
X17240834Y-15198976D01*
X17240834Y-15198976D02*
X17202738Y-15198976D01*
X17202738Y-15198976D02*
X17183691Y-15189452D01*
X17183691Y-15189452D02*
X17174167Y-15179928D01*
X17174167Y-15179928D02*
X17164643Y-15160881D01*
X17164643Y-15160881D02*
X17164643Y-15103738D01*
X17164643Y-15103738D02*
X17174167Y-15084690D01*
X17174167Y-15084690D02*
X17183691Y-15075167D01*
X17183691Y-15075167D02*
X17202738Y-15065643D01*
X17202738Y-15065643D02*
X17240834Y-15065643D01*
X17240834Y-15065643D02*
X17259881Y-15075167D01*
X17336072Y-15275167D02*
X17345596Y-15265643D01*
X17345596Y-15265643D02*
X17364643Y-15237071D01*
X17364643Y-15237071D02*
X17374167Y-15218024D01*
X17374167Y-15218024D02*
X17383691Y-15189452D01*
X17383691Y-15189452D02*
X17393215Y-15141833D01*
X17393215Y-15141833D02*
X17393215Y-15103738D01*
X17393215Y-15103738D02*
X17383691Y-15056119D01*
X17383691Y-15056119D02*
X17374167Y-15027548D01*
X17374167Y-15027548D02*
X17364643Y-15008500D01*
X17364643Y-15008500D02*
X17345596Y-14979928D01*
X17345596Y-14979928D02*
X17336072Y-14970405D01*
M02*
