M48
; DRILL file {KiCad (7.0.0)} date Thu Jul  6 22:10:31 2023
; FORMAT={-:-/ absolute / metric / decimal}
; #@! TF.CreationDate,2023-07-06T22:10:31+02:00
; #@! TF.GenerationSoftware,Kicad,Pcbnew,(7.0.0)
; #@! TF.FileFunction,Plated,1,2,PTH
FMAT,2
METRIC
; #@! TA.AperFunction,Plated,PTH,ViaDrill
T1C0.400
; #@! TA.AperFunction,Plated,PTH,ComponentDrill
T2C0.600
; #@! TA.AperFunction,Plated,PTH,ComponentDrill
T3C0.800
; #@! TA.AperFunction,Plated,PTH,ComponentDrill
T4C1.000
%
G90
G05
T1
X118.11Y-71.12
X118.11Y-110.49
X138.43Y-72.39
X162.56Y-73.66
X166.37Y-87.63
X168.91Y-90.17
X175.26Y-78.74
X184.15Y-78.74
T2
X148.59Y-69.85
X150.09Y-69.85
X171.45Y-80.01
X171.45Y-81.51
X177.8Y-51.84
X177.8Y-53.34
X180.34Y-108.99
X180.34Y-110.49
T3
X121.92Y-127.0
X121.92Y-129.54
X125.095Y-127.0
X125.095Y-129.54
X128.27Y-127.0
X128.27Y-129.54
X131.445Y-127.0
X131.445Y-129.54
X134.62Y-127.0
X134.62Y-129.54
X148.59Y-57.15
X148.59Y-59.69
X148.59Y-62.23
X149.86Y-86.36
X149.86Y-88.9
X149.86Y-91.44
X149.86Y-93.98
X149.86Y-96.52
X149.86Y-99.06
X149.86Y-101.6
X149.86Y-104.14
X149.86Y-106.68
X149.86Y-109.22
X149.86Y-118.11
X149.86Y-120.65
X149.86Y-123.19
X149.86Y-125.73
X149.86Y-128.27
X149.86Y-130.81
X149.86Y-133.35
X149.86Y-135.89
X149.86Y-138.43
X149.86Y-140.97
X153.67Y-57.15
X153.67Y-67.31
X154.98Y-82.55
X154.98Y-114.3
X157.48Y-60.96
X157.48Y-63.5
X157.48Y-66.04
X157.48Y-68.58
X157.48Y-71.12
X157.48Y-73.66
X157.48Y-76.2
X157.48Y-82.55
X157.48Y-86.36
X157.48Y-88.9
X157.48Y-91.44
X157.48Y-93.98
X157.48Y-96.52
X157.48Y-99.06
X157.48Y-101.6
X157.48Y-104.14
X157.48Y-106.68
X157.48Y-109.22
X157.48Y-114.3
X157.48Y-118.11
X157.48Y-120.65
X157.48Y-123.19
X157.48Y-125.73
X157.48Y-128.27
X157.48Y-130.81
X157.48Y-133.35
X157.48Y-135.89
X157.48Y-138.43
X157.48Y-140.97
X162.6Y-57.15
X165.1Y-57.15
X165.1Y-60.96
X165.1Y-63.5
X165.1Y-66.04
X165.1Y-68.58
X165.1Y-71.12
X165.1Y-73.66
X165.1Y-76.2
X170.18Y-60.96
X170.18Y-63.5
X170.18Y-66.04
X170.18Y-68.58
X170.18Y-71.12
X170.18Y-73.66
X170.18Y-76.2
X170.18Y-86.36
X170.18Y-88.9
X170.18Y-91.44
X170.18Y-93.98
X170.18Y-96.52
X170.18Y-99.06
X170.18Y-101.6
X170.18Y-118.11
X170.18Y-120.65
X170.18Y-123.19
X170.18Y-125.73
X170.18Y-128.27
X170.18Y-130.81
X170.18Y-133.35
X170.18Y-135.89
X170.18Y-138.43
X170.18Y-140.97
X175.3Y-57.15
X175.3Y-82.55
X175.3Y-114.3
X177.8Y-57.15
X177.8Y-60.96
X177.8Y-63.5
X177.8Y-66.04
X177.8Y-68.58
X177.8Y-71.12
X177.8Y-73.66
X177.8Y-76.2
X177.8Y-82.55
X177.8Y-86.36
X177.8Y-88.9
X177.8Y-91.44
X177.8Y-93.98
X177.8Y-96.52
X177.8Y-99.06
X177.8Y-101.6
X177.8Y-114.3
X177.8Y-118.11
X177.8Y-120.65
X177.8Y-123.19
X177.8Y-125.73
X177.8Y-128.27
X177.8Y-130.81
X177.8Y-133.35
X177.8Y-135.89
X177.8Y-138.43
X177.8Y-140.97
X182.88Y-60.96
X182.88Y-63.5
X182.88Y-66.04
X182.88Y-68.58
X182.88Y-71.12
X182.88Y-73.66
X182.88Y-76.2
X182.88Y-86.36
X182.88Y-88.9
X182.88Y-91.44
X182.88Y-93.98
X182.88Y-96.52
X182.88Y-99.06
X182.88Y-101.6
X182.88Y-118.11
X182.88Y-120.65
X182.88Y-123.19
X182.88Y-125.73
X182.88Y-128.27
X182.88Y-130.81
X182.88Y-133.35
X182.88Y-135.89
X182.88Y-138.43
X182.88Y-140.97
X188.0Y-57.15
X188.0Y-82.55
X188.0Y-114.3
X190.5Y-57.15
X190.5Y-60.96
X190.5Y-63.5
X190.5Y-66.04
X190.5Y-68.58
X190.5Y-71.12
X190.5Y-73.66
X190.5Y-76.2
X190.5Y-82.55
X190.5Y-86.36
X190.5Y-88.9
X190.5Y-91.44
X190.5Y-93.98
X190.5Y-96.52
X190.5Y-99.06
X190.5Y-101.6
X190.5Y-114.3
X190.5Y-118.11
X190.5Y-120.65
X190.5Y-123.19
X190.5Y-125.73
X190.5Y-128.27
X190.5Y-130.81
X190.5Y-133.35
X190.5Y-135.89
X190.5Y-138.43
X190.5Y-140.97
X195.58Y-60.96
X195.58Y-63.5
X195.58Y-66.04
X195.58Y-68.58
X195.58Y-71.12
X195.58Y-73.66
X195.58Y-76.2
X195.58Y-78.74
X195.58Y-81.28
T4
X113.03Y-71.12
X113.03Y-73.66
X113.03Y-76.2
X113.03Y-78.74
X113.03Y-81.28
X113.03Y-83.82
X113.03Y-86.36
X113.03Y-88.9
X113.03Y-91.44
X113.03Y-93.98
X113.03Y-96.52
X113.03Y-99.06
X113.03Y-101.6
X113.03Y-104.14
X113.03Y-106.68
X113.03Y-109.22
X113.03Y-111.76
X113.03Y-114.3
X113.03Y-116.84
X113.03Y-119.38
X115.57Y-71.12
X115.57Y-73.66
X115.57Y-76.2
X115.57Y-78.74
X115.57Y-81.28
X115.57Y-83.82
X115.57Y-86.36
X115.57Y-88.9
X115.57Y-91.44
X115.57Y-93.98
X115.57Y-96.52
X115.57Y-99.06
X115.57Y-101.6
X115.57Y-104.14
X115.57Y-106.68
X115.57Y-109.22
X115.57Y-111.76
X115.57Y-114.3
X115.57Y-116.84
X115.57Y-119.38
X121.92Y-58.42
X121.92Y-135.89
X124.46Y-58.42
X124.46Y-135.89
X127.0Y-58.42
X127.0Y-135.89
X129.54Y-58.42
X129.54Y-135.89
X132.08Y-58.42
X132.08Y-135.89
X133.35Y-71.12
X133.35Y-73.66
X133.35Y-76.2
X133.35Y-78.74
X133.35Y-81.28
X133.35Y-83.82
X133.35Y-86.36
X133.35Y-88.9
X133.35Y-91.44
X133.35Y-93.98
X133.35Y-96.52
X133.35Y-99.06
X133.35Y-101.6
X133.35Y-104.14
X133.35Y-106.68
X133.35Y-109.22
X133.35Y-111.76
X133.35Y-114.3
X133.35Y-116.84
X133.35Y-119.38
X134.62Y-135.89
X135.89Y-71.12
X135.89Y-73.66
X135.89Y-76.2
X135.89Y-78.74
X135.89Y-81.28
X135.89Y-83.82
X135.89Y-86.36
X135.89Y-88.9
X135.89Y-91.44
X135.89Y-93.98
X135.89Y-96.52
X135.89Y-99.06
X135.89Y-101.6
X135.89Y-104.14
X135.89Y-106.68
X135.89Y-109.22
X135.89Y-111.76
X135.89Y-114.3
X135.89Y-116.84
X135.89Y-119.38
X162.56Y-88.9
X162.56Y-91.44
X162.56Y-93.98
X162.56Y-96.52
X162.56Y-99.06
X162.56Y-101.6
X162.56Y-104.14
X162.56Y-106.68
X162.56Y-109.22
X162.56Y-120.65
X162.56Y-123.19
X162.56Y-125.73
X162.56Y-128.27
X162.56Y-130.81
X162.56Y-133.35
X162.56Y-135.89
X162.56Y-138.43
X162.56Y-140.97
X204.47Y-60.96
X204.47Y-63.5
X204.47Y-66.04
X204.47Y-68.58
X204.47Y-71.12
X204.47Y-73.66
X204.47Y-76.2
X204.47Y-78.74
X204.47Y-81.28
X204.47Y-109.22
X204.47Y-111.76
X204.47Y-114.3
X204.47Y-116.84
X204.47Y-119.38
X204.47Y-121.92
X204.47Y-124.46
X204.47Y-127.0
X204.47Y-129.54
T0
M30
