G04 #@! TF.GenerationSoftware,KiCad,Pcbnew,(7.0.0)*
G04 #@! TF.CreationDate,2023-07-06T22:10:28+02:00*
G04 #@! TF.ProjectId,cdp-leddriver,6364702d-6c65-4646-9472-697665722e6b,1*
G04 #@! TF.SameCoordinates,Original*
G04 #@! TF.FileFunction,Soldermask,Top*
G04 #@! TF.FilePolarity,Negative*
%FSLAX46Y46*%
G04 Gerber Fmt 4.6, Leading zero omitted, Abs format (unit mm)*
G04 Created by KiCad (PCBNEW (7.0.0)) date 2023-07-06 22:10:28*
%MOMM*%
%LPD*%
G01*
G04 APERTURE LIST*
G04 Aperture macros list*
%AMRoundRect*
0 Rectangle with rounded corners*
0 $1 Rounding radius*
0 $2 $3 $4 $5 $6 $7 $8 $9 X,Y pos of 4 corners*
0 Add a 4 corners polygon primitive as box body*
4,1,4,$2,$3,$4,$5,$6,$7,$8,$9,$2,$3,0*
0 Add four circle primitives for the rounded corners*
1,1,$1+$1,$2,$3*
1,1,$1+$1,$4,$5*
1,1,$1+$1,$6,$7*
1,1,$1+$1,$8,$9*
0 Add four rect primitives between the rounded corners*
20,1,$1+$1,$2,$3,$4,$5,0*
20,1,$1+$1,$4,$5,$6,$7,0*
20,1,$1+$1,$6,$7,$8,$9,0*
20,1,$1+$1,$8,$9,$2,$3,0*%
G04 Aperture macros list end*
%ADD10R,1.600000X1.600000*%
%ADD11O,1.600000X1.600000*%
%ADD12C,1.600000*%
%ADD13RoundRect,0.250000X-0.600000X-0.600000X0.600000X-0.600000X0.600000X0.600000X-0.600000X0.600000X0*%
%ADD14C,1.700000*%
%ADD15C,3.200000*%
%ADD16R,1.700000X1.700000*%
%ADD17O,1.700000X1.700000*%
%ADD18R,1.200000X1.200000*%
%ADD19C,1.200000*%
%ADD20C,1.440000*%
G04 APERTURE END LIST*
D10*
X182879999Y-60959999D03*
D11*
X182879999Y-63499999D03*
X182879999Y-66039999D03*
X182879999Y-68579999D03*
X182879999Y-71119999D03*
X182879999Y-73659999D03*
X182879999Y-76199999D03*
X190499999Y-76199999D03*
X190499999Y-73659999D03*
X190499999Y-71119999D03*
X190499999Y-68579999D03*
X190499999Y-66039999D03*
X190499999Y-63499999D03*
X190499999Y-60959999D03*
D12*
X128270000Y-127000000D03*
D11*
X128269999Y-129539999D03*
D12*
X157480000Y-114300000D03*
X154980000Y-114300000D03*
D13*
X113030000Y-71120000D03*
D14*
X115570000Y-71120000D03*
X113030000Y-73660000D03*
X115570000Y-73660000D03*
X113030000Y-76200000D03*
X115570000Y-76200000D03*
X113030000Y-78740000D03*
X115570000Y-78740000D03*
X113030000Y-81280000D03*
X115570000Y-81280000D03*
X113030000Y-83820000D03*
X115570000Y-83820000D03*
X113030000Y-86360000D03*
X115570000Y-86360000D03*
X113030000Y-88900000D03*
X115570000Y-88900000D03*
X113030000Y-91440000D03*
X115570000Y-91440000D03*
X113030000Y-93980000D03*
X115570000Y-93980000D03*
X113030000Y-96520000D03*
X115570000Y-96520000D03*
X113030000Y-99060000D03*
X115570000Y-99060000D03*
X113030000Y-101600000D03*
X115570000Y-101600000D03*
X113030000Y-104140000D03*
X115570000Y-104140000D03*
X113030000Y-106680000D03*
X115570000Y-106680000D03*
X113030000Y-109220000D03*
X115570000Y-109220000D03*
X113030000Y-111760000D03*
X115570000Y-111760000D03*
X113030000Y-114300000D03*
X115570000Y-114300000D03*
X113030000Y-116840000D03*
X115570000Y-116840000D03*
X113030000Y-119380000D03*
X115570000Y-119380000D03*
D10*
X149859999Y-118109999D03*
D11*
X149859999Y-120649999D03*
X149859999Y-123189999D03*
X149859999Y-125729999D03*
X149859999Y-128269999D03*
X149859999Y-130809999D03*
X149859999Y-133349999D03*
X149859999Y-135889999D03*
X149859999Y-138429999D03*
X149859999Y-140969999D03*
X157479999Y-140969999D03*
X157479999Y-138429999D03*
X157479999Y-135889999D03*
X157479999Y-133349999D03*
X157479999Y-130809999D03*
X157479999Y-128269999D03*
X157479999Y-125729999D03*
X157479999Y-123189999D03*
X157479999Y-120649999D03*
X157479999Y-118109999D03*
D10*
X182879999Y-86359999D03*
D11*
X182879999Y-88899999D03*
X182879999Y-91439999D03*
X182879999Y-93979999D03*
X182879999Y-96519999D03*
X182879999Y-99059999D03*
X182879999Y-101599999D03*
X190499999Y-101599999D03*
X190499999Y-99059999D03*
X190499999Y-96519999D03*
X190499999Y-93979999D03*
X190499999Y-91439999D03*
X190499999Y-88899999D03*
X190499999Y-86359999D03*
D13*
X133350000Y-71120000D03*
D14*
X135890000Y-71120000D03*
X133350000Y-73660000D03*
X135890000Y-73660000D03*
X133350000Y-76200000D03*
X135890000Y-76200000D03*
X133350000Y-78740000D03*
X135890000Y-78740000D03*
X133350000Y-81280000D03*
X135890000Y-81280000D03*
X133350000Y-83820000D03*
X135890000Y-83820000D03*
X133350000Y-86360000D03*
X135890000Y-86360000D03*
X133350000Y-88900000D03*
X135890000Y-88900000D03*
X133350000Y-91440000D03*
X135890000Y-91440000D03*
X133350000Y-93980000D03*
X135890000Y-93980000D03*
X133350000Y-96520000D03*
X135890000Y-96520000D03*
X133350000Y-99060000D03*
X135890000Y-99060000D03*
X133350000Y-101600000D03*
X135890000Y-101600000D03*
X133350000Y-104140000D03*
X135890000Y-104140000D03*
X133350000Y-106680000D03*
X135890000Y-106680000D03*
X133350000Y-109220000D03*
X135890000Y-109220000D03*
X133350000Y-111760000D03*
X135890000Y-111760000D03*
X133350000Y-114300000D03*
X135890000Y-114300000D03*
X133350000Y-116840000D03*
X135890000Y-116840000D03*
X133350000Y-119380000D03*
X135890000Y-119380000D03*
D10*
X182879999Y-118109999D03*
D11*
X182879999Y-120649999D03*
X182879999Y-123189999D03*
X182879999Y-125729999D03*
X182879999Y-128269999D03*
X182879999Y-130809999D03*
X182879999Y-133349999D03*
X182879999Y-135889999D03*
X182879999Y-138429999D03*
X182879999Y-140969999D03*
X190499999Y-140969999D03*
X190499999Y-138429999D03*
X190499999Y-135889999D03*
X190499999Y-133349999D03*
X190499999Y-130809999D03*
X190499999Y-128269999D03*
X190499999Y-125729999D03*
X190499999Y-123189999D03*
X190499999Y-120649999D03*
X190499999Y-118109999D03*
D15*
X113030000Y-50800000D03*
X201930000Y-50800000D03*
D16*
X162559999Y-140969999D03*
D17*
X162559999Y-138429999D03*
X162559999Y-135889999D03*
X162559999Y-133349999D03*
X162559999Y-130809999D03*
X162559999Y-128269999D03*
X162559999Y-125729999D03*
X162559999Y-123189999D03*
X162559999Y-120649999D03*
D12*
X121920000Y-127000000D03*
D11*
X121919999Y-129539999D03*
D12*
X165100000Y-57150000D03*
X162600000Y-57150000D03*
D16*
X121919999Y-58419999D03*
D17*
X124459999Y-58419999D03*
X126999999Y-58419999D03*
X129539999Y-58419999D03*
X132079999Y-58419999D03*
D12*
X190500000Y-82550000D03*
X188000000Y-82550000D03*
X190500000Y-114300000D03*
X188000000Y-114300000D03*
D10*
X157479999Y-60959999D03*
D11*
X157479999Y-63499999D03*
X157479999Y-66039999D03*
X157479999Y-68579999D03*
X157479999Y-71119999D03*
X157479999Y-73659999D03*
X157479999Y-76199999D03*
X165099999Y-76199999D03*
X165099999Y-73659999D03*
X165099999Y-71119999D03*
X165099999Y-68579999D03*
X165099999Y-66039999D03*
X165099999Y-63499999D03*
X165099999Y-60959999D03*
D10*
X195579999Y-81279999D03*
D11*
X195579999Y-78739999D03*
X195579999Y-76199999D03*
X195579999Y-73659999D03*
X195579999Y-71119999D03*
X195579999Y-68579999D03*
X195579999Y-66039999D03*
X195579999Y-63499999D03*
X195579999Y-60959999D03*
D10*
X170179999Y-60959999D03*
D11*
X170179999Y-63499999D03*
X170179999Y-66039999D03*
X170179999Y-68579999D03*
X170179999Y-71119999D03*
X170179999Y-73659999D03*
X170179999Y-76199999D03*
X177799999Y-76199999D03*
X177799999Y-73659999D03*
X177799999Y-71119999D03*
X177799999Y-68579999D03*
X177799999Y-66039999D03*
X177799999Y-63499999D03*
X177799999Y-60959999D03*
D18*
X148589999Y-69849999D03*
D19*
X150090000Y-69850000D03*
D15*
X201930000Y-139700000D03*
D12*
X177800000Y-57150000D03*
X175300000Y-57150000D03*
X134620000Y-127000000D03*
D11*
X134619999Y-129539999D03*
D12*
X190500000Y-57150000D03*
X188000000Y-57150000D03*
D16*
X162559999Y-109219999D03*
D17*
X162559999Y-106679999D03*
X162559999Y-104139999D03*
X162559999Y-101599999D03*
X162559999Y-99059999D03*
X162559999Y-96519999D03*
X162559999Y-93979999D03*
X162559999Y-91439999D03*
X162559999Y-88899999D03*
D16*
X121919999Y-135889999D03*
D17*
X124459999Y-135889999D03*
X126999999Y-135889999D03*
X129539999Y-135889999D03*
X132079999Y-135889999D03*
X134619999Y-135889999D03*
D20*
X148590000Y-57150000D03*
X148590000Y-59690000D03*
X148590000Y-62230000D03*
D12*
X177800000Y-82550000D03*
X175300000Y-82550000D03*
D18*
X171449999Y-80009999D03*
D19*
X171450000Y-81510000D03*
D10*
X170179999Y-118109999D03*
D11*
X170179999Y-120649999D03*
X170179999Y-123189999D03*
X170179999Y-125729999D03*
X170179999Y-128269999D03*
X170179999Y-130809999D03*
X170179999Y-133349999D03*
X170179999Y-135889999D03*
X170179999Y-138429999D03*
X170179999Y-140969999D03*
X177799999Y-140969999D03*
X177799999Y-138429999D03*
X177799999Y-135889999D03*
X177799999Y-133349999D03*
X177799999Y-130809999D03*
X177799999Y-128269999D03*
X177799999Y-125729999D03*
X177799999Y-123189999D03*
X177799999Y-120649999D03*
X177799999Y-118109999D03*
D12*
X177800000Y-114300000D03*
X175300000Y-114300000D03*
X157480000Y-82550000D03*
X154980000Y-82550000D03*
D18*
X180339999Y-110489999D03*
D19*
X180340000Y-108990000D03*
D16*
X204469999Y-81279999D03*
D17*
X204469999Y-78739999D03*
X204469999Y-76199999D03*
X204469999Y-73659999D03*
X204469999Y-71119999D03*
X204469999Y-68579999D03*
X204469999Y-66039999D03*
X204469999Y-63499999D03*
X204469999Y-60959999D03*
D16*
X204469999Y-129539999D03*
D17*
X204469999Y-126999999D03*
X204469999Y-124459999D03*
X204469999Y-121919999D03*
X204469999Y-119379999D03*
X204469999Y-116839999D03*
X204469999Y-114299999D03*
X204469999Y-111759999D03*
X204469999Y-109219999D03*
D10*
X170179999Y-86359999D03*
D11*
X170179999Y-88899999D03*
X170179999Y-91439999D03*
X170179999Y-93979999D03*
X170179999Y-96519999D03*
X170179999Y-99059999D03*
X170179999Y-101599999D03*
X177799999Y-101599999D03*
X177799999Y-99059999D03*
X177799999Y-96519999D03*
X177799999Y-93979999D03*
X177799999Y-91439999D03*
X177799999Y-88899999D03*
X177799999Y-86359999D03*
D12*
X131445000Y-127000000D03*
D11*
X131444999Y-129539999D03*
D15*
X113030000Y-139700000D03*
D12*
X153670000Y-57150000D03*
D11*
X153669999Y-67309999D03*
D18*
X177799999Y-53339999D03*
D19*
X177800000Y-51840000D03*
D10*
X149859999Y-86359999D03*
D11*
X149859999Y-88899999D03*
X149859999Y-91439999D03*
X149859999Y-93979999D03*
X149859999Y-96519999D03*
X149859999Y-99059999D03*
X149859999Y-101599999D03*
X149859999Y-104139999D03*
X149859999Y-106679999D03*
X149859999Y-109219999D03*
X157479999Y-109219999D03*
X157479999Y-106679999D03*
X157479999Y-104139999D03*
X157479999Y-101599999D03*
X157479999Y-99059999D03*
X157479999Y-96519999D03*
X157479999Y-93979999D03*
X157479999Y-91439999D03*
X157479999Y-88899999D03*
X157479999Y-86359999D03*
D12*
X125095000Y-127000000D03*
D11*
X125094999Y-129539999D03*
M02*
